<svg width="521" height="326" viewBox="0 0 521 326" fill="none" xmlns="http://www.w3.org/2000/svg">
<path d="M156.906 60.6636H1V156.783H156.906V60.6636Z" fill="#AAAAAA" stroke="#6D6D6D" stroke-miterlimit="10"/>
<path d="M90.5628 156.784H67.3428V177.776H90.5628V156.784Z" fill="#AAAAAA" stroke="#6D6D6D" stroke-miterlimit="10"/>
<path d="M119.311 177.776H37.4884V183.3H119.311V177.776Z" fill="#AAAAAA" stroke="#6D6D6D" stroke-miterlimit="10"/>
<path d="M153.589 63.9766H4.31726V152.362H153.589V63.9766Z" fill="url(#paint0_linear_54_6044)" stroke="#6D6D6D" stroke-miterlimit="10"/>
<path d="M519.58 139.103H363.674V235.222H519.58V139.103Z" fill="#AAAAAA" stroke="#6D6D6D" stroke-miterlimit="10"/>
<path d="M453.237 235.223H430.017V256.215H453.237V235.223Z" fill="#AAAAAA" stroke="#6D6D6D" stroke-miterlimit="10"/>
<path d="M481.985 256.215H400.163V261.739H481.985V256.215Z" fill="#AAAAAA" stroke="#6D6D6D" stroke-miterlimit="10"/>
<path d="M516.263 142.416H366.992V230.801H516.263V142.416Z" fill="url(#paint1_linear_54_6044)" stroke="#6D6D6D" stroke-miterlimit="10"/>
<path d="M240.94 209.809H125.946V288.251H240.94V209.809Z" fill="#AAAAAA" stroke="#6D6D6D" stroke-miterlimit="10"/>
<path d="M259.737 290.462H107.149V294.882H259.737V290.462Z" fill="#AAAAAA" stroke="#6D6D6D" stroke-miterlimit="10"/>
<path d="M236.517 213.122H129.263V284.936H236.517V213.122Z" fill="url(#paint2_linear_54_6044)" stroke="#6D6D6D" stroke-miterlimit="10"/>
<path d="M125.702 287.698L107.149 291.013H259.074L240.719 287.698H125.702Z" fill="#6D6D6D"/>
<path opacity="0.5" d="M273.006 109.273H186.76V1H259.814L273.006 16.8763V109.273Z" fill="url(#paint3_linear_54_6044)" stroke="#AFAFAF" stroke-miterlimit="10"/>
<path opacity="0.3" d="M196.711 93.8045H139.214V20.8862H187.843L196.711 31.5588V93.8045Z" fill="url(#paint4_linear_54_6044)" stroke="#AFAFAF" stroke-miterlimit="10"/>
<path opacity="0.5" d="M167.963 223.071H110.466V150.152H159.095L167.963 160.825V223.071Z" fill="url(#paint5_linear_54_6044)" stroke="#AFAFAF" stroke-miterlimit="10"/>
<path opacity="0.3" d="M229.883 268.366H154.694V173.352H218.284L229.883 187.317V268.366Z" fill="url(#paint6_linear_54_6044)" stroke="#AFAFAF" stroke-miterlimit="10"/>
<path opacity="0.5" d="M380.26 265.051H315.023V182.189H370.143L380.26 193.756V265.051Z" fill="url(#paint7_linear_54_6044)" stroke="#AFAFAF" stroke-miterlimit="10"/>
<path opacity="0.3" d="M457.66 185.507H413.432V129.161H450.794L457.66 137.005V185.507Z" fill="url(#paint8_linear_54_6044)" stroke="#AFAFAF" stroke-miterlimit="10"/>
<path opacity="0.5" d="M141.426 165.618H93.8799V104.853H134.404L141.426 113.746V165.618Z" fill="url(#paint9_linear_54_6044)" stroke="#AFAFAF" stroke-miterlimit="10"/>
<path d="M370.11 165.723H262.856V30.9346H353.712L370.11 50.8214V165.723Z" fill="url(#paint10_linear_54_6044)" stroke="#AFAFAF" stroke-miterlimit="10"/>
<path d="M282.476 70.3369V50.4168C284.068 50.1765 285.961 49.9962 288.034 49.9962C291.79 49.9962 294.464 50.8675 296.236 52.52C298.039 54.1725 299.091 56.516 299.091 59.791C299.091 63.096 298.069 65.8 296.176 67.6629C294.283 69.5557 291.159 70.5772 287.223 70.5772C285.36 70.5772 283.798 70.4871 282.476 70.3369ZM285.089 52.3397V68.3238C285.75 68.444 286.712 68.4741 287.733 68.4741C293.322 68.4741 296.356 65.3494 296.356 59.8811C296.386 55.1039 293.682 52.0693 288.154 52.0693C286.802 52.0693 285.781 52.1895 285.089 52.3397ZM308.525 70.397H305.791L300.653 50.1464H303.418L305.821 60.3919C306.422 62.9157 306.963 65.4395 307.323 67.3924H307.384C307.714 65.3794 308.345 62.9758 309.036 60.3618L311.74 50.1464H314.474L316.938 60.4219C317.509 62.8256 318.05 65.2292 318.35 67.3624H318.41C318.831 65.139 319.402 62.8856 320.033 60.3618L322.707 50.1464H325.381L319.642 70.397H316.908L314.354 59.8511C313.723 57.2672 313.302 55.2842 313.032 53.2411H312.972C312.611 55.2541 312.161 57.2371 311.41 59.8511L308.525 70.397ZM343.309 59.7609V69.4956C342.137 69.9162 339.824 70.6073 337.089 70.6073C334.025 70.6073 331.501 69.8261 329.518 67.9333C327.775 66.2507 326.694 63.5466 326.694 60.3919C326.724 54.3528 330.87 49.9361 337.66 49.9361C340.004 49.9361 341.837 50.4469 342.708 50.8675L342.077 53.0007C340.995 52.52 339.643 52.1294 337.6 52.1294C332.673 52.1294 329.458 55.194 329.458 60.2717C329.458 65.4095 332.553 68.444 337.27 68.444C338.982 68.444 340.154 68.2037 340.755 67.9032V61.8641H336.639V59.7609H343.309Z" fill="black"/>
<path d="M316.681 94.3555V155.121" stroke="#3B78D1" stroke-width="2" stroke-miterlimit="10"/>
<path d="M346.535 125.294H285.721" stroke="#3B78D1" stroke-width="2" stroke-miterlimit="10"/>
<path d="M323.315 118.664H310.047V131.921H323.315V118.664Z" stroke="#3B78D1" stroke-width="2" stroke-miterlimit="10"/>
<path d="M264.159 277.204H214.402V215.334H256.431L264.159 224.051V277.204Z" fill="url(#paint11_linear_54_6044)" stroke="#AFAFAF" stroke-miterlimit="10"/>
<path d="M223.389 233.096V223.88C224.125 223.769 225.001 223.685 225.96 223.685C227.698 223.685 228.935 224.089 229.755 224.853C230.589 225.618 231.075 226.702 231.075 228.217C231.075 229.746 230.603 230.997 229.727 231.859C228.851 232.734 227.406 233.207 225.585 233.207C224.723 233.207 224 233.165 223.389 233.096ZM224.598 224.77V232.164C224.904 232.22 225.349 232.234 225.821 232.234C228.407 232.234 229.81 230.788 229.81 228.259C229.824 226.048 228.573 224.645 226.016 224.645C225.39 224.645 224.918 224.7 224.598 224.77ZM235.44 233.124H234.175L231.798 223.755H233.077L234.189 228.495C234.467 229.662 234.717 230.83 234.884 231.734H234.912C235.065 230.802 235.357 229.69 235.676 228.481L236.927 223.755H238.192L239.332 228.509C239.596 229.621 239.846 230.733 239.985 231.72H240.013C240.208 230.691 240.472 229.649 240.764 228.481L242.001 223.755H243.238L240.583 233.124H239.318L238.137 228.245C237.845 227.049 237.65 226.132 237.525 225.187H237.497C237.331 226.118 237.122 227.035 236.775 228.245L235.44 233.124ZM251.532 228.203V232.707C250.99 232.901 249.92 233.221 248.655 233.221C247.237 233.221 246.07 232.859 245.152 231.984C244.346 231.205 243.846 229.954 243.846 228.495C243.859 225.701 245.778 223.658 248.919 223.658C250.003 223.658 250.851 223.894 251.254 224.089L250.962 225.075C250.462 224.853 249.836 224.672 248.891 224.672C246.612 224.672 245.124 226.09 245.124 228.439C245.124 230.816 246.556 232.22 248.738 232.22C249.531 232.22 250.073 232.109 250.351 231.97V229.176H248.446V228.203H251.532Z" fill="black"/>
<path d="M238.728 244.61V272.231" stroke="#3B78D1" stroke-miterlimit="10"/>
<path d="M252.549 259.528H224.906" stroke="#3B78D1" stroke-miterlimit="10"/>
<path d="M242.045 256.211H235.411V262.84H242.045V256.211Z" stroke="#3B78D1" stroke-miterlimit="10"/>
<path d="M127.051 131.367H59.6028V46.2959H116.492L127.051 58.2059V131.367Z" fill="url(#paint12_linear_54_6044)" stroke="#AFAFAF" stroke-miterlimit="10"/>
<path d="M71.3345 70.1705V57.5767C72.3412 57.4247 73.5379 57.3108 74.8486 57.3108C77.223 57.3108 78.9136 57.8616 80.0343 58.9064C81.174 59.9511 81.8388 61.4327 81.8388 63.5032C81.8388 65.5927 81.193 67.3022 79.9963 68.4799C78.7996 69.6766 76.8241 70.3225 74.3357 70.3225C73.158 70.3225 72.1703 70.2655 71.3345 70.1705ZM72.9871 58.7924V68.8978C73.405 68.9738 74.0128 68.9928 74.6587 68.9928C78.1918 68.9928 80.1103 67.0173 80.1103 63.5602C80.1293 60.5399 78.4197 58.6214 74.9246 58.6214C74.0698 58.6214 73.424 58.6974 72.9871 58.7924ZM87.8036 70.2085H86.0751L82.8269 57.4057H84.5745L86.0941 63.8831C86.474 65.4787 86.8159 67.0743 87.0438 68.309H87.0818C87.2908 67.0363 87.6897 65.5167 88.1266 63.8641L89.8361 57.4057H91.5647L93.1223 63.9021C93.4832 65.4217 93.8251 66.9413 94.0151 68.29H94.0531C94.319 66.8843 94.6799 65.4597 95.0788 63.8641L96.7694 57.4057H98.4599L94.8319 70.2085H93.1033L91.4887 63.5412C91.0898 61.9076 90.8239 60.6539 90.6529 59.3622H90.6149C90.387 60.6349 90.1021 61.8886 89.6272 63.5412L87.8036 70.2085ZM109.794 63.4842V69.6386C109.054 69.9046 107.591 70.3415 105.862 70.3415C103.925 70.3415 102.329 69.8476 101.076 68.6509C99.9739 67.5872 99.2901 65.8776 99.2901 63.8831C99.3091 60.0651 101.93 57.2728 106.223 57.2728C107.705 57.2728 108.864 57.5957 109.415 57.8616L109.016 59.2103C108.332 58.9064 107.477 58.6594 106.185 58.6594C103.07 58.6594 101.038 60.5969 101.038 63.8071C101.038 67.0553 102.994 68.9738 105.976 68.9738C107.059 68.9738 107.8 68.8218 108.18 68.6319V64.8139H105.578V63.4842H109.794Z" fill="black"/>
<path d="M92.7745 86.6206V124.185" stroke="#3B78D1" stroke-miterlimit="10"/>
<path d="M111.018 105.958H73.4242" stroke="#3B78D1" stroke-miterlimit="10"/>
<path d="M97.1973 101.535H88.3516V109.269H97.1973V101.535Z" stroke="#3B78D1" stroke-miterlimit="10"/>
<path d="M269.744 84.8126C264.956 85.0225 260.179 84.9452 255.392 85.1662C253.07 85.2766 250.737 85.3871 248.415 85.4866C247.276 85.5418 246.126 85.6633 244.987 85.6081C243.737 85.5528 242.422 85.365 241.172 85.4645C240.597 85.5086 240.288 85.9506 240.354 86.5361C240.863 90.9886 241.371 95.441 241.891 99.8934C242.145 102.092 242.4 104.302 242.654 106.5C242.908 108.677 243.395 110.953 243.229 113.14C243.538 112.754 243.837 112.367 244.147 111.98C242.377 111.991 240.553 112.577 238.828 112.941C237.07 113.317 235.312 113.682 233.554 114.057C230.038 114.797 226.533 115.571 223.005 116.278C222.309 116.422 222.032 116.775 221.999 117.515C221.778 122.178 221.568 126.84 221.347 131.491C221.126 136.143 221.048 140.827 220.672 145.467C221.07 145.003 221.468 144.539 221.866 144.075C219.191 143.799 216.504 143.512 213.828 143.225C211.185 142.948 208.52 142.838 205.867 142.661C200.57 142.308 195.274 141.954 189.978 141.6C179.396 140.893 168.803 140.231 158.21 139.568C155.28 139.38 152.35 139.203 149.42 139.015C147.905 138.916 146.401 138.827 144.887 138.728C144.179 138.684 143.471 138.64 142.764 138.595C141.99 138.551 141.227 138.706 140.464 138.827C138.518 139.115 139.292 141.766 139.767 142.926C140.198 143.976 140.784 145.025 141.547 145.876C142.255 146.672 143.129 147.633 144.19 147.931C144.842 148.108 145.506 148.351 146.18 148.461C147.032 148.605 147.894 148.627 148.757 148.682C150.083 148.771 151.399 148.848 152.726 148.937C155.369 149.102 158.022 149.279 160.665 149.445C166.006 149.787 171.346 150.13 176.687 150.472C187.258 151.146 197.839 151.776 208.421 152.406C211.395 152.582 214.37 152.792 217.344 152.936C220.329 153.091 223.326 153.069 226.3 153.124C227.03 153.135 227.494 152.372 227.494 151.732C227.483 147.025 227.738 142.308 227.87 137.612C228.003 132.906 228.136 128.199 228.268 123.492C227.937 123.901 227.594 124.321 227.262 124.73C230.812 123.945 234.383 123.227 237.943 122.476C239.702 122.1 241.46 121.736 243.218 121.36C245.053 120.973 247.077 120.764 248.791 120.001C249.343 119.758 249.222 118.521 249.111 118.145C249.189 118.41 248.691 116.786 248.846 117.449C248.791 117.184 248.779 116.875 248.746 116.609C248.68 116.046 248.625 115.482 248.558 114.93C248.448 113.903 248.326 112.875 248.216 111.848C247.972 109.649 247.718 107.45 247.475 105.252C246.988 100.899 246.502 96.5458 246.015 92.2039C245.739 92.5574 245.473 92.922 245.197 93.2755C245.96 93.2203 246.756 92.9993 247.508 92.8447C247.375 92.8668 247.231 92.8999 247.099 92.922C247.84 92.7784 248.592 92.6237 249.343 92.4801C249.222 92.5022 249.1 92.5243 248.99 92.5353C253.014 92.0271 257.083 91.7177 261.119 91.32C265.089 90.9223 269.025 90.2262 273.006 89.8175C273.437 89.7733 271.966 87.188 271.845 87.0002C271.458 86.4146 271.049 85.818 270.551 85.3098C270.341 85.1109 270.087 84.7905 269.744 84.8126Z" fill="#FF314F"/>
<path d="M163.252 108.267C158.155 112.3 153.036 116.299 147.96 120.354C142.952 124.353 137.865 128.242 132.923 132.319C130.081 134.661 127.261 137.037 124.442 139.412C123.59 140.13 124.619 142.152 124.984 142.826C125.724 144.207 126.764 145.809 128.201 146.538C133.553 149.278 138.927 152.007 144.278 154.747C146.943 156.106 149.597 157.465 152.251 158.813C153.6 159.498 154.949 160.194 156.297 160.879C156.629 161.056 156.961 161.243 157.315 161.398C157.613 161.564 157.646 161.575 157.425 161.431C157.591 161.542 157.757 161.663 157.923 161.774C158.365 162.083 158.863 162.503 159.371 162.702C159.769 162.867 160.256 162.934 160.676 163.055C160.267 162.856 159.858 162.669 159.449 162.47C159.692 162.635 159.946 162.801 160.19 162.967C160.61 163.254 161.395 163.796 161.948 163.442C162.644 162.989 162.279 161.796 162.091 161.188C161.749 160.083 161.196 159.089 160.521 158.15C159.891 157.288 159.051 156.15 158 155.775C157.868 155.73 157.271 155.498 157.669 155.73C157.248 155.487 156.928 155.134 156.474 154.924C155.955 154.681 155.38 154.592 154.86 154.36C153.788 153.896 152.748 153.3 151.698 152.769C149.586 151.709 147.485 150.648 145.373 149.576C141.116 147.433 136.859 145.279 132.591 143.135C130.192 141.92 127.781 140.705 125.382 139.5C126.631 141.876 127.892 144.251 129.141 146.638C134.095 142.362 139.07 138.108 143.847 133.656C148.58 129.248 153.367 124.906 158.133 120.531C160.864 118.023 163.595 115.515 166.326 113.007C166.758 112.62 165.409 110.72 165.187 110.388C165.044 110.156 163.639 107.969 163.252 108.267Z" fill="#FF314F"/>
<path d="M456.62 76.2286C457.151 75.7204 457.538 75.2453 457.859 74.5272C458.157 73.8422 457.947 73.113 457.35 72.4722C456.676 71.7541 455.515 71.5663 454.663 71.4668C453.513 71.3342 452.187 71.6215 451.247 72.0524C450.915 72.2071 450.627 72.3838 450.362 72.5716C450.362 72.5716 450.351 72.5716 450.351 72.5606C449.455 73.0909 448.98 73.9085 448.35 74.6598C447.918 75.168 447.487 75.6651 447.067 76.1734C446.171 77.2229 445.276 78.2725 444.38 79.3332C442.025 82.0952 439.67 84.8573 437.315 87.6193C437.414 85.8516 437.447 84.0618 437.414 82.2609C437.315 77.1567 436.629 71.9419 435.291 66.7492C433.887 61.3467 431.875 56.0325 429.022 50.8729C426.235 45.8349 422.719 40.9958 418.606 36.676C414.515 32.3782 409.86 28.6439 404.829 25.4399C405.061 25.5835 405.282 25.7382 405.503 25.8818C404.563 25.2742 403.601 24.6886 402.617 24.1252C399.82 22.5342 396.901 21.0759 393.926 20.0263C392.401 19.4849 390.875 19.054 389.338 18.579C387.657 18.0597 385.965 17.6178 384.274 17.2532C377.65 15.828 371.116 15.8501 365.101 17.209C359.395 18.4906 354.154 21.0206 349.963 24.4898C349.643 24.7549 349.211 25.0311 348.99 25.3626C348.924 25.4289 348.858 25.4952 348.78 25.5614C348.614 25.7161 348.46 25.8708 348.294 26.0255C347.873 26.4343 347.475 26.8541 347.088 27.285C346.303 28.1688 345.574 29.0969 344.899 30.0691C343.506 32.0689 342.334 34.2343 341.505 36.5655C340.708 38.8193 340.167 41.2499 340.133 43.7689C340.1 46.2437 340.432 48.8401 341.051 51.3701C341.118 51.6574 342.909 51.2375 343.064 51.2044C343.495 51.0939 343.948 50.9613 344.335 50.7735C344.413 50.7404 344.8 50.5857 344.778 50.42C344.667 49.7902 344.578 49.1605 344.512 48.5307C344.258 46.0228 344.501 43.6032 344.932 41.261C345.352 38.9519 346.071 36.7423 347.044 34.6873C347.52 33.6819 348.15 32.555 348.681 31.7374C349.2 30.9309 349.963 29.9034 350.671 29.0858C351.047 28.6439 351.456 28.213 351.865 27.7932C352.075 27.5833 352.285 27.3734 352.495 27.1745C352.606 27.0751 352.705 26.9756 352.816 26.8651C352.827 26.8541 352.827 26.8541 352.838 26.843C352.849 26.832 352.871 26.8209 352.882 26.8099C353.745 26.0476 354.652 25.3184 355.58 24.6334C356.023 24.313 356.476 23.9926 356.929 23.6943C356.94 23.6833 356.962 23.6722 356.974 23.6612C357.106 23.5838 357.228 23.5065 357.349 23.4291C357.582 23.2855 357.825 23.1419 358.068 23.0093C358.588 22.7221 359.119 22.4348 359.649 22.1696C359.771 22.1144 359.893 22.0481 360.003 21.9929C360.246 21.8934 360.479 21.783 360.711 21.6835C361.264 21.4515 361.839 21.2305 362.414 21.0206C362.657 20.9322 362.911 20.866 363.143 20.7776C363.221 20.7555 363.309 20.7334 363.387 20.7002C363.973 20.5235 364.581 20.3798 365.189 20.2362C365.41 20.181 365.642 20.1368 365.863 20.0926C365.996 20.0705 366.129 20.0484 366.25 20.0263C366.848 19.9269 367.445 19.8385 368.064 19.7722C368.396 19.739 368.727 19.7059 369.07 19.6727C369.136 19.6727 369.203 19.6617 369.236 19.6617C370.541 19.5954 371.879 19.5954 373.216 19.6727C373.416 19.6838 373.615 19.6948 373.814 19.7059C374.112 19.728 374.4 19.7611 374.698 19.7832C375.406 19.8606 376.124 19.9489 376.832 20.0594C378.225 20.2693 379.63 20.5566 381.034 20.8991C381.111 20.9212 381.189 20.9433 381.266 20.9654C381.388 20.9985 381.498 21.0317 381.62 21.0648C381.952 21.1532 382.283 21.2526 382.604 21.341C383.312 21.5509 384.03 21.7609 384.727 22.015C386.076 22.5121 387.414 23.1308 388.719 23.7606C391.428 25.0753 394.07 26.4343 396.635 28.0583C398.139 29.0306 399.61 30.0581 401.047 31.1298C406.2 35.0077 410.811 39.5927 414.614 44.6417C415.61 46.0007 416.549 47.3927 417.412 48.818C420.696 54.2316 423.018 59.8993 424.643 65.6555C425.052 67.2022 425.406 68.749 425.694 70.2847C426.755 75.9082 427.054 81.4876 426.678 86.9122C424.909 83.3216 423.184 79.7309 421.47 76.1292C420.187 73.4445 418.894 70.7708 417.545 68.1082C416.87 66.7824 416.229 65.4345 415.521 64.1198C415.167 63.4569 414.791 62.805 414.426 62.1421C414.227 61.7886 413.973 61.4682 413.752 61.1367C413.542 60.8163 413.199 60.5512 412.923 60.275C412.845 60.2087 412.558 60.286 412.48 60.2971C412.149 60.3523 411.817 60.4296 411.496 60.518C411.297 60.5733 410.192 60.75 410.18 60.9821C410.169 61.424 410.136 61.8107 410.214 62.2637C410.28 62.6724 410.379 63.0702 410.512 63.479C410.755 64.2744 410.988 65.0699 411.275 65.8654C411.817 67.4121 412.37 68.9478 412.912 70.4946C414.858 76.0297 417.047 81.5318 419.137 87.0559C420.176 89.8069 421.061 92.5689 422.1 95.3199C423.139 98.0599 424.179 100.8 425.207 103.54C425.45 104.181 426.247 104.6 426.855 104.821C427.562 105.087 428.226 105.164 428.933 105.153C430.691 105.142 432.251 104.556 433.334 103.44C434.252 102.49 435.07 101.441 435.933 100.446C436.795 99.4409 437.646 98.4355 438.509 97.4301C441.561 93.8726 444.601 90.3151 447.653 86.7465C449.179 84.9678 450.705 83.189 452.22 81.4102C452.961 80.5374 453.701 79.6757 454.442 78.8028C455.305 77.8085 456.101 76.7368 457.074 75.8198C456.908 75.9524 456.764 76.096 456.62 76.2286ZM349.079 25.2631C349.046 25.2963 349.012 25.3294 348.979 25.3626C349.001 25.3294 349.322 25.0311 349.079 25.2631ZM352.805 26.8541C352.761 26.8983 352.672 26.9867 352.672 26.9867C352.694 26.9314 352.761 26.8872 352.805 26.8541Z" fill="#FF314F"/>
<path d="M295.651 303.37C295.651 303.348 295.651 303.337 295.651 303.315C295.618 303.127 295.584 302.928 295.551 302.74C295.529 302.619 295.529 302.707 295.651 303.37Z" fill="#FF314F"/>
<path d="M295.418 306.851C295.44 306.774 295.463 306.696 295.485 306.63C295.485 306.619 295.485 306.608 295.496 306.597C295.496 306.597 295.496 306.597 295.496 306.586C295.253 307.149 295.341 307.083 295.418 306.851Z" fill="#FF314F"/>
<path d="M332.792 282.279C333.676 278.699 334.55 275.12 335.445 271.54C336.175 268.646 336.894 265.751 337.624 262.856C337.778 262.238 337.944 261.608 338.11 260.989C338.53 260.37 338.818 259.774 339.017 258.967C339.083 258.68 339.138 258.393 339.194 258.094C339.326 257.443 339.382 256.769 339.371 256.095C339.536 255.399 339.691 254.703 339.824 254.007C340.288 251.554 339.691 248.936 338.453 246.814C337.944 245.952 337.369 245.201 336.573 244.594C335.91 244.085 334.859 243.511 333.986 243.886C331.365 244.991 328.789 246.173 326.08 247.024C323.382 247.875 320.673 248.681 317.997 249.587C312.634 251.388 307.272 253.178 301.931 255.056C298.879 256.128 295.828 257.166 292.732 258.128C292.3 258.26 292.334 259.199 292.334 259.464C292.345 260.37 292.577 261.387 292.842 262.249C293.119 263.132 293.439 264.072 293.959 264.845C294.169 265.154 294.556 265.85 295.02 265.74C300.029 264.513 305.093 263.53 310.135 262.447C305.359 265.508 300.593 268.579 295.817 271.64C293.329 273.242 290.808 274.81 288.353 276.49C287.126 274.446 285.843 272.435 284.494 270.48C280.812 265.143 276.765 259.973 272.53 255.067C271.502 253.874 270.451 252.703 269.39 251.554C268.152 250.217 268.129 252.824 268.218 253.476C268.461 255.299 269.058 257.409 270.297 258.824C271.767 260.503 273.205 262.215 274.609 263.95C274.653 264.005 274.686 264.049 274.708 264.083C274.742 264.116 274.775 264.16 274.819 264.215C274.985 264.425 275.151 264.635 275.317 264.845C275.648 265.265 275.969 265.685 276.29 266.116C276.986 267.033 277.683 267.961 278.357 268.9C279.629 270.645 280.812 272.457 281.962 274.291C281.984 274.335 282.039 274.402 282.084 274.468C282.061 274.435 282.039 274.402 282.006 274.369C282.161 274.578 282.283 274.833 282.426 275.054C282.703 275.506 282.979 275.971 283.256 276.435C283.775 277.307 284.295 278.169 284.815 279.031C283.222 280.246 281.685 281.528 280.259 282.931C275.659 287.416 272.154 293.206 271.225 299.636C270.153 307.16 272.132 315.788 277.827 321.147C279.961 323.146 282.393 324.704 285.279 325.356C287.59 325.886 290.244 325.842 292.499 325.036C298.426 322.903 301.035 316.308 301.212 310.463C301.434 302.895 298.503 295.769 295.219 289.107C294.976 288.621 294.733 288.135 294.49 287.649C296.502 286.356 298.537 285.107 300.527 283.87C308.499 278.876 316.471 273.882 324.454 268.889C325.074 268.502 325.693 268.115 326.312 267.729C325.085 272.269 323.846 276.81 322.597 281.351C322.177 282.898 322.365 284.953 322.862 286.444C323.327 287.847 323.968 289.129 324.952 290.245C325.638 291.007 326.655 291.957 327.761 292.013C328.944 292.068 330.138 291.56 330.635 290.4C331.221 289.052 331.708 287.626 332.228 286.245C332.725 284.897 332.913 283.671 332.792 282.279ZM289.779 288.057C289.923 288.333 290.31 289.162 289.779 288.057V288.057ZM290.863 290.289C291.803 292.289 292.698 294.311 293.539 296.354C293.738 296.841 293.937 297.327 294.125 297.813C294.202 298.023 294.291 298.233 294.368 298.443C294.379 298.465 294.39 298.498 294.401 298.52C294.479 298.741 294.644 299.205 294.711 299.426C294.899 300 295.087 300.586 295.242 301.172C295.275 301.293 295.308 301.404 295.33 301.525C295.352 301.613 295.374 301.702 295.385 301.779C295.452 302.089 295.496 302.409 295.551 302.729C295.573 302.84 295.629 303.094 295.64 303.282C295.64 303.293 295.64 303.304 295.64 303.315C295.651 303.403 295.662 303.492 295.684 303.569C295.673 303.492 295.662 303.425 295.64 303.37C295.662 303.679 295.684 304 295.695 304.32C295.706 304.508 295.695 304.696 295.695 304.895C295.695 304.95 295.695 304.994 295.684 305.049C295.64 305.569 295.573 306.088 295.485 306.596C295.496 306.574 295.507 306.552 295.518 306.519C295.507 306.552 295.485 306.596 295.474 306.629C295.463 306.707 295.43 306.784 295.407 306.85C295.363 307.027 295.33 307.215 295.275 307.381C295.009 308.276 294.644 309.148 294.213 309.977C293.406 311.303 292.378 312.452 291.117 313.369C289.846 314.131 288.397 314.65 286.916 314.728C285.578 314.672 284.273 314.385 283.034 313.899C282.371 313.568 281.73 313.192 281.099 312.805C280.768 312.595 280.436 312.374 280.126 312.142C280.038 312.076 279.95 312.01 279.861 311.944C279.596 311.689 279.33 311.435 279.076 311.17C278.976 311.06 278.877 310.949 278.777 310.839C278.634 310.629 278.49 310.43 278.357 310.22C278.346 310.198 278.335 310.165 278.313 310.143C278.313 310.132 278.313 310.132 278.302 310.121C278.291 310.087 278.28 310.043 278.269 310.01C278.225 309.69 278.147 309.369 278.092 309.06C278.092 308.938 278.081 308.806 278.081 308.684C278.081 308.32 278.092 307.955 278.103 307.591C278.125 307.403 278.147 307.226 278.18 307.038C278.313 306.176 278.512 305.337 278.755 304.508C279.43 302.564 280.359 300.73 281.486 299.006C284.019 295.504 287.269 292.675 290.774 290.168C290.808 290.19 290.83 290.245 290.863 290.289Z" fill="#FF314F"/>
<defs>
<linearGradient id="paint0_linear_54_6044" x1="9.81918" y1="154.623" x2="147.74" y2="61.8" gradientUnits="userSpaceOnUse">
<stop stop-color="#3FF6FF"/>
<stop offset="1" stop-color="#2A73FF"/>
</linearGradient>
<linearGradient id="paint1_linear_54_6044" x1="372.493" y1="233.062" x2="510.414" y2="140.239" gradientUnits="userSpaceOnUse">
<stop stop-color="#3FF6FF"/>
<stop offset="1" stop-color="#2A73FF"/>
</linearGradient>
<linearGradient id="paint2_linear_54_6044" x1="131.365" y1="283.65" x2="234.157" y2="214.47" gradientUnits="userSpaceOnUse">
<stop stop-color="#3FF6FF"/>
<stop offset="1" stop-color="#2A73FF"/>
</linearGradient>
<linearGradient id="paint3_linear_54_6044" x1="174.41" y1="-10.8288" x2="494.064" y2="415.72" gradientUnits="userSpaceOnUse">
<stop offset="0.107" stop-color="white"/>
<stop offset="1"/>
</linearGradient>
<linearGradient id="paint4_linear_54_6044" x1="130.739" y1="13.092" x2="345.203" y2="299.275" gradientUnits="userSpaceOnUse">
<stop offset="0.107" stop-color="white"/>
<stop offset="1"/>
</linearGradient>
<linearGradient id="paint5_linear_54_6044" x1="101.99" y1="142.358" x2="316.455" y2="428.541" gradientUnits="userSpaceOnUse">
<stop offset="0.107" stop-color="white"/>
<stop offset="1"/>
</linearGradient>
<linearGradient id="paint6_linear_54_6044" x1="143.713" y1="163.125" x2="423.538" y2="536.525" gradientUnits="userSpaceOnUse">
<stop offset="0.107" stop-color="white"/>
<stop offset="1"/>
</linearGradient>
<linearGradient id="paint7_linear_54_6044" x1="305.499" y1="173.261" x2="549.069" y2="498.283" gradientUnits="userSpaceOnUse">
<stop offset="0.107" stop-color="white"/>
<stop offset="1"/>
</linearGradient>
<linearGradient id="paint8_linear_54_6044" x1="406.924" y1="123.125" x2="572.368" y2="343.895" gradientUnits="userSpaceOnUse">
<stop offset="0.107" stop-color="white"/>
<stop offset="1"/>
</linearGradient>
<linearGradient id="paint9_linear_54_6044" x1="86.7155" y1="98.4673" x2="264.925" y2="336.272" gradientUnits="userSpaceOnUse">
<stop offset="0.107" stop-color="white"/>
<stop offset="1"/>
</linearGradient>
<linearGradient id="paint10_linear_54_6044" x1="247.421" y1="16.2644" x2="645.202" y2="547.066" gradientUnits="userSpaceOnUse">
<stop offset="0.107" stop-color="white"/>
<stop offset="1"/>
</linearGradient>
<linearGradient id="paint11_linear_54_6044" x1="207.563" y1="208.369" x2="390.879" y2="452.987" gradientUnits="userSpaceOnUse">
<stop offset="0.107" stop-color="white"/>
<stop offset="1"/>
</linearGradient>
<linearGradient id="paint12_linear_54_6044" x1="49.9489" y1="36.9937" x2="300.668" y2="371.556" gradientUnits="userSpaceOnUse">
<stop offset="0.107" stop-color="white"/>
<stop offset="1"/>
</linearGradient>
</defs>
</svg>
