<svg width="256" height="276" viewBox="0 0 256 276" fill="none" xmlns="http://www.w3.org/2000/svg">
<path d="M87.0596 150.689L111.973 150.689L111.973 137.744L87.0596 137.744L87.0596 150.689Z" fill="#5074B5"/>
<path d="M78.26 150.691L89.9991 150.691L89.9991 123.434L78.26 123.434L78.26 150.691Z" fill="#72839D"/>
<path d="M78.266 150.691L83.2334 150.691L83.2334 123.434L78.266 123.434L78.266 150.691Z" fill="#285FCE"/>
<path d="M156.054 76.8115H151.413V140.845H156.054V76.8115Z" fill="#B2B2B2"/>
<path d="M151.419 82.6582L156.06 82.6582L156.06 76.8143L151.419 76.8143L151.419 82.6582Z" fill="#D22F3C"/>
<path d="M151.419 95.6704L156.06 95.6704L156.06 89.8265L151.419 89.8265L151.419 95.6704Z" fill="#D22F3C"/>
<path d="M151.419 108.683L156.06 108.683L156.06 102.839L151.419 102.839L151.419 108.683Z" fill="#D22F3C"/>
<path opacity="0.3" d="M153.239 76.8115H151.413V140.845H153.239V76.8115Z" fill="#D22F3C"/>
<path d="M150.734 77.8379L156.745 77.8379L156.745 76.8079L150.734 76.8079L150.734 77.8379Z" fill="#D22F3C"/>
<path d="M111.966 159.992L180.879 159.992L180.879 135.022L111.966 135.022L111.966 159.992Z" fill="#21C4F0"/>
<path d="M122.268 129.071L123.54 129.071L123.54 100.827L122.268 100.827L122.268 129.071Z" fill="#21C4F0"/>
<path d="M120.486 103.064L125.312 103.064L125.312 102.446L120.486 102.446L120.486 103.064Z" fill="#21C4F0"/>
<path d="M120.486 104.496L125.312 104.496L125.312 103.878L120.486 103.878L120.486 104.496Z" fill="#21C4F0"/>
<path d="M120.486 105.927L125.312 105.927L125.312 105.309L120.486 105.309L120.486 105.927Z" fill="#21C4F0"/>
<path d="M120.486 113.033L125.312 113.033L125.312 112.415L120.486 112.415L120.486 113.033Z" fill="#21C4F0"/>
<path d="M120.486 114.558L125.312 114.558L125.312 113.94L120.486 113.94L120.486 114.558Z" fill="#21C4F0"/>
<path d="M176.554 161.197V161.847H189.131L194.707 154.767L209.435 153.997L213.272 149.314L212.261 148.49L209.152 152.284L205.478 147.644L202.315 152.274C200.815 150.43 199.935 149.4 199.402 148.826L199.978 148.099H189.044L188.163 147.395L187.554 148.099H176.717L176.609 148.056C176.544 148.208 176.478 148.381 176.554 161.197ZM186.446 149.4L182.957 153.477L179.489 149.4H186.446ZM188.587 149.4L193.717 153.51L184.217 154.008L188.152 149.4H188.587ZM197.283 149.4L194.717 152.653L190.663 149.4H197.283ZM203.402 153.011L205.565 149.856L207.881 152.783L203.402 153.011ZM195.794 153.412L198.587 149.867C199.217 150.582 200.283 151.851 201.326 153.119L195.794 153.412ZM188.717 160.275L184.5 155.309L192.978 154.865L188.717 160.275ZM188.478 160.546L188.565 160.47L188.511 160.546H188.478ZM177.837 149.465L187.228 160.535H177.859C177.837 156.719 177.815 151.666 177.837 149.465Z" fill="#285FCE"/>
<path d="M98.1196 31.8601C98.1196 31.8601 101.152 30.3096 99.6196 27.2304C98.087 24.1513 100.978 23.2297 99.924 21.5166C98.8587 19.8035 97.9783 18.3615 99.1413 16.54C97.6522 17.9495 95.9892 19.2614 97.5979 22.1129C97.9022 22.6876 95.9566 24.0428 96.9348 26.851C95.9022 26.1137 95.424 24.0428 96.3153 22.6659C94.4348 23.6959 94.8696 26.851 96.0653 28.1846C96.4022 28.8676 94.0544 30.7433 98.1196 31.8601Z" fill="#21C4F0"/>
<path d="M98.2065 31.4263C98.2065 31.4263 99.5543 29.5722 98.5326 27.6857C97.5109 25.7992 98.2065 23.3813 98.2065 23.3813C98.2065 23.3813 96.587 25.0836 97.337 27.7182C97.5652 28.423 95.4348 29.3012 96.6522 31.0034C97.8804 32.7165 98.2065 31.4263 98.2065 31.4263Z" fill="#285FCE"/>
<path d="M99.3805 37.3027H95.8261V56.0272H99.3805V37.3027Z" fill="#E0CBB1"/>
<path d="M99.3805 56.645H95.8261V149.931H99.3805V56.645Z" fill="#B2B2B2"/>
<path d="M95.8241 46.2446L99.3784 46.2446L99.3784 37.3107L95.8241 37.3107L95.8241 46.2446Z" fill="#D22F3C"/>
<path d="M95.8241 64.6079L99.3784 64.6079L99.3784 56.3245L95.8241 56.3245L95.8241 64.6079Z" fill="#871418"/>
<path d="M95.8241 78.6426L99.3784 78.6426L99.3784 71.5843L95.8241 71.5843L95.8241 78.6426Z" fill="#871418"/>
<path d="M95.8241 102.619L99.3784 102.619L99.3784 90.8007L95.8241 90.8007L95.8241 102.619Z" fill="#871418"/>
<path d="M95.8241 128.305L99.3784 128.305L99.3784 114.601L95.8241 114.601L95.8241 128.305Z" fill="#871418"/>
<path d="M100.837 146.896H94.3587V150.679H100.837V146.896Z" fill="#871418"/>
<path d="M96.6631 31.4048H97.5979H98.5435L99.9022 33.0094V34.5707L97.5979 35.4164L95.3044 34.5707V33.0094L96.6631 31.4048Z" fill="#39394D"/>
<path d="M94.411 37.3022L100.791 37.3022L100.791 34.2447L94.411 34.2447L94.411 37.3022Z" fill="#E0CBB1"/>
<path d="M111.967 150.69L105.109 134.351L104.826 133.679L102.674 128.561V55.8862H92.5434V128.551L90.3913 133.668L90.1087 134.34L83.25 150.68H84.5326L92.3587 144.467H102.88L110.706 150.68H111.967V150.69ZM93.6413 143.448L97.5978 140.304L101.554 143.448H93.6413ZM97.5978 138.981L92.2065 134.698H102.989L97.5978 138.981ZM86.9674 144.478H90.6848L85.1195 148.901L86.9674 144.478ZM90.9456 135.013L96.7717 139.642L91.9782 143.448H87.4022L90.9456 135.013ZM101.511 128.008H93.5652V127.857L96.7826 120.777L98.0652 122.728L98.0326 122.804L98.1521 122.858L101.511 128.008ZM93.7935 114.944H101.598L98.4021 121.991L93.7935 114.944ZM93.5652 126.187V115.865L96.3369 120.094L93.5652 126.187ZM93.5652 114.261V114.196L96.7826 108.026L98.0543 109.718L98.0434 109.739L98.0869 109.761L101.467 114.261H93.5652ZM93.8478 102.963H101.565L98.4021 109.035L93.8478 102.963ZM93.5652 112.699V103.744L96.3152 107.408L93.5652 112.699ZM93.5652 102.269V102.172L96.7826 96.0023L98.0543 97.6937L98.0434 97.7154L98.0869 97.7371L101.489 102.269H93.5652ZM93.8478 90.939H101.565L98.4021 97.0107L93.8478 90.939ZM93.5652 100.686V91.7305L96.3152 95.3952L93.5652 100.686ZM93.5652 90.256V90.1584L96.7826 83.9892L98.0543 85.6806L98.0434 85.7023L98.0869 85.7239L101.489 90.256H93.5652ZM101.359 65.0696L98.413 68.3656L94.163 65.0696H101.359ZM93.7282 64.3865L96.7717 60.1906L101.163 64.3865H93.7282ZM100.989 71.2388H93.8478L96.7717 67.9753L100.989 71.2388ZM101.359 71.9218L98.413 75.2179L94.163 71.9218H101.359ZM101.185 78.2428H93.7065L96.7717 74.8167L101.185 78.2428ZM101.565 78.9259L98.4021 84.9975L93.8478 78.9259H101.565ZM93.5652 88.6622V79.7065L96.3152 83.3712L93.5652 88.6622ZM93.5652 77.3646V72.3338L96.2174 74.3939L93.5652 77.3646ZM93.5652 70.5123V65.4816L96.2174 67.5416L93.5652 70.5123ZM93.5652 63.4324V57.1222L96.2717 59.7135L93.5652 63.4324ZM101.217 56.9162L98.4021 60.7977L94.3478 56.9162H101.217ZM101.63 63.8769L98.913 61.2748L101.641 57.5126V63.8769H101.63ZM101.63 70.8701L98.9565 68.7993L101.63 65.8068V70.8701ZM101.63 77.7116L98.9565 75.6407L101.63 72.6483V77.7116ZM101.63 89.3019L98.8587 85.6047L101.63 80.2812V89.3019ZM101.63 101.326L98.8587 97.6287L101.63 92.3051V101.326ZM101.63 113.339L98.8587 109.642L101.63 104.318V113.339ZM101.63 126.924L98.8478 122.674L101.63 116.537V126.924ZM103.696 133.668H91.5108L93.5761 128.757V128.692H101.641V128.757L103.696 133.668ZM107.804 143.448H103.228L98.4348 139.642L104.261 135.013L107.804 143.448ZM108.239 144.478L110.098 148.901L104.533 144.478H108.239Z" fill="#21C4F0"/>
<path d="M81.6522 150.69L82.5979 148.674H87.0436V150.69H81.6522Z" fill="#94A8BB"/>
<path d="M108.152 150.69V148.674H112.609L113.554 150.69H108.152Z" fill="#94A8BB"/>
<path d="M92.5326 114.261V128.551L93.5652 128.702H101.63L102.663 128.551V114.261H101.457H93.5652H92.5326ZM101.598 114.944L98.4022 121.991L93.7935 114.944H101.598ZM101.63 126.924L98.8478 122.674L101.63 116.537V126.924ZM93.5652 127.857L96.7826 120.777L98.0652 122.728L98.0326 122.804L98.1522 122.858L101.522 128.008H93.5761V127.857H93.5652ZM93.5652 115.865L96.337 120.094L93.5652 126.187V115.865ZM102.674 71.2388H100.989H93.8478H92.5326V78.2428H93.7065L96.7717 74.8167L101.185 78.2428H102.663V71.2388H102.674ZM96.2283 74.3939L93.5761 77.3646V72.3338L96.2283 74.3939ZM101.359 71.9218L98.413 75.2179L94.163 71.9218H101.359ZM101.63 72.6483V77.7116L98.9565 75.6407L101.63 72.6483ZM102.674 55.8862H92.5435V64.3865H93.7391L96.7826 60.1906L101.174 64.3865H102.674V55.8862ZM93.5652 57.1222L96.2717 59.7135L93.5652 63.4432V57.1222ZM101.217 56.9162L98.4022 60.7977L94.3478 56.9162H101.217ZM101.63 63.8769L98.913 61.2748L101.641 57.5126V63.8769H101.63ZM92.5326 90.256V102.269H93.5652V102.172L96.7826 96.0023L98.0544 97.6937L98.0435 97.7154L98.087 97.7371L101.489 102.269H102.674V90.256H101.489H93.5761H92.5326ZM98.8587 97.6287L101.63 92.3051V101.326L98.8587 97.6287ZM93.8478 90.939H101.565L98.4022 97.0107L93.8478 90.939ZM93.5652 91.7305L96.3152 95.3952L93.5652 100.686V91.7305Z" fill="#D22F3C"/>
<path d="M117.325 135.018L175.433 135.018L175.433 128.806L117.325 128.806L117.325 135.018Z" fill="#285FCE"/>
<path d="M126.177 128.804L163.949 128.804L163.949 123.047L126.177 123.047L126.177 128.804Z" fill="#21C4F0"/>
<path d="M134.49 123.045L161.218 123.045L161.218 120.324L134.49 120.324L134.49 123.045Z" fill="#CBA67A"/>
<path d="M134.49 123.045L161.218 123.045L161.218 120.324L134.49 120.324L134.49 123.045Z" fill="#5074B5"/>
<path d="M167.702 128.802L170.681 128.802L170.681 110.489L167.702 110.489L167.702 128.802Z" fill="#B2B2B2"/>
<path d="M159.272 124.517H161.957V126.501H159.272V124.517ZM154.859 126.501H157.544V124.517H154.859V126.501ZM150.446 126.501H153.13V124.517H150.446V126.501ZM146.033 126.501H148.717V124.517H146.033V126.501ZM141.62 126.501H144.304V124.517H141.62V126.501ZM137.207 126.501H139.891V124.517H137.207V126.501ZM132.793 126.501H135.478V124.517H132.793V126.501ZM128.38 126.501H131.065V124.517H128.38V126.501Z" fill="#5074B5"/>
<path d="M120.359 130.318H122.467V135.013H120.359V130.318ZM124.826 135.013H126.935V130.318H124.826V135.013ZM129.293 135.013H131.402V130.318H129.293V135.013ZM133.761 135.013H135.87V130.318H133.761V135.013ZM138.228 135.013H140.337V130.318H138.228V135.013ZM142.696 135.013H144.804V130.318H142.696V135.013ZM147.163 135.013H149.272V130.318H147.163V135.013ZM151.63 135.013H153.739V130.318H151.63V135.013ZM156.098 135.013H158.207V130.318H156.098V135.013ZM160.554 135.013H162.663V130.318H160.554V135.013ZM165.022 135.013H167.13V130.318H165.022V135.013ZM169.489 135.013H171.598V130.318H169.489V135.013Z" fill="#5074B5"/>
<path d="M124.286 141.238L132.341 141.238L132.341 138.885L124.286 138.885L124.286 141.238Z" fill="#5074B5"/>
<path d="M124.286 146.522L132.341 146.522L132.341 144.169L124.286 144.169L124.286 146.522Z" fill="#5074B5"/>
<path d="M124.286 151.806L132.341 151.806L132.341 149.453L124.286 149.453L124.286 151.806Z" fill="#5074B5"/>
<path d="M124.286 157.101L132.341 157.101L132.341 154.748L124.286 154.748L124.286 157.101Z" fill="#5074B5"/>
<path opacity="0.3" d="M154.852 159.992L167.135 159.992L167.135 135.022L154.852 135.022L154.852 159.992Z" fill="black"/>
<path opacity="0.3" d="M140.337 159.992L147.761 159.992L147.761 135.022L140.337 135.022L140.337 159.992Z" fill="black"/>
<path d="M117.322 128.798L119.626 128.798L119.626 118.054L117.322 118.054L117.322 128.798Z" fill="#21C4F0"/>
<path d="M46.9354 162.187L191.12 162.187L191.12 159.996L46.9354 159.996L46.9354 162.187Z" fill="#72839D"/>
<path d="M46.9354 169.209L191.12 169.209L191.12 167.019L46.9354 167.019L46.9354 169.209Z" fill="#72839D"/>
<path d="M48.0767 167.015L189.968 167.015L189.968 162.18L48.0767 162.18L48.0767 167.015Z" fill="#285FCE"/>
<path opacity="0.3" d="M48.0767 163.5L189.968 163.5L189.968 162.178L48.0767 162.178L48.0767 163.5Z" fill="black"/>
<path d="M177.815 231.953C175.956 230.836 174.022 229.914 171.815 229.947V171.692H187.12V231.064C186.456 231.454 185.761 231.768 185.022 231.996H177.88C177.859 231.985 177.837 231.964 177.815 231.953Z" fill="#21C4F0"/>
<path d="M177.815 231.953C175.956 230.836 174.022 229.914 171.815 229.947V213.684H187.12V231.074C186.456 231.465 185.761 231.779 185.022 232.007H177.88C177.859 231.985 177.837 231.964 177.815 231.953Z" fill="#285FCE"/>
<path opacity="0.3" d="M171.823 175.51L187.128 175.51L187.128 171.693L171.823 171.693L171.823 175.51Z" fill="black"/>
<path opacity="0.3" d="M171.826 229.947V171.692H177.565V231.801C175.783 230.76 173.924 229.914 171.826 229.947Z" fill="black"/>
<path opacity="0.3" d="M171.826 229.947V171.692H173.489V230.099C172.946 229.99 172.391 229.936 171.826 229.947Z" fill="black"/>
<path opacity="0.3" d="M184.598 196.249H185.978V208.468H184.598V196.249ZM180.717 208.457H182.098V196.238H180.717V208.457ZM176.848 208.457H178.228V196.238H176.848V208.457ZM174.359 196.249H172.978V208.468H174.359V196.249Z" fill="black"/>
<path d="M170.682 171.695L188.28 171.695L188.28 169.212L170.682 169.212L170.682 171.695Z" fill="#285FCE"/>
<path d="M140.87 231.356C139.011 230.652 137.413 229.86 135.391 230.251C133.989 230.522 132.652 231.042 131.511 231.888V171.692H146.815V231.996H141.315C141.315 231.736 141.174 231.476 140.87 231.356Z" fill="#21C4F0"/>
<path d="M140.87 231.356C139.011 230.652 137.413 229.86 135.391 230.251C133.989 230.522 132.652 231.042 131.511 231.888V213.673H146.815V231.996H141.315C141.315 231.736 141.174 231.476 140.87 231.356Z" fill="#285FCE"/>
<path opacity="0.3" d="M131.521 175.51L146.826 175.51L146.826 171.693L131.521 171.693L131.521 175.51Z" fill="black"/>
<path opacity="0.3" d="M135.402 230.251C134 230.522 132.663 231.042 131.522 231.888V171.692H137.261V230.196C136.674 230.12 136.054 230.12 135.402 230.251Z" fill="black"/>
<path opacity="0.3" d="M131.522 231.888V171.692H133.185V230.934C132.598 231.194 132.033 231.508 131.522 231.888Z" fill="black"/>
<path opacity="0.3" d="M144.294 196.249H145.674V208.468H144.294V196.249ZM140.413 208.457H141.794V196.238H140.413V208.457ZM136.544 208.457H137.924V196.238H136.544V208.457ZM134.054 196.249H132.674V208.468H134.054V196.249Z" fill="black"/>
<path d="M130.38 171.695L147.978 171.695L147.978 169.212L130.38 169.212L130.38 171.695Z" fill="#285FCE"/>
<path d="M106.522 171.692V231.996H105.196C105.131 231.834 105 231.682 104.794 231.606C104.772 231.595 104.761 231.595 104.739 231.584C102.544 229.654 97.5436 229.611 95.5762 231.519C95.424 231.66 95.3697 231.823 95.3805 231.985H91.2175V171.681H106.522V171.692Z" fill="#21C4F0"/>
<path d="M106.522 213.684V232.007H105.196C105.131 231.844 105 231.693 104.794 231.617C104.772 231.606 104.761 231.606 104.739 231.595C102.544 229.665 97.5436 229.622 95.5762 231.53C95.424 231.671 95.3697 231.834 95.3805 231.996H91.2175V213.673H106.522V213.684Z" fill="#285FCE"/>
<path opacity="0.3" d="M91.2191 175.51L106.523 175.51L106.523 171.693L91.2191 171.693L91.2191 175.51Z" fill="black"/>
<path opacity="0.3" d="M96.9566 171.692V230.663C96.4131 230.879 95.9458 231.172 95.5762 231.53C95.424 231.671 95.3697 231.834 95.3805 231.996H91.2175V171.692H96.9566Z" fill="black"/>
<path opacity="0.3" d="M91.2122 232.001L92.8753 232.001L92.8753 171.697L91.2122 171.697L91.2122 232.001Z" fill="black"/>
<path opacity="0.3" d="M103.989 196.249H105.369V208.468H103.989V196.249ZM100.119 208.457H101.5V196.238H100.119V208.457ZM96.2391 208.457H97.6195V196.238H96.2391V208.457ZM93.7499 196.249H92.3695V208.468H93.7499V196.249Z" fill="black"/>
<path d="M90.0779 171.695L107.676 171.695L107.676 169.212L90.0779 169.212L90.0779 171.695Z" fill="#285FCE"/>
<path d="M191.109 167.019H46.924V169.209H191.109V167.019Z" fill="#72839D"/>
<path d="M189.359 146.137H200.63C200.87 146.137 201.065 146.332 201.065 146.57C201.065 146.809 200.87 147.004 200.63 147.004H189.359C189.12 147.004 188.924 146.809 188.924 146.57C188.924 146.332 189.12 146.137 189.359 146.137Z" fill="#21C4F0"/>
<path d="M191.629 146.132L192.335 146.132L192.335 143.931L191.629 143.931L191.629 146.132Z" fill="#21C4F0"/>
<path d="M197.915 146.132L198.622 146.132L198.622 143.931L197.915 143.931L197.915 146.132Z" fill="#21C4F0"/>
<path d="M212.62 138.591H202.63L201.5 137.431H192.794L188.424 142.331V144.619H198.957L202.337 140.716L212.62 139.924V138.591Z" fill="#285FCE"/>
<path d="M194.989 137.431V139.74L193.707 142.331H188.424L192.794 137.431H194.989Z" fill="#7EE4FC"/>
<path d="M188.011 134.688H208.544C208.848 134.688 209.087 134.926 209.087 135.23C209.087 135.533 208.848 135.772 208.544 135.772H188.011C187.707 135.772 187.467 135.533 187.467 135.23C187.467 134.926 187.707 134.688 188.011 134.688Z" fill="#21C4F0"/>
<path d="M197.703 137.427L198.856 137.427L198.856 135.768L197.703 135.768L197.703 137.427Z" fill="#21C4F0"/>
<path d="M212.957 135.772C213.304 135.772 213.576 136.054 213.576 136.39V141.974C213.576 142.321 213.294 142.592 212.957 142.592C212.609 142.592 212.337 142.31 212.337 141.974V136.39C212.337 136.043 212.609 135.772 212.957 135.772Z" fill="#21C4F0"/>
<path opacity="0.3" d="M200.174 143.21L198.957 144.619H188.424V142.331L192.794 137.431H193.946L191.978 141.431L192.337 143.21H200.174Z" fill="#21C4F0"/>
<path d="M8.26092 130.643L10.8914 127.954V80.6065L20.5979 79.0127L67.8261 114.185L67.9892 114.304V130.914H67.2283V114.684L20.4022 79.815L11.6522 81.257V127.954L14.2827 130.643L13.75 131.174L11.2718 128.648L8.8044 131.174L8.26092 130.643Z" fill="#285FCE"/>
<path d="M48.3043 132.92L49.2825 128.485L44.913 127.239L45.8912 122.804L41.5217 121.557L42.4999 117.123L38.1304 115.876L39.1086 111.442L34.7391 110.195L35.7173 105.771L31.3477 104.524L32.326 100.09L27.9564 98.8429L28.9347 94.4085L24.5651 93.1616L25.5434 88.7272L21.1738 87.4803L22.1521 83.0459L18.2391 81.9291L18.5217 80.9316L23.3695 82.3086L22.3912 86.7431L26.7717 87.9899L25.7934 92.4244L30.163 93.6712L29.1847 98.1057L33.5543 99.3525L32.576 103.787L36.9456 105.034L35.9673 109.457L40.3369 110.704L39.3586 115.139L43.7282 116.386L42.7499 120.82L47.1195 122.067L46.1412 126.501L50.5108 127.748L49.5325 132.183L53.4347 133.289L53.1521 134.286L48.3043 132.92Z" fill="#505E7F"/>
<path d="M73.4999 136.107H48.7499V138.438H73.4999V136.107Z" fill="#505E7F"/>
<path d="M55.8478 131.533H56.6304H55.0761C55.0761 131.229 55.0761 131.034 65.6848 115.128L66.3478 114.131L75.3044 128.269L73.9891 129.104L66.3044 116.982C62.3261 122.946 56.8804 131.186 56.5652 131.825L55.8478 131.533Z" fill="#285FCE"/>
<path d="M66.3152 113.404C67.5869 113.404 68.6087 114.423 68.6087 115.692C68.6087 116.961 67.5869 117.98 66.3152 117.98C65.0435 117.98 64.0217 116.961 64.0217 115.692C64.0217 114.423 65.0543 113.404 66.3152 113.404Z" fill="#285FCE"/>
<path d="M66.3153 114.673C66.8805 114.673 67.337 115.128 67.337 115.692C67.337 116.256 66.8805 116.711 66.3153 116.711C65.75 116.711 65.2935 116.256 65.2935 115.692C65.3044 115.128 65.7609 114.673 66.3153 114.673Z" fill="#72839D"/>
<path d="M17.3914 81.4308L21.4023 79.0347L54.2175 133.842L50.2066 136.238L17.3914 81.4308ZM21.0436 80.455L18.8153 81.7886L50.5653 134.818L52.7936 133.484L21.0436 80.455Z" fill="#285FCE"/>
<path d="M21.4021 79.0347H12.7391L9.74996 80.9754V82.2114H18.1847L18.4674 80.9754L21.4021 79.0347Z" fill="#285FCE"/>
<path d="M6.96159 131.846L15.7442 131.846L15.7442 130.512L6.96159 130.512L6.96159 131.846Z" fill="#285FCE"/>
<path d="M49.4832 142.492L69.1788 142.492L69.1788 140.898L49.4832 140.898L49.4832 142.492Z" fill="#285FCE"/>
<path d="M59.9956 140.896L62.9848 140.896L62.9848 138.434L59.9956 138.434L59.9956 140.896Z" fill="#384259"/>
<path d="M59.0065 151.647L63.9847 151.647L63.9847 142.453L59.0065 142.453L59.0065 151.647Z" fill="#384259"/>
<path d="M66.9239 147.329H56.75V145.779H67.5326L73.2935 151.081L72.2391 152.219L66.9239 147.329Z" fill="#285FCE"/>
<path d="M76.0978 128.073V136.107H50.3043V133.863L54.9783 130.404H65.7065L67.1848 128.073H76.0978Z" fill="#21C4F0"/>
<path opacity="0.3" d="M50.3043 136.107V133.863L54.9783 130.404H65.7065L67.1848 128.073H68.9674L67.3369 131.174H56.6196L52.7935 133.874V136.107H50.3043Z" fill="black"/>
<path d="M174.8 149.585L216.04 149.585L216.04 146.994L174.8 146.994L174.8 149.585Z" fill="#72839D"/>
<path d="M66.2174 171.692V230.381C63.7174 230.229 61.3043 230.923 59.0652 231.996H50.913V171.692H66.2174Z" fill="#21C4F0"/>
<path d="M66.2174 213.684V230.381C63.7174 230.229 61.3043 230.923 59.0652 231.996H50.913V213.673H66.2174V213.684Z" fill="#285FCE"/>
<path opacity="0.3" d="M50.9172 175.51L66.2216 175.51L66.2216 171.693L50.9172 171.693L50.9172 175.51Z" fill="black"/>
<path opacity="0.3" d="M50.9158 232.001L56.655 232.001L56.655 171.697L50.9158 171.697L50.9158 232.001Z" fill="black"/>
<path opacity="0.3" d="M50.9102 232.001L52.5732 232.001L52.5732 171.697L50.9102 171.697L50.9102 232.001Z" fill="black"/>
<path opacity="0.3" d="M63.6847 196.249H65.0652V208.468H63.6847V196.249ZM59.8152 208.457H61.1956V196.238H59.8152V208.457ZM55.9347 208.457H57.3152V196.238H55.9347V208.457ZM53.4456 196.249H52.0652V208.468H53.4456V196.249Z" fill="black"/>
<path d="M49.7758 171.695L67.3736 171.695L67.3736 169.212L49.7758 169.212L49.7758 171.695Z" fill="#285FCE"/>
<path d="M150.326 205.997L167.065 179.726L168.359 180.539L151.62 206.81L150.326 205.997Z" fill="#384259"/>
<path d="M146.826 210.735H149.315L152.859 207.016V204.826H146.826V210.735Z" fill="#384259"/>
<path d="M171.826 175.953H169.337L165.804 179.672V181.872H171.826V175.953Z" fill="#384259"/>
<path d="M167.033 206.821L150.294 180.55L151.587 179.737L168.326 206.007L167.033 206.821Z" fill="#384259"/>
<path d="M171.826 210.735H169.337L165.804 207.016V204.826H171.826V210.735Z" fill="#384259"/>
<path d="M146.826 175.953H149.315L152.859 179.672V181.872H146.826V175.953Z" fill="#384259"/>
<path d="M151.391 205.606C151.728 205.606 152 205.877 152 206.214C152 206.55 151.728 206.821 151.391 206.821C151.054 206.821 150.783 206.55 150.783 206.214C150.783 205.877 151.054 205.606 151.391 205.606Z" fill="#22222D"/>
<path d="M167.87 206.214C167.87 206.55 167.598 206.821 167.261 206.821C166.924 206.821 166.652 206.55 166.652 206.214C166.652 205.877 166.924 205.606 167.261 205.606C167.598 205.606 167.87 205.877 167.87 206.214Z" fill="#22222D"/>
<path d="M151.391 179.726C151.728 179.726 152 179.997 152 180.333C152 180.669 151.728 180.94 151.391 180.94C151.054 180.94 150.783 180.669 150.783 180.333C150.783 179.997 151.054 179.726 151.391 179.726Z" fill="#22222D"/>
<path d="M167.87 180.333C167.87 180.669 167.598 180.94 167.261 180.94C166.924 180.94 166.652 180.669 166.652 180.333C166.652 179.997 166.924 179.726 167.261 179.726C167.598 179.726 167.87 179.997 167.87 180.333Z" fill="#22222D"/>
<path d="M110.022 205.997L126.761 179.726L128.054 180.539L111.315 206.81L110.022 205.997Z" fill="#384259"/>
<path d="M106.522 210.735H109.011L112.544 207.016V204.826H106.522V210.735Z" fill="#384259"/>
<path d="M131.522 175.953H129.033L125.5 179.672V181.872H131.522V175.953Z" fill="#384259"/>
<path d="M126.728 206.821L109.989 180.55L111.283 179.737L128.022 206.007L126.728 206.821Z" fill="#384259"/>
<path d="M131.522 210.735H129.033L125.5 207.016V204.826H131.522V210.735Z" fill="#384259"/>
<path d="M106.522 175.953H109.011L112.544 179.672V181.872H106.522V175.953Z" fill="#384259"/>
<path d="M111.087 205.606C111.424 205.606 111.696 205.877 111.696 206.214C111.696 206.55 111.424 206.821 111.087 206.821C110.75 206.821 110.478 206.55 110.478 206.214C110.478 205.877 110.75 205.606 111.087 205.606Z" fill="#22222D"/>
<path d="M127.565 206.214C127.565 206.55 127.293 206.821 126.956 206.821C126.62 206.821 126.348 206.55 126.348 206.214C126.348 205.877 126.62 205.606 126.956 205.606C127.293 205.606 127.565 205.877 127.565 206.214Z" fill="#22222D"/>
<path d="M111.087 179.726C111.424 179.726 111.696 179.997 111.696 180.333C111.696 180.669 111.424 180.94 111.087 180.94C110.75 180.94 110.478 180.669 110.478 180.333C110.478 179.997 110.75 179.726 111.087 179.726Z" fill="#22222D"/>
<path d="M127.565 180.333C127.565 180.669 127.293 180.94 126.956 180.94C126.62 180.94 126.348 180.669 126.348 180.333C126.348 179.997 126.62 179.726 126.956 179.726C127.293 179.726 127.565 179.997 127.565 180.333Z" fill="#22222D"/>
<path d="M69.7175 205.997L86.4566 179.726L87.7501 180.539L71.0109 206.81L69.7175 205.997Z" fill="#384259"/>
<path d="M66.2175 210.735H68.7066L72.2392 207.016V204.826H66.2175V210.735Z" fill="#384259"/>
<path d="M91.2174 175.953H88.7283L85.1957 179.672V181.872H91.2174V175.953Z" fill="#384259"/>
<path d="M86.4239 206.821L69.6848 180.55L70.9783 179.737L87.7174 206.007L86.4239 206.821Z" fill="#384259"/>
<path d="M91.2174 210.735H88.7283L85.1957 207.016V204.826H91.2174V210.735Z" fill="#384259"/>
<path d="M66.2175 175.953H68.7066L72.2392 179.672V181.872H66.2175V175.953Z" fill="#384259"/>
<path d="M70.7827 205.606C71.1196 205.606 71.3914 205.877 71.3914 206.214C71.3914 206.55 71.1196 206.821 70.7827 206.821C70.4457 206.821 70.174 206.55 70.174 206.214C70.174 205.877 70.4457 205.606 70.7827 205.606Z" fill="#22222D"/>
<path d="M87.2609 206.214C87.2609 206.55 86.9891 206.821 86.6522 206.821C86.3152 206.821 86.0435 206.55 86.0435 206.214C86.0435 205.877 86.3152 205.606 86.6522 205.606C86.9891 205.606 87.2609 205.877 87.2609 206.214Z" fill="#22222D"/>
<path d="M70.7827 179.726C71.1196 179.726 71.3914 179.997 71.3914 180.333C71.3914 180.669 71.1196 180.94 70.7827 180.94C70.4457 180.94 70.174 180.669 70.174 180.333C70.174 179.997 70.4457 179.726 70.7827 179.726Z" fill="#22222D"/>
<path d="M87.2609 180.333C87.2609 180.669 86.9891 180.94 86.6522 180.94C86.3152 180.94 86.0435 180.669 86.0435 180.333C86.0435 179.997 86.3152 179.726 86.6522 179.726C86.9891 179.726 87.2609 179.997 87.2609 180.333Z" fill="#22222D"/>
<path d="M37.6523 232.332C37.6523 231.942 37.9458 231.628 38.3262 231.584C39.598 231.422 40.3915 231.021 41.2284 230.598C42.4132 229.991 43.6523 229.373 46.0871 229.373C48.5219 229.373 49.761 230.001 50.9458 230.598C52.0219 231.14 53.0436 231.66 55.1088 231.66C57.1849 231.66 58.1958 231.14 59.2719 230.598C60.4567 229.991 61.6958 229.373 64.1306 229.373C66.5762 229.373 67.8045 230.001 68.9893 230.598C70.0654 231.14 71.0871 231.66 73.1523 231.66C75.2284 231.66 76.2393 231.14 77.3154 230.598C78.5002 229.991 79.7393 229.373 82.1741 229.373C84.6197 229.373 85.848 230.001 87.0328 230.598C88.1088 231.14 89.1306 231.66 91.1958 231.66C93.2719 231.66 94.2828 231.14 95.3589 230.598C96.5436 229.991 97.7828 229.373 100.218 229.373C102.663 229.373 103.891 230.001 105.076 230.598C106.152 231.14 107.174 231.66 109.239 231.66C111.305 231.66 112.326 231.14 113.402 230.598C114.587 229.991 115.826 229.373 118.261 229.373C120.696 229.373 121.935 230.001 123.12 230.598C124.196 231.14 125.218 231.66 127.283 231.66C129.359 231.66 130.37 231.14 131.446 230.598C132.631 229.991 133.87 229.373 136.304 229.373C138.75 229.373 139.978 230.001 141.163 230.598C142.239 231.14 143.261 231.66 145.326 231.66C147.402 231.66 148.413 231.14 149.489 230.598C150.685 229.991 151.913 229.373 154.348 229.373C156.794 229.373 158.022 230.001 159.207 230.598C160.283 231.14 161.305 231.66 163.37 231.66C165.446 231.66 166.457 231.14 167.533 230.598C168.728 229.991 169.957 229.373 172.391 229.373C174.837 229.373 176.065 230.001 177.25 230.598C178.326 231.14 179.348 231.66 181.413 231.66C183.489 231.66 184.5 231.14 185.587 230.598C186.783 229.991 188.011 229.373 190.446 229.373C192.891 229.373 194.12 230.001 195.304 230.598C196.381 231.14 197.391 231.66 199.446 231.66C199.815 231.66 200.163 231.92 200.228 232.289C200.305 232.766 199.946 233.189 199.478 233.189C197.033 233.189 195.805 232.56 194.62 231.964C193.544 231.422 192.522 230.901 190.446 230.901C188.37 230.901 187.359 231.422 186.272 231.964C185.076 232.571 183.848 233.189 181.413 233.189C178.968 233.189 177.739 232.56 176.554 231.964C175.478 231.422 174.457 230.901 172.381 230.901C170.304 230.901 169.294 231.422 168.218 231.964C167.033 232.571 165.794 233.189 163.359 233.189C160.913 233.189 159.685 232.56 158.5 231.964C157.424 231.422 156.402 230.901 154.326 230.901C152.25 230.901 151.239 231.422 150.163 231.964C148.968 232.571 147.739 233.189 145.304 233.189C142.859 233.189 141.631 232.56 140.446 231.964C139.37 231.422 138.348 230.901 136.283 230.901C134.207 230.901 133.196 231.422 132.12 231.964C130.935 232.571 129.696 233.189 127.261 233.189C124.826 233.189 123.587 232.56 122.402 231.964C121.326 231.422 120.304 230.901 118.239 230.901C116.163 230.901 115.152 231.422 114.076 231.964C112.891 232.571 111.652 233.189 109.218 233.189C106.772 233.189 105.544 232.56 104.359 231.964C103.283 231.422 102.261 230.901 100.196 230.901C98.1197 230.901 97.1088 231.422 96.0328 231.964C94.848 232.571 93.6088 233.189 91.1741 233.189C88.7284 233.189 87.5002 232.56 86.3154 231.964C85.2393 231.422 84.2175 230.901 82.1523 230.901C80.0762 230.901 79.0654 231.422 77.9893 231.964C76.8045 232.571 75.5654 233.189 73.1306 233.189C70.6849 233.189 69.4567 232.56 68.2719 231.964C67.1958 231.422 66.1741 230.901 64.1088 230.901C62.0328 230.901 61.0219 231.422 59.9458 231.964C58.761 232.571 57.5219 233.189 55.0871 233.189C52.6415 233.189 51.4132 232.56 50.2284 231.964C49.1523 231.422 48.1306 230.901 46.0654 230.901C43.9893 230.901 42.9784 231.422 41.9023 231.964C40.9784 232.43 40.0219 232.918 38.4893 233.102C38.0328 233.156 37.6306 232.81 37.6306 232.354V232.332H37.6523Z" fill="#3B79E4"/>
<path d="M55.5653 243.272C55.5653 242.882 55.7936 242.567 56.0979 242.524C57.087 242.361 57.7175 241.96 58.3588 241.537C59.2936 240.93 60.2501 240.312 62.1631 240.312C64.0762 240.312 65.0327 240.941 65.9675 241.537C66.8044 242.079 67.6088 242.6 69.2283 242.6C70.8479 242.6 71.6414 242.079 72.4892 241.537C73.424 240.93 74.3805 240.312 76.2936 240.312C78.2066 240.312 79.1631 240.941 80.0979 241.537C80.9349 242.079 81.7392 242.6 83.3588 242.6C84.9783 242.6 85.7718 242.079 86.6197 241.537C87.5544 240.93 88.511 240.312 90.424 240.312C92.337 240.312 93.2936 240.941 94.2283 241.537C95.0653 242.079 95.8697 242.6 97.4892 242.6C99.1088 242.6 99.9023 242.079 100.75 241.537C101.685 240.93 102.641 240.312 104.554 240.312C106.467 240.312 107.424 240.941 108.359 241.537C109.196 242.079 110 242.6 111.62 242.6C113.239 242.6 114.033 242.079 114.881 241.537C115.815 240.93 116.772 240.312 118.685 240.312C120.587 240.312 121.554 240.941 122.489 241.537C123.326 242.079 124.131 242.6 125.75 242.6C127.37 242.6 128.163 242.079 129.011 241.537C129.946 240.93 130.902 240.312 132.815 240.312C134.728 240.312 135.685 240.941 136.62 241.537C137.457 242.079 138.261 242.6 139.881 242.6C141.5 242.6 142.294 242.079 143.141 241.537C144.076 240.93 145.033 240.312 146.946 240.312C148.859 240.312 149.815 240.941 150.75 241.537C151.587 242.079 152.391 242.6 154.011 242.6C155.631 242.6 156.424 242.079 157.272 241.537C158.207 240.93 159.163 240.312 161.076 240.312C162.989 240.312 163.946 240.941 164.881 241.537C165.717 242.079 166.522 242.6 168.141 242.6C169.761 242.6 170.554 242.079 171.402 241.537C172.337 240.93 173.294 240.312 175.207 240.312C177.12 240.312 178.076 240.941 179.011 241.537C179.848 242.079 180.641 242.6 182.25 242.6C182.544 242.6 182.815 242.86 182.859 243.229C182.924 243.706 182.631 244.128 182.272 244.128C180.359 244.128 179.402 243.5 178.467 242.903C177.631 242.361 176.826 241.841 175.207 241.841C173.587 241.841 172.794 242.361 171.946 242.903C171.011 243.51 170.054 244.128 168.141 244.128C166.228 244.128 165.272 243.5 164.337 242.903C163.5 242.361 162.696 241.841 161.076 241.841C159.457 241.841 158.663 242.361 157.815 242.903C156.881 243.51 155.924 244.128 154.011 244.128C152.098 244.128 151.141 243.5 150.207 242.903C149.37 242.361 148.565 241.841 146.946 241.841C145.326 241.841 144.533 242.361 143.685 242.903C142.75 243.51 141.794 244.128 139.881 244.128C137.967 244.128 137.011 243.5 136.076 242.903C135.239 242.361 134.435 241.841 132.815 241.841C131.196 241.841 130.402 242.361 129.554 242.903C128.62 243.51 127.663 244.128 125.75 244.128C123.848 244.128 122.881 243.5 121.946 242.903C121.109 242.361 120.304 241.841 118.685 241.841C117.065 241.841 116.272 242.361 115.424 242.903C114.489 243.51 113.533 244.128 111.62 244.128C109.707 244.128 108.75 243.5 107.815 242.903C106.978 242.361 106.174 241.841 104.554 241.841C102.935 241.841 102.141 242.361 101.294 242.903C100.359 243.51 99.4023 244.128 97.4892 244.128C95.5762 244.128 94.6197 243.5 93.6849 242.903C92.8479 242.361 92.0436 241.841 90.424 241.841C88.8044 241.841 88.011 242.361 87.1631 242.903C86.2283 243.51 85.2718 244.128 83.3588 244.128C81.4457 244.128 80.4892 243.5 79.5544 242.903C78.7175 242.361 77.9131 241.841 76.2936 241.841C74.674 241.841 73.8805 242.361 73.0327 242.903C72.0979 243.51 71.1414 244.128 69.2283 244.128C67.3153 244.128 66.3588 243.5 65.424 242.903C64.587 242.361 63.7827 241.841 62.1631 241.841C60.5436 241.841 59.7501 242.361 58.9023 242.903C58.174 243.37 57.4349 243.857 56.2392 244.042C55.8805 244.096 55.5653 243.749 55.5653 243.294V243.272Z" fill="#3B79E4"/>
<path d="M72.6196 254.223C72.6196 253.832 72.7826 253.518 73.0109 253.475C73.7392 253.312 74.1957 252.911 74.6739 252.488C75.3587 251.881 76.0652 251.263 77.4566 251.263C78.8587 251.263 79.5544 251.892 80.2392 252.488C80.8587 253.03 81.4348 253.55 82.6305 253.55C83.8152 253.55 84.4022 253.03 85.0218 252.488C85.7065 251.881 86.4131 251.263 87.8044 251.263C89.2065 251.263 89.9022 251.892 90.587 252.488C91.2065 253.03 91.7826 253.55 92.9783 253.55C94.1631 253.55 94.75 253.03 95.3696 252.488C96.0544 251.881 96.7609 251.263 98.1522 251.263C99.5544 251.263 100.25 251.892 100.935 252.488C101.554 253.03 102.13 253.55 103.326 253.55C104.511 253.55 105.098 253.03 105.717 252.488C106.402 251.881 107.109 251.263 108.5 251.263C109.902 251.263 110.598 251.892 111.283 252.488C111.902 253.03 112.478 253.55 113.674 253.55C114.87 253.55 115.446 253.03 116.065 252.488C116.75 251.881 117.457 251.263 118.848 251.263C120.25 251.263 120.946 251.892 121.63 252.488C122.25 253.03 122.826 253.55 124.022 253.55C125.207 253.55 125.794 253.03 126.413 252.488C127.098 251.881 127.804 251.263 129.196 251.263C130.587 251.263 131.293 251.892 131.978 252.488C132.598 253.03 133.174 253.55 134.37 253.55C135.554 253.55 136.141 253.03 136.761 252.488C137.446 251.881 138.152 251.263 139.544 251.263C140.946 251.263 141.652 251.892 142.326 252.488C142.946 253.03 143.522 253.55 144.717 253.55C145.913 253.55 146.489 253.03 147.109 252.488C147.793 251.881 148.5 251.263 149.891 251.263C151.283 251.263 152 251.892 152.674 252.488C153.294 253.03 153.87 253.55 155.065 253.55C156.25 253.55 156.837 253.03 157.457 252.488C158.141 251.881 158.848 251.263 160.239 251.263C161.641 251.263 162.348 251.892 163.022 252.488C163.641 253.03 164.217 253.55 165.391 253.55C165.609 253.55 165.804 253.811 165.837 254.179C165.88 254.656 165.674 255.079 165.402 255.079C164 255.079 163.293 254.45 162.62 253.854C162 253.312 161.424 252.791 160.228 252.791C159.043 252.791 158.457 253.312 157.837 253.854C157.152 254.461 156.446 255.079 155.054 255.079C153.652 255.079 152.957 254.45 152.272 253.854C151.652 253.312 151.076 252.791 149.88 252.791C148.696 252.791 148.109 253.312 147.489 253.854C146.804 254.461 146.098 255.079 144.707 255.079C143.315 255.079 142.609 254.45 141.924 253.854C141.304 253.312 140.728 252.791 139.533 252.791C138.348 252.791 137.761 253.312 137.141 253.854C136.457 254.461 135.75 255.079 134.359 255.079C132.957 255.079 132.261 254.45 131.576 253.854C130.957 253.312 130.38 252.791 129.185 252.791C128 252.791 127.413 253.312 126.793 253.854C126.109 254.461 125.402 255.079 124.011 255.079C122.609 255.079 121.913 254.45 121.228 253.854C120.609 253.312 120.033 252.791 118.837 252.791C117.652 252.791 117.065 253.312 116.446 253.854C115.761 254.461 115.054 255.079 113.663 255.079C112.272 255.079 111.565 254.45 110.88 253.854C110.261 253.312 109.685 252.791 108.489 252.791C107.293 252.791 106.717 253.312 106.098 253.854C105.413 254.461 104.707 255.079 103.315 255.079C101.913 255.079 101.217 254.45 100.533 253.854C99.9131 253.312 99.337 252.791 98.1413 252.791C96.9565 252.791 96.3696 253.312 95.75 253.854C95.0652 254.461 94.3587 255.079 92.9674 255.079C91.5761 255.079 90.8696 254.45 90.1848 253.854C89.5652 253.312 88.9892 252.791 87.7935 252.791C86.6087 252.791 86.0218 253.312 85.4022 253.854C84.7174 254.461 84.0109 255.079 82.6196 255.079C81.2174 255.079 80.5218 254.45 79.837 253.854C79.2174 253.312 78.6413 252.791 77.4457 252.791C76.2609 252.791 75.6739 253.312 75.0544 253.854C74.5218 254.32 73.9783 254.808 73.0979 254.992C72.837 255.047 72.6087 254.7 72.6087 254.244V254.223H72.6196Z" fill="#3B79E4"/>
<path d="M51.8579 159.983L119.619 159.983L119.619 150.68L51.8579 150.68L51.8579 159.983Z" fill="#285FCE"/>
<path d="M56.7576 159.981L60.6054 159.981L60.6054 153.953L56.7576 153.953L56.7576 159.981Z" fill="#384259"/>
<path d="M63.3753 155.918L67.2232 155.918L67.2232 153.956L63.3753 153.956L63.3753 155.918Z" fill="#384259"/>
<path d="M81.8104 159.981L85.6582 159.981L85.6582 153.953L81.8104 153.953L81.8104 159.981Z" fill="#384259"/>
<path d="M110.629 159.981L114.477 159.981L114.477 153.953L110.629 153.953L110.629 159.981Z" fill="#384259"/>
<path d="M88.4391 155.918L92.2869 155.918L92.2869 153.956L88.4391 153.956L88.4391 155.918Z" fill="#384259"/>
<path d="M95.7763 155.918L99.6242 155.918L99.6242 153.956L95.7763 153.956L95.7763 155.918Z" fill="#384259"/>
<path d="M103.124 155.918L106.972 155.918L106.972 153.956L103.124 153.956L103.124 155.918Z" fill="#384259"/>
<path d="M71.3705 156.968L75.2183 156.968L75.2183 153.954L71.3705 153.954L71.3705 156.968Z" fill="#384259"/>
<path d="M137.717 113.923L139.794 113.923L139.794 104.512L137.717 104.512L137.717 113.923Z" fill="#21C4F0"/>
<path d="M132.533 109.607L144.968 109.607L144.968 106.604L132.533 106.604L132.533 109.607Z" fill="#21C4F0"/>
<path d="M136.152 104.511L141.37 104.511L141.37 102.722L136.152 102.722L136.152 104.511Z" fill="#21C4F0"/>
<path d="M136.152 120.332L141.37 120.332L141.37 113.924L136.152 113.924L136.152 120.332Z" fill="#21C4F0"/>
<path d="M143.565 106.598L144.967 106.598L144.967 97.3172L143.565 97.3172L143.565 106.598Z" fill="#21C4F0"/>
<path d="M132.544 109.609V106.606H137.717V104.514H136.141V102.725H138.696V120.332H136.141V113.925H137.717V109.609H132.544Z" fill="#21C4F0"/>
</svg>
