<?xml version="1.0" encoding="utf-8"?>
<!-- Generator: Adobe Illustrator 25.2.3, SVG Export Plug-In . SVG Version: 6.00 Build 0)  -->
<svg version="1.1" id="Слой_1" xmlns="http://www.w3.org/2000/svg" xmlns:xlink="http://www.w3.org/1999/xlink" x="0px" y="0px"
	 viewBox="0 0 189.2 112.8" style="enable-background:new 0 0 189.2 112.8;" xml:space="preserve">
<style type="text/css">
	.st0{fill:url(#SVGID_1_);}
	.st1{fill:#FEAA59;}
	.st2{fill:url(#SVGID_2_);}
	.st3{fill:url(#SVGID_3_);}
	.st4{fill:url(#SVGID_4_);}
	.st5{fill:url(#SVGID_5_);}
	.st6{fill:url(#SVGID_6_);}
	.st7{fill:url(#SVGID_7_);}
	.st8{fill:url(#SVGID_8_);}
	.st9{fill:url(#SVGID_9_);}
	.st10{opacity:0.6;fill:#FFFFFF;enable-background:new    ;}
	.st11{fill:#38A1E2;}
	.st12{opacity:0.6;fill:#FF9833;enable-background:new    ;}
	.st13{opacity:0.4;fill:#38A1E2;enable-background:new    ;}
	.st14{opacity:0.2;fill:#38A1E2;enable-background:new    ;}
	.st15{opacity:0.6;fill:#38A1E2;enable-background:new    ;}
</style>
<g>
	
		<linearGradient id="SVGID_1_" gradientUnits="userSpaceOnUse" x1="99" y1="79.5827" x2="99" y2="22.677" gradientTransform="matrix(1 0 0 -1 0 112)">
		<stop  offset="0" style="stop-color:#FFE7CF"/>
		<stop  offset="8.174348e-02" style="stop-color:#FFE1C3"/>
		<stop  offset="0.2896" style="stop-color:#FED4AA"/>
		<stop  offset="0.5065" style="stop-color:#FECB98"/>
		<stop  offset="0.7362" style="stop-color:#FEC68D"/>
		<stop  offset="1" style="stop-color:#FEC48A"/>
	</linearGradient>
	<path class="st0" d="M125.1,51.3c0-14.2-11.7-25.7-26.1-25.7S72.9,37.1,72.9,51.3c0,1.7,0.2,3.4,0.5,5.1l0,0
		C75,67.9,85.7,73.1,85.7,85.6c0,6.2,6.3,6.2,6.3,6.2h13.7c0,0,6.3,0,6.3-6.2c0-11.5,9.1-16.9,11.8-26.6
		C124.7,56.6,125.1,54,125.1,51.3z"/>
	<path class="st1" d="M105.8,92.4H92.1c-0.1,0-6.9-0.1-6.9-6.7s-3-11-6.2-15.7c-2.6-3.9-5.4-8-6.2-13.4c-0.3-1.7-0.5-3.4-0.5-5.2
		c0-14.4,11.9-26.2,26.6-26.2s26.6,11.7,26.6,26.2c0,2.7-0.4,5.3-1.2,7.8c-1.1,4.1-3.4,7.5-5.6,10.7c-3.2,4.7-6.1,9.1-6.1,15.7
		C112.7,92.3,105.9,92.4,105.8,92.4z M99,26.2c-14.1,0-25.6,11.3-25.6,25.2c0,1.7,0.2,3.3,0.5,5c0.7,5.2,3.4,9.2,6,13
		c3.1,4.6,6.3,9.4,6.3,16.3c0,5.7,5.6,5.7,5.8,5.7h13.7c0.2,0,5.8-0.1,5.8-5.7c0-6.9,3.2-11.7,6.3-16.3c2.1-3.2,4.4-6.5,5.5-10.5
		c0.8-2.5,1.2-5,1.2-7.6C124.6,37.5,113.1,26.2,99,26.2z"/>
</g>
<linearGradient id="SVGID_2_" gradientUnits="userSpaceOnUse" x1="99.35" y1="18.8465" x2="99.35" y2="1.4134" gradientTransform="matrix(1 0 0 -1 0 112)">
	<stop  offset="0" style="stop-color:#FEC48A"/>
	<stop  offset="1" style="stop-color:#24C4EE"/>
</linearGradient>
<polygon class="st2" points="108.2,108 103,110 95.5,110 90.5,108 90.5,90.7 108.2,90.7 "/>
<linearGradient id="SVGID_3_" gradientUnits="userSpaceOnUse" x1="89.4762" y1="17.7" x2="109.0762" y2="17.7" gradientTransform="matrix(1 0 0 -1 0 112)">
	<stop  offset="0" style="stop-color:#FEC48A"/>
	<stop  offset="0.4944" style="stop-color:#FFFFFF"/>
	<stop  offset="0.5517" style="stop-color:#FFF1E3"/>
	<stop  offset="0.6323" style="stop-color:#FEE1C3"/>
	<stop  offset="0.7159" style="stop-color:#FED4AA"/>
	<stop  offset="0.8027" style="stop-color:#FECB98"/>
	<stop  offset="0.8945" style="stop-color:#FEC68D"/>
	<stop  offset="1" style="stop-color:#FEC48A"/>
</linearGradient>
<rect x="89.5" y="93.6" class="st3" width="19.6" height="1.4"/>
<linearGradient id="SVGID_4_" gradientUnits="userSpaceOnUse" x1="89.4762" y1="14.7" x2="109.0762" y2="14.7" gradientTransform="matrix(1 0 0 -1 0 112)">
	<stop  offset="0" style="stop-color:#FEC48A"/>
	<stop  offset="0.4944" style="stop-color:#FFFFFF"/>
	<stop  offset="0.5517" style="stop-color:#FFF1E3"/>
	<stop  offset="0.6323" style="stop-color:#FEE1C3"/>
	<stop  offset="0.7159" style="stop-color:#FED4AA"/>
	<stop  offset="0.8027" style="stop-color:#FECB98"/>
	<stop  offset="0.8945" style="stop-color:#FEC68D"/>
	<stop  offset="1" style="stop-color:#FEC48A"/>
</linearGradient>
<rect x="89.5" y="96.6" class="st4" width="19.6" height="1.4"/>
<linearGradient id="SVGID_5_" gradientUnits="userSpaceOnUse" x1="89.4762" y1="11.7" x2="109.0762" y2="11.7" gradientTransform="matrix(1 0 0 -1 0 112)">
	<stop  offset="0" style="stop-color:#FEC48A"/>
	<stop  offset="0.4944" style="stop-color:#FFFFFF"/>
	<stop  offset="0.5517" style="stop-color:#FFF1E3"/>
	<stop  offset="0.6323" style="stop-color:#FEE1C3"/>
	<stop  offset="0.7159" style="stop-color:#FED4AA"/>
	<stop  offset="0.8027" style="stop-color:#FECB98"/>
	<stop  offset="0.8945" style="stop-color:#FEC68D"/>
	<stop  offset="1" style="stop-color:#FEC48A"/>
</linearGradient>
<rect x="89.5" y="99.6" class="st5" width="19.6" height="1.4"/>
<linearGradient id="SVGID_6_" gradientUnits="userSpaceOnUse" x1="89.4762" y1="8.7" x2="109.0762" y2="8.7" gradientTransform="matrix(1 0 0 -1 0 112)">
	<stop  offset="0" style="stop-color:#FEC48A"/>
	<stop  offset="0.4944" style="stop-color:#FFFFFF"/>
	<stop  offset="0.5517" style="stop-color:#FFF1E3"/>
	<stop  offset="0.6323" style="stop-color:#FEE1C3"/>
	<stop  offset="0.7159" style="stop-color:#FED4AA"/>
	<stop  offset="0.8027" style="stop-color:#FECB98"/>
	<stop  offset="0.8945" style="stop-color:#FEC68D"/>
	<stop  offset="1" style="stop-color:#FEC48A"/>
</linearGradient>
<rect x="89.5" y="102.6" class="st6" width="19.6" height="1.4"/>
<linearGradient id="SVGID_7_" gradientUnits="userSpaceOnUse" x1="89.4762" y1="5.6" x2="109.0762" y2="5.6" gradientTransform="matrix(1 0 0 -1 0 112)">
	<stop  offset="0" style="stop-color:#FEC48A"/>
	<stop  offset="0.4944" style="stop-color:#FFFFFF"/>
	<stop  offset="0.5517" style="stop-color:#FFF1E3"/>
	<stop  offset="0.6323" style="stop-color:#FEE1C3"/>
	<stop  offset="0.7159" style="stop-color:#FED4AA"/>
	<stop  offset="0.8027" style="stop-color:#FECB98"/>
	<stop  offset="0.8945" style="stop-color:#FEC68D"/>
	<stop  offset="1" style="stop-color:#FEC48A"/>
</linearGradient>
<rect x="89.5" y="105.7" class="st7" width="19.6" height="1.4"/>
<linearGradient id="SVGID_8_" gradientUnits="userSpaceOnUse" x1="99.3" y1="77.1553" x2="99.3" y2="25.4894" gradientTransform="matrix(1 0 0 -1 0 112)">
	<stop  offset="0" style="stop-color:#FFE7CF"/>
	<stop  offset="0.1064" style="stop-color:#FFDAB5"/>
	<stop  offset="0.2671" style="stop-color:#FFCA95"/>
	<stop  offset="0.4338" style="stop-color:#FFBD7C"/>
	<stop  offset="0.6067" style="stop-color:#FFB46A"/>
	<stop  offset="0.7898" style="stop-color:#FFAF5F"/>
	<stop  offset="1" style="stop-color:#FFAD5C"/>
</linearGradient>
<path class="st8" d="M99.3,28.7c-13.1,0-23.7,9.4-23.7,22.3c0,1.6,0.5,4.6,0.5,4.6C77.6,66,87.3,66.8,87.3,78.1
	c0,5.7,5.8,10.7,5.8,10.7h1.3c-1.1-1.8-2.8-5-2.8-8.6c0-10.5-6.2-11.2-7.1-20.9c0,0-0.3-2.8-0.3-4.3c0-12,6.8-20.7,15.1-20.7
	c8.4,0,15.1,8.8,15.1,20.7c0,2.3-0.2,3.5-0.7,5.6c-1.6,8.2-6.8,10-6.8,19.7c0,3.5-1.7,6.8-2.8,8.6h1.3c0,0,5.8-5,5.8-10.7
	c0-10.4,8.2-12.3,10.7-21.2c0.7-2.2,1.1-3.5,1.1-6C123,38.2,112.4,28.7,99.3,28.7z"/>
<linearGradient id="SVGID_9_" gradientUnits="userSpaceOnUse" x1="88.4591" y1="76.647" x2="101.045" y2="57.0689" gradientTransform="matrix(1 0 0 -1 0 112)">
	<stop  offset="0.2966" style="stop-color:#FFFFFF;stop-opacity:0.1"/>
	<stop  offset="0.6592" style="stop-color:#FFFFFF;stop-opacity:0.7"/>
</linearGradient>
<path class="st9" d="M77.5,66.1c6.5-16.9,21.7-29.6,40.3-32.9c-4.7-4.6-11.2-7.5-18.4-7.5c-14.4,0-26.1,11.5-26.1,25.7
	c0,1.7,0.2,3.4,0.5,5.1l0,0C74.2,60.1,75.7,63.2,77.5,66.1z"/>
<g>
	<path class="st10" d="M104.2,92.2H93.8V79.9h10.4C104.2,79.9,104.2,92.2,104.2,92.2z M94.6,91.5h8.9V80.6h-8.9V91.5z"/>
	<path class="st10" d="M103.1,80.6h-7.4l-3.2-8H94l-6.2-23l0.8,0.4c0.1,0,5.6,3.2,9.5,3.2h2.5c3.9,0,9.5-3.1,9.5-3.2l0.8-0.4
		l-6.2,23h1.5L103.1,80.6z M96.1,79.9h6.4l2.6-6.5h-1.4l6-22.2c-1.7,0.9-5.9,2.8-9.1,2.8h-2.5c-3.2,0-7.4-2-9.1-2.8l6,22.2h-1.4
		L96.1,79.9z"/>
	<polygon class="st10" points="101.3,71.2 100.5,71.2 100.5,63.8 103.3,53 104.1,53.2 101.3,63.9 	"/>
	<polygon class="st10" points="97.2,71.2 97.2,63.9 94.4,53.2 95.2,53 98,63.9 98,71.2 	"/>
	<path class="st10" d="M99.2,78.9c-1.4,0-2.6-1.2-2.6-2.6s1.2-2.6,2.6-2.6s2.6,1.2,2.6,2.6C101.9,77.7,100.7,78.9,99.2,78.9z
		 M99.2,74.5c-1,0-1.9,0.8-1.9,1.8s0.8,1.8,1.9,1.8c1,0,1.9-0.8,1.9-1.8S100.3,74.5,99.2,74.5z"/>
</g>
<path class="st11" d="M140,50.6h-1.8h-0.1v-3.8c0-1-0.8-1.7-1.7-1.7h-3.6c-0.1-8-2.7-15.3-7.2-21.2l1.1-1.1C120,14.1,109.9,9,99,9
	c-11.1,0-21.4,5.3-28,14.2l1.2,1c-4.3,5.8-6.9,13-6.9,20.9h-3.6c-1,0-1.7,0.8-1.7,1.7v3.8h-0.1H58c-1,0-1.7,0.8-1.7,1.7v12.8
	c0,1,0.8,1.7,1.7,1.7h1.8h0.1v3c0,1,0.8,1.7,1.7,1.7h7.2c1,0,1.7-0.8,1.7-1.7v-23c0-1-0.8-1.7-1.7-1.7h-0.6
	c0.1-7.1,2.4-13.7,6.3-18.9l1.2,0.9c5.5-7.4,14-11.9,23.2-11.9s17.7,4.4,23.2,11.9l1.1-1c3.9,5.3,6.3,11.9,6.4,19h-0.5
	c-1,0-1.7,0.8-1.7,1.7V70c0,0.8,0.5,1.4,1.2,1.6c-2.4,5.7-7.4,10-13.5,11.7c0-0.4-0.3-0.7-0.7-0.7h-11.8c-0.4,0-0.7,0.3-0.7,0.7v4
	c0,0.4,0.3,0.7,0.7,0.7h11.8c0.4,0,0.7-0.3,0.7-0.7v-2.1c7.2-1.8,13-6.9,15.6-13.7h5.6c1,0,1.7-0.8,1.7-1.7v-3h0.1h1.8
	c1,0,1.7-0.8,1.7-1.7V52.4C141.7,51.4,140.9,50.6,140,50.6z"/>
<path class="st12" d="M51.8,36.7l-3-14.4c-0.6-3-2.9-5.3-5.9-6.1L9.2,7.9C5.5,7,1.8,9.7,1.8,13.4v22.5c0,3.4,2.8,6.1,6.3,6.1h27.6
	c2.4,2.1,7.2,5.8,13.4,7.7c0,0-3.3-4.1-4-7.7h2.2C50.2,42,52.4,39.5,51.8,36.7z"/>
<path class="st13" d="M51.3,78.5l-2.1-12.4c-0.4-2.5-2.1-4.5-4.2-5.2l-24-4.6c-2.7-0.8-5.3,1.5-5.3,4.7v16.8c0,2.9,2,5.2,4.5,5.2
	h19.6c1.7,1.8,5.1,4.9,9.5,6.5c0,0-2.3-3.5-2.9-6.5H48C50.2,83,51.7,80.8,51.3,78.5z"/>
<path class="st14" d="M61.2,21.8l-1.9-11.2c-0.4-2.3-1.9-4.1-4-4.7L32.9,1.8C30.4,1.1,28,3.2,28,6.1v15.2c0,2.6,1.9,4.7,4.2,4.7
	h18.3c1.6,1.6,4.8,4.4,8.9,5.9c0,0-2.2-3.1-2.7-5.9h1.5C60.2,25.9,61.6,23.9,61.2,21.8z"/>
<path class="st15" d="M135.9,24.1l1.7-9.1c0.4-1.8,1.7-3.3,3.5-3.8l19.7-3.4c2.2-0.6,4.3,1.1,4.3,3.5v12.3c0,2.1-1.6,3.8-3.7,3.8
	h-16.1c-1.4,1.3-4.2,3.6-7.8,4.8c0,0,1.9-2.6,2.3-4.8h-1.3C136.9,27.5,135.6,25.9,135.9,24.1z"/>
<path class="st12" d="M150.6,40.7l2.1-12.2c0.4-2.5,2.1-4.4,4.4-5.1l24.8-4.5c2.8-0.8,5.4,1.5,5.4,4.6V40c0,2.8-2.1,5.1-4.6,5.1
	h-20.3c-1.8,1.8-5.3,4.8-9.9,6.4c0,0,2.4-3.4,3-6.4h-1.6C151.7,45.1,150.1,43,150.6,40.7z"/>
</svg>
