<?xml version="1.0" encoding="utf-8"?>
<!-- Generator: Adobe Illustrator 25.2.3, SVG Export Plug-In . SVG Version: 6.00 Build 0)  -->
<svg version="1.1" id="Слой_1" xmlns="http://www.w3.org/2000/svg" xmlns:xlink="http://www.w3.org/1999/xlink" x="0px" y="0px"
	 viewBox="0 0 189.2 112.8" style="enable-background:new 0 0 189.2 112.8;" xml:space="preserve">
<style type="text/css">
	.st0{fill:url(#SVGID_1_);}
	.st1{fill:#FFAD5C;}
	.st2{fill:url(#SVGID_2_);}
	.st3{fill:#FFFFFF;}
	.st4{opacity:0.6;}
	.st5{fill:#2AA5F4;}
	.st6{opacity:0.6;fill:#2AA5F4;enable-background:new    ;}
	.st7{opacity:0.3;}
	.st8{opacity:0.3;fill:#2AA5F4;enable-background:new    ;}
</style>
<linearGradient id="SVGID_1_" gradientUnits="userSpaceOnUse" x1="59.75" y1="25.7874" x2="59.75" y2="4.8142" gradientTransform="matrix(1 0 0 -1 0 112)">
	<stop  offset="0.2185" style="stop-color:#1975AF"/>
	<stop  offset="0.5879" style="stop-color:#1E83CE"/>
</linearGradient>
<polygon class="st0" points="35,92 76,80.6 84.5,110.4 "/>
<polygon class="st1" points="34.8,92 15.5,29.4 187.5,17.3 157.7,92 "/>
<linearGradient id="SVGID_2_" gradientUnits="userSpaceOnUse" x1="34.6165" y1="25.2812" x2="174.6623" y2="115.1369" gradientTransform="matrix(1 0 0 -1 0 112)">
	<stop  offset="0" style="stop-color:#2AA5F4"/>
	<stop  offset="1" style="stop-color:#1BCCEC"/>
</linearGradient>
<polygon class="st2" points="34.8,92 15.5,29.4 181.9,4.4 161.8,74.7 "/>
<g>
	<path class="st3" d="M49.7,74.7c-1.9,0.3-3.6,0.2-5-0.2c-1.4-0.4-2.5-1.2-3.3-2.3c-0.8-1.1-1.2-2.6-1.2-4.3V55l5.1-0.8v12.4
		c0,1.4,0.4,2.5,1.1,3.1s1.8,0.8,3.2,0.6s2.4-0.7,3.2-1.6c0.7-0.8,1.1-2,1.1-3.4V52.9l5.1-0.8V65c0,1.8-0.4,3.3-1.2,4.7
		C57,71,55.9,72.1,54.5,73C53.3,73.8,51.6,74.4,49.7,74.7z"/>
	<path class="st3" d="M62.2,72.4V51.6L72.3,50c1.6-0.3,3-0.1,4,0.4c1.1,0.5,1.9,1.3,2.4,2.3s0.8,2.3,0.8,3.7s-0.3,2.7-0.9,3.9
		s-1.4,2.2-2.5,3s-2.4,1.3-3.9,1.5l-4.8,0.7v6.1L62.2,72.4z M67.3,61.6L71,61c1.1-0.2,1.9-0.6,2.4-1.3s0.8-1.5,0.8-2.5
		c0-1.1-0.3-1.9-0.7-2.4c-0.5-0.5-1.3-0.7-2.3-0.5l-3.8,0.6L67.3,61.6z"/>
	<path class="st3" d="M81.5,69.5V48.7l8.9-1.4c2.1-0.3,3.8-0.2,5.2,0.2c1.4,0.5,2.5,1.4,3.2,2.9c0.7,1.4,1.1,3.4,1.1,5.9
		c0,3.6-0.8,6.3-2.4,8.2c-1.6,1.9-4,3.1-7.2,3.6L81.5,69.5z M86.6,64.7l3.1-0.5c1.1-0.2,2-0.5,2.8-0.9s1.3-1.2,1.7-2.1
		c0.4-1,0.6-2.3,0.6-4s-0.2-3-0.5-3.9c-0.4-0.9-0.9-1.5-1.7-1.7c-0.8-0.3-1.7-0.3-2.9-0.1L86.6,52V64.7z"/>
	<path class="st3" d="M100.2,66.6l7.8-22l5.5-0.9l7.8,19.6l-5.3,0.8l-1.8-4.4l-6.8,1.1l-1.8,5L100.2,66.6z M108.1,56.8l5.4-0.8
		l-2.7-6.8L108.1,56.8z"/>
	<path class="st3" d="M126.1,62.6V45.8l-6,0.9v-4l17.2-2.6v4l-6,0.9v16.8L126.1,62.6z"/>
	<path class="st3" d="M139.5,60.6V39.8l15.1-2.3v4l-10,1.5v4.4l8.8-1.4v4.1l-8.8,1.4v4.4l10-1.5v4L139.5,60.6z"/>
</g>
<g>
	<path class="st3" d="M79,43.5V32.7l1.6-0.2l5.6,7.1v-7.9l1.8-0.3v10.8l-1.6,0.2l-5.5-7.1v7.9L79,43.5z"/>
	<path class="st3" d="M90,41.8V31l7.4-1.1v1.4l-5.6,0.9v3.3l5-0.8v1.4l-5,0.8v3.3l5.6-0.9v1.4L90,41.8z"/>
	<path class="st3" d="M101.3,40.1l-2.5-10.4l1.8-0.3l1.8,7.8l2-7.1v-1.3l1.5-0.2l2.3,7.8L110,28l1.8-0.3l-2.5,11.2l-1.8,0.3
		l-2.1-7.2l-2.3,7.9L101.3,40.1z"/>
</g>
<g class="st4">
	<path class="st5" d="M25.2,41.4c1.3-1.7,2.9-4.8,1-10.4c-1.9-5.5-2.4-16,3.5-20.3c-0.5-0.3-0.9-0.7-1.1-1.3
		c-0.4-1.3,0.3-2.7,1.5-3.1c1.3-0.4,2.7,0.3,3.1,1.5c0.2,0.6,0.2,1.2,0,1.7c7.3-0.2,13.3,8.5,15.2,13.9c1.9,5.6,5.1,7,7.2,7.6
		c2,0.6-8.6,6.7-13.8,8.4C36.7,41.2,23.9,43.1,25.2,41.4z"/>
	<path class="st3" d="M27.1,42.5c-1.2,0-2.1-0.1-2.3-0.5c-0.2-0.3-0.2-0.6,0-0.9c1.3-1.7,2.8-4.7,1-10c-2-5.9-2.3-15.9,3.2-20.5
		c-0.3-0.3-0.6-0.7-0.7-1.1c-0.3-0.8-0.2-1.6,0.1-2.3c0.4-0.7,1-1.2,1.7-1.5c0.8-0.3,1.6-0.2,2.3,0.1c0.7,0.4,1.2,1,1.5,1.7
		C34,8,34,8.5,34,8.9c7.1,0.3,13,8.4,15,14.3c1.8,5.3,4.8,6.7,6.8,7.3c0.4,0.1,0.6,0.4,0.6,0.7c0,1.9-10.5,7.3-14.4,8.7
		C39,40.9,31.1,42.5,27.1,42.5z M25.2,41.4l0.4,0.3l0,0L25.2,41.4z M25.7,41.5c1.8,0.4,11.2-0.9,15.9-2.5c4.6-1.6,12.6-6.1,13.6-7.5
		c-1.5-0.5-5.2-1.8-7.3-7.9c-2-5.8-7.8-13.8-14.7-13.6h-0.7l0.3-0.7C33,8.9,33,8.4,32.8,8c-0.2-0.5-0.5-0.9-1-1.1s-1-0.3-1.5-0.1
		c-0.5,0.2-0.9,0.5-1.1,1s-0.3,1-0.1,1.5c0.1,0.4,0.4,0.8,0.8,1l0.6,0.4L30,11c-5.6,4-5.3,14-3.3,19.7
		C28.8,36.8,26.7,40.2,25.7,41.5z"/>
</g>
<path class="st6" d="M49.9,35.6C49.9,35.7,50,35.7,49.9,35.6c0.6,1.9-0.3,3.8-2.1,4.4c-1.5,0.5-3.2-0.1-4-1.4
	C45.7,37.8,47.9,36.7,49.9,35.6z"/>
<g class="st7">
	<path class="st5" d="M34.6,41.7c0.7-2,1.5-5.5-1.9-10.3c-3.3-4.8-6.7-14.7-2.2-20.5c-0.5-0.2-1-0.5-1.4-1c-0.8-1.1-0.5-2.7,0.6-3.4
		c1.1-0.8,2.7-0.5,3.4,0.6c0.3,0.5,0.5,1.1,0.4,1.6c7-2.2,15.1,4.5,18.4,9.3c3.4,4.9,6.9,5.4,9,5.4s-6.5,8.8-11,11.9
		S33.9,43.6,34.6,41.7z"/>
	<path class="st3" d="M35,42.5c-0.3,0-0.5,0-0.6-0.2c-0.3-0.2-0.3-0.5-0.2-0.9c0.8-2,1.4-5.3-1.8-9.9c-3.5-5.1-6.5-14.7-2.5-20.6
		c-0.4-0.2-0.7-0.5-1-0.9c-0.5-0.7-0.6-1.4-0.5-2.2s0.6-1.5,1.2-1.9c0.7-0.5,1.4-0.6,2.2-0.5c0.8,0.1,1.5,0.6,1.9,1.2
		c0.3,0.6,0.5,1,0.5,1.4c6.9-1.6,14.8,4.5,18.3,9.7c3.2,4.6,6.4,5.2,8.6,5.2c0.4,0,0.7,0.2,0.8,0.5c0.6,1.8-8.1,9.9-11.5,12.3
		C47.3,37.8,37.9,42.5,35,42.5z M34.6,41.7l0.5,0.2l0,0L34.6,41.7z M31.3,6.5c-0.4,0-0.8,0.1-1.1,0.3c-0.4,0.3-0.7,0.8-0.8,1.3
		c-0.1,0.5,0,1,0.3,1.5c0.3,0.4,0.6,0.6,1.1,0.8l0.7,0.2L31,11.2C26.8,16.6,29.7,26,33.2,31c3.6,5.3,2.5,9.1,2,10.5
		c1.8-0.1,10.5-3.9,14.6-6.8c4-2.8,10.4-9.3,11.1-11c-1.6,0-5.5-0.3-9.2-5.6C48.2,13.1,40.4,7,33.9,9l-0.7,0.2l0.1-0.7
		c0-0.5-0.1-0.9-0.3-1.3c-0.3-0.4-0.8-0.7-1.3-0.8C31.5,6.5,31.4,6.5,31.3,6.5z"/>
</g>
<path class="st8" d="M58.4,28.4L58.4,28.4c1.1,1.6,0.8,3.7-0.8,4.8c-1.3,0.9-3.1,0.8-4.2-0.2C54.9,31.7,56.7,30,58.4,28.4z"/>
<g class="st4">
	<path class="st5" d="M36.9,41.4c-1.3-1.7-2.9-4.8-1-10.4c1.9-5.5,2.4-16-3.5-20.3c0.5-0.3,0.9-0.7,1.1-1.3c0.4-1.3-0.3-2.7-1.5-3.1
		c-1.3-0.4-2.7,0.3-3.1,1.5c-0.2,0.6-0.2,1.2,0,1.7C21.6,9.3,15.6,18,13.7,23.4c-1.9,5.6-5.1,7-7.2,7.6c-2,0.6,8.6,6.7,13.8,8.4
		C25.4,41.2,38.2,43.1,36.9,41.4z"/>
	<path class="st3" d="M35,42.5c-4,0-11.9-1.6-14.9-2.6c-3.9-1.3-14.5-6.7-14.4-8.7c0-0.3,0.2-0.6,0.6-0.7c2.1-0.6,5-2,6.8-7.3
		c2-5.9,7.9-14,15-14.3c-0.1-0.5,0-0.9,0.1-1.3c0.3-0.8,0.8-1.4,1.5-1.7c0.7-0.3,1.5-0.4,2.3-0.1s1.4,0.8,1.7,1.5
		c0.4,0.7,0.4,1.5,0.1,2.3c-0.1,0.4-0.4,0.8-0.7,1.1c5.4,4.6,5.2,14.6,3.2,20.5c-1.8,5.3-0.3,8.2,1,10l0,0c0.2,0.3,0.2,0.7,0,0.9
		C37.1,42.4,36.2,42.5,35,42.5z M36.5,41.7L36.5,41.7l0.4-0.3L36.5,41.7z M6.8,31.4c1.1,1.4,9,6,13.6,7.5c4.8,1.6,14.2,3,15.9,2.5
		c-0.9-1.3-3-4.6-1-10.7c2-5.8,2.2-15.7-3.3-19.7l-0.6-0.4l0.6-0.4c0.4-0.2,0.7-0.6,0.8-1c0.2-0.5,0.1-1-0.1-1.5
		c-0.2-0.5-0.6-0.8-1.1-1c-0.5-0.2-1-0.1-1.5,0.1s-0.8,0.6-1,1.1c-0.1,0.4-0.1,0.9,0,1.3l0.3,0.7h-0.7c-0.1,0-0.2,0-0.2,0
		c-6.8,0-12.5,7.9-14.4,13.6C12,29.6,8.3,31,6.8,31.4z"/>
</g>
<path class="st6" d="M12.2,35.6C12.2,35.7,12.1,35.7,12.2,35.6c-0.6,1.9,0.3,3.8,2.1,4.4c1.5,0.5,3.2-0.1,4-1.4
	C16.4,37.8,14.2,36.7,12.2,35.6z"/>
<g class="st7">
	<path class="st5" d="M27.5,41.7c-0.7-2-1.5-5.5,1.9-10.3c3.3-4.8,6.7-14.7,2.2-20.5c0.5-0.2,1-0.5,1.4-1c0.8-1.1,0.5-2.7-0.6-3.4
		C31.3,5.7,29.7,6,29,7.1c-0.3,0.5-0.5,1.1-0.4,1.6c-7-2.2-15.1,4.5-18.4,9.3c-3.4,4.9-6.9,5.4-9,5.4s6.5,8.8,11,11.9
		S28.2,43.6,27.5,41.7z"/>
	<path class="st3" d="M27.1,42.5c-2.8,0-12.2-4.7-15.4-6.9C8.3,33.3-0.4,25.2,0.2,23.4c0.1-0.3,0.4-0.5,0.8-0.5
		c2.2,0,5.4-0.6,8.6-5.2C13.1,12.6,21,6.4,27.9,8c0.1-0.5,0.2-0.9,0.5-1.3c0.5-0.7,1.1-1.1,1.9-1.2s1.6,0,2.2,0.5
		c0.7,0.5,1.1,1.1,1.2,1.9c0.1,0.8,0,1.6-0.5,2.2c-0.3,0.4-0.6,0.7-1,0.9c4,5.9,1,15.4-2.5,20.6c-3.2,4.6-2.5,7.8-1.8,9.9l0,0
		c0.1,0.4,0.1,0.7-0.2,0.9C27.6,42.5,27.4,42.5,27.1,42.5z M1.2,23.9c0.6,1.6,7,8.2,11.1,11c4.2,2.9,12.8,6.7,14.6,6.8
		c-0.5-1.5-1.6-5.3,2-10.5c3.5-5,6.4-14.5,2.2-19.9l-0.5-0.6l0.7-0.2c0.5-0.1,0.8-0.4,1.1-0.8c0.3-0.4,0.4-1,0.3-1.5
		c-0.1-0.5-0.4-1-0.8-1.3c-0.4-0.3-1-0.4-1.5-0.3s-1,0.4-1.3,0.8s-0.4,0.8-0.3,1.3l0.1,0.7l-0.7-0.2c-6.6-2.1-14.4,4.1-17.8,9.1
		C6.7,23.6,2.8,23.8,1.2,23.9z"/>
</g>
<path class="st8" d="M3.7,28.4L3.7,28.4C2.6,30,3,32.1,4.5,33.2C5.8,34.1,7.6,34,8.7,33C7.2,31.7,5.4,30,3.7,28.4z"/>
<circle class="st5" cx="31.3" cy="41.1" r="3.4"/>
<g>
	<path class="st5" d="M47.4,36.8c-1.7-1.2-4.3-3.6-4.3-9.5c0-5.8-2.9-15.9-9.9-18.1c0.4-0.4,0.6-1,0.6-1.6c0-1.4-1.1-2.5-2.5-2.5
		s-2.5,1.1-2.5,2.5c0,0.6,0.2,1.1,0.6,1.6c-7,2.2-9.9,12.3-9.9,18.1c0,5.9-2.6,8.3-4.3,9.5C13.4,38,25.5,40.3,31,40.3
		S49.1,38,47.4,36.8z"/>
	<path class="st3" d="M31,40.8c-4.2,0-15.9-1.7-16.4-3.5c-0.1-0.3,0-0.7,0.3-0.9c1.8-1.2,4.1-3.5,4.1-9.1c0-6.2,3-15.8,9.6-18.4
		c-0.2-0.4-0.3-0.9-0.3-1.3c0-1.6,1.3-3,3-3c1.6,0,3,1.3,3,3c0,0.5-0.1,0.9-0.3,1.3c6.6,2.6,9.6,12.1,9.6,18.4
		c0,5.6,2.4,7.9,4.1,9.1c0.3,0.2,0.4,0.5,0.3,0.9C47.4,39.1,35.2,40.8,31,40.8z M15.6,37.1c1.5,1,10.5,2.7,15.3,2.7
		c5,0,14.4-1.8,15.9-2.8c-1.3-0.9-4.4-3.4-4.4-9.8c0-6.1-3-15.6-9.5-17.6l-0.7-0.2l0.5-0.6C33,8.4,33.2,8,33.2,7.6c0-1.1-0.9-2-2-2
		c-1.1,0-2,0.9-2,2c0,0.5,0.2,0.9,0.5,1.3l0.5,0.6l-0.7,0.2C23,11.7,20,21.2,20,27.3C20,33.7,16.9,36.2,15.6,37.1z"/>
</g>
</svg>
