<?xml version="1.0" encoding="utf-8"?>
<!-- Generator: Adobe Illustrator 25.2.3, SVG Export Plug-In . SVG Version: 6.00 Build 0)  -->
<svg version="1.1" id="Слой_1" xmlns="http://www.w3.org/2000/svg" xmlns:xlink="http://www.w3.org/1999/xlink" x="0px" y="0px"
	 viewBox="0 0 150 89.4" style="enable-background:new 0 0 150 89.4;" xml:space="preserve">
<style type="text/css">
	.st0{fill:#FFAD5C;}
	.st1{fill:#2AA4F4;}
	.st2{fill:#FFFFFF;}
</style>
<polygon class="st0" points="104.7,77.9 85.7,16.2 35.7,10.9 32.7,68.8 "/>
<polygon class="st1" points="56.8,24.7 52.8,20.7 52.8,16.2 53.6,16.2 53.6,20.3 57.4,24.1 "/>
<polygon class="st1" points="60.7,24.4 59.9,24.4 59.9,18.9 53.2,12.2 53.2,5 54.1,5 54.1,11.9 60.7,18.6 "/>
<polygon class="st1" points="63.8,24.4 63,24.4 63,12.8 60,9.8 60,4.8 57.8,2.6 58.3,2 60.8,4.5 60.8,9.5 63.8,12.5 "/>
<polygon class="st1" points="67,24.4 66.2,24.4 66.2,13.5 69.3,10.4 69.3,3.9 70.1,3.9 70.1,10.7 67,13.8 "/>
<polygon class="st1" points="70.2,24.4 69.4,24.4 69.4,14.3 72.8,10.9 72.8,1.4 73.6,1.4 73.6,11.3 70.2,14.6 "/>
<polygon class="st1" points="73.7,24.4 72.9,24.4 72.9,15.5 76.1,12.4 76.1,10.1 76.9,10.1 76.9,12.7 73.7,15.8 "/>
<rect x="76" y="17.5" class="st1" width="0.8" height="6.9"/>
<polygon class="st1" points="80.2,24.4 79.4,24.4 79.4,8.8 75.9,5.4 75.9,1.5 76.7,1.5 76.7,5.1 80.2,8.5 "/>
<rect x="82.4" y="16.2" class="st1" width="0.8" height="8.1"/>
<polygon class="st1" points="86.1,23.8 85.3,23.8 85.3,10.8 81.7,7.2 81.7,2.7 82.5,2.7 82.5,6.8 86.1,10.4 "/>
<polygon class="st1" points="89,23.6 88.2,23.6 88.2,15 92.2,10.3 92.2,6.8 89,3.5 89.5,2.9 93,6.4 93,10.6 89,15.4 "/>
<polygon class="st1" points="92.5,23.6 91.7,23.6 91.7,17.7 94.7,14.8 94.7,12 95.5,12 95.5,15.1 92.5,18 "/>
<polygon class="st1" points="96.3,23.9 95.5,23.9 95.5,19.6 98.9,16.2 98.9,5.5 99.7,5.5 99.7,16.5 96.3,19.9 "/>
<polygon class="st1" points="105.7,25.7 97.7,25.7 97.7,24.9 105.4,24.9 109.1,21.2 111.6,21.2 111.6,22 109.4,22 "/>
<polygon class="st1" points="108.7,28.6 97.7,28.6 97.7,27.8 108.4,27.8 112.9,23.2 130.9,23.2 130.9,24 113.3,24 "/>
<polygon class="st1" points="126.2,32.1 123.1,29 115,29 112,32 97.7,32 97.7,31.2 111.6,31.2 114.7,28.2 123.4,28.2 126.8,31.5 "/>
<polygon class="st1" points="137.7,35.3 97.7,35.3 97.7,34.5 137.4,34.5 140.5,31.4 146.4,31.4 146.4,32.2 140.8,32.2 "/>
<polygon class="st1" points="137.8,41.7 125.8,41.7 122.6,38.5 97.7,38.5 97.7,37.6 122.9,37.6 126.1,40.9 137.8,40.9 "/>
<polygon class="st1" points="122,43.9 119.9,41.7 97.7,41.7 97.7,40.9 120.2,40.9 122.6,43.4 "/>
<polygon class="st1" points="142.1,48.3 121.5,48.3 118,45 97.7,45 97.7,44.2 118.4,44.2 121.8,47.5 142.1,47.5 "/>
<polygon class="st1" points="119,50.8 115,50.8 112.3,48.2 97.7,48.2 97.7,47.4 112.6,47.4 115.3,50 119,50 "/>
<rect x="97.7" y="50.6" class="st1" width="11.4" height="0.8"/>
<polygon class="st1" points="126.6,54.8 97.7,54.8 97.7,54 126.3,54 129.3,51.1 148.9,51.1 148.9,51.9 129.6,51.9 "/>
<polygon class="st1" points="137.1,60.7 131.7,60.7 129.1,58.2 97.7,58.2 97.7,57.4 129.4,57.4 132.1,59.9 136.8,59.9 139.9,57 
	140.4,57.5 "/>
<polygon class="st1" points="133.7,64.5 126,64.5 123.1,61.5 97.7,61.5 97.7,60.7 123.4,60.7 126.4,63.7 133.7,63.7 "/>
<polygon class="st1" points="131.8,72 127.3,67.4 119.3,67.4 116.6,64.8 97.7,64.8 97.7,63.9 117,63.9 119.6,66.6 127.6,66.6 
	132.4,71.4 "/>
<polygon class="st1" points="53.7,25.7 35,25.7 32.2,22.9 23.7,22.9 17,16.2 8.1,16.2 8.1,15.4 17.3,15.4 24.1,22.1 32.5,22.1 
	35.3,24.9 53.7,24.9 "/>
<polygon class="st1" points="54.3,28.6 32.3,28.6 30,26.3 21.5,26.3 21.5,25.5 30.3,25.5 32.6,27.8 54.3,27.8 "/>
<polygon class="st1" points="56.3,32.2 29.4,32.2 26.9,29.6 16.6,29.6 13.3,26.3 13.8,25.7 16.9,28.8 27.2,28.8 29.8,31.4 
	56.3,31.4 "/>
<polygon class="st1" points="27.6,38.5 10.2,38.5 10.2,37.7 27.3,37.7 30.5,34.5 57.6,34.5 57.6,35.3 30.8,35.3 "/>
<rect x="35.5" y="37.6" class="st1" width="19.6" height="0.8"/>
<polygon class="st1" points="6.8,45.9 1.9,45.9 1.9,45 6.4,45 10.5,40.9 55.4,40.9 55.4,41.7 10.9,41.7 "/>
<rect x="40.8" y="44.2" class="st1" width="14.2" height="0.8"/>
<polygon class="st1" points="54.3,48.3 34.2,48.3 30.9,45 13.6,45 13.6,44.2 31.2,44.2 34.5,47.5 54.3,47.5 "/>
<polygon class="st1" points="55.1,51.4 32.5,51.4 29.7,48.6 20.5,48.6 20.5,47.8 30.1,47.8 32.8,50.6 55.1,50.6 "/>
<polygon class="st1" points="33.8,58.1 27.8,58.1 27.8,57.3 33.5,57.3 36.7,54 54.8,54 54.8,54.8 37,54.8 "/>
<polygon class="st1" points="19.4,63.9 18.8,63.4 21.3,60.8 34.2,60.8 37.8,57.3 56.3,57.3 56.3,58.1 38.1,58.1 34.5,61.6 
	21.7,61.6 "/>
<polygon class="st1" points="19.5,70.9 8.1,70.9 8.1,70.1 19.2,70.1 22.5,66.8 35.5,66.8 41.6,60.7 55.4,60.7 55.4,61.5 41.9,61.5 
	35.8,67.6 22.8,67.6 "/>
<polygon class="st1" points="35.5,72.2 30.2,72.2 30.2,71.4 35.2,71.4 42.7,63.9 54.8,63.9 54.8,64.8 43,64.8 "/>
<polygon class="st1" points="97.6,84.3 91.7,78.5 91.7,66.8 92.5,66.8 92.5,78.1 98.1,83.7 "/>
<polygon class="st1" points="92.4,88.5 91.6,88.5 91.6,85.6 88.2,82.2 88.2,63.6 89,63.6 89,81.9 92.4,85.3 "/>
<rect x="85.5" y="64.4" class="st1" width="0.8" height="16"/>
<polygon class="st1" points="81.2,85.5 80.4,85.5 80.4,80.7 82.8,78.2 82.8,65.1 83.6,65.1 83.6,78.5 81.2,81 "/>
<rect x="79.4" y="65.8" class="st1" width="0.8" height="8.6"/>
<polygon class="st1" points="76.7,81.6 75.9,81.6 75.9,68.3 76.1,65.7 76.1,66.8 76.9,66.8 76.9,65.4 76.7,68 "/>
<rect x="72.8" y="67.3" class="st1" width="0.8" height="9.6"/>
<polygon class="st1" points="73.7,87.3 72.9,87.3 72.9,84.1 69.3,80.4 69.3,66.8 70.1,66.8 70.1,80.1 73.7,83.7 "/>
<polygon class="st1" points="63.3,77.9 62.7,77.4 66.2,73.9 66.2,66.8 67,66.8 67,74.2 "/>
<polygon class="st1" points="59.8,73 59,73 59,72.1 62.7,68.1 63.3,68.6 59.8,72.4 "/>
<rect x="55.9" y="66.8" class="st1" width="0.8" height="10.9"/>
<path class="st2" d="M96.8,68.8H55.7c-1.4,0-2.6-1.1-2.6-2.6V24.1c0-1.4,1.1-2.6,2.6-2.6h41.1c1.4,0,2.6,1.1,2.6,2.6v42.1
	C99.3,67.6,98.2,68.8,96.8,68.8z"/>
<path class="st1" d="M95.5,65.2H57c-0.3,0-0.6-0.2-0.6-0.6V25.5c0-0.3,0.2-0.6,0.6-0.6h38.5c0.3,0,0.6,0.2,0.6,0.6v39.3
	C96,65,95.8,65.2,95.5,65.2z"/>
<path class="st1" d="M96.3,67.6H56.2c-1,0-1.9-0.9-1.9-1.9v-41c0-1,0.9-1.9,1.9-1.9h40.1c1,0,1.9,0.9,1.9,1.9v40.9
	C98.2,66.8,97.3,67.6,96.3,67.6z M56.2,23.6c-0.6,0-1.1,0.5-1.1,1.1v40.9c0,0.6,0.5,1.1,1.1,1.1h40.1c0.6,0,1.1-0.5,1.1-1.1V24.7
	c0-0.6-0.5-1.1-1.1-1.1H56.2z"/>
<g>
	<path class="st2" d="M61.3,51.2l4.5-11.9H69l4.5,11.9h-3.1l-1-2.7h-3.9l-1,2.7H61.3z M65.8,46.4h3.1l-1.6-4.1L65.8,46.4z"/>
	<path class="st2" d="M75,51.2V39.4h5.9c1,0,1.7,0.2,2.3,0.6c0.6,0.4,1,0.9,1.4,1.5c0.3,0.6,0.5,1.4,0.5,2.2c0,0.8-0.2,1.5-0.5,2.2
		c-0.3,0.6-0.8,1.1-1.4,1.4c-0.6,0.3-1.4,0.6-2.3,0.6h-2.8v3.5L75,51.2L75,51.2z M78,45.5h2.2c0.6,0,1.1-0.2,1.4-0.5
		c0.3-0.3,0.5-0.8,0.5-1.4c0-0.6-0.2-1.1-0.4-1.4c-0.3-0.3-0.7-0.5-1.4-0.5h-2.3L78,45.5L78,45.5z"/>
	<path class="st2" d="M86.2,51.2V39.4h3v11.9L86.2,51.2L86.2,51.2z"/>
</g>
<circle class="st1" cx="53.2" cy="16.2" r="1.3"/>
<circle class="st1" cx="8.1" cy="15.8" r="1.3"/>
<circle class="st1" cx="21.5" cy="26.1" r="1.3"/>
<circle class="st1" cx="13.2" cy="25.7" r="1.3"/>
<circle class="st1" cx="35.5" cy="38" r="1.3"/>
<circle class="st1" cx="41.1" cy="44.6" r="1.3"/>
<circle class="st1" cx="10.2" cy="38" r="1.3"/>
<circle class="st1" cx="1.9" cy="45.4" r="1.3"/>
<circle class="st1" cx="13.3" cy="44.6" r="1.3"/>
<circle class="st1" cx="20.5" cy="48.2" r="1.3"/>
<circle class="st1" cx="28" cy="57.7" r="1.3"/>
<circle class="st1" cx="19.1" cy="63.6" r="1.3"/>
<circle class="st1" cx="8.1" cy="70.9" r="1.3"/>
<circle class="st1" cx="30.2" cy="71.8" r="1.3"/>
<circle class="st1" cx="53.7" cy="5.2" r="1.3"/>
<circle class="st1" cx="58" cy="2.1" r="1.3"/>
<circle class="st1" cx="69.7" cy="3.8" r="1.3"/>
<circle class="st1" cx="73.2" cy="1.3" r="1.3"/>
<circle class="st1" cx="76.5" cy="9.3" r="1.3"/>
<circle class="st1" cx="76.3" cy="1.5" r="1.3"/>
<circle class="st1" cx="82.1" cy="2.3" r="1.3"/>
<circle class="st1" cx="89" cy="2.9" r="1.3"/>
<circle class="st1" cx="82.9" cy="16.2" r="1.3"/>
<circle class="st1" cx="76.4" cy="17.5" r="1.3"/>
<circle class="st1" cx="95.1" cy="11.7" r="1.3"/>
<circle class="st1" cx="99.3" cy="5.2" r="1.3"/>
<circle class="st1" cx="111.6" cy="21.6" r="1.3"/>
<circle class="st1" cx="130.5" cy="23.5" r="1.3"/>
<circle class="st1" cx="126" cy="31.5" r="1.3"/>
<circle class="st1" cx="146.1" cy="31.8" r="1.3"/>
<circle class="st1" cx="137.4" cy="41.3" r="1.3"/>
<circle class="st1" cx="122.3" cy="43.6" r="1.3"/>
<circle class="st1" cx="119" cy="50.4" r="1.3"/>
<g>
	<circle class="st1" cx="109" cy="51" r="1.3"/>
</g>
<circle class="st1" cx="148.6" cy="51.5" r="1.3"/>
<circle class="st1" cx="141.7" cy="47.9" r="1.3"/>
<circle class="st1" cx="139.9" cy="57.2" r="1.3"/>
<circle class="st1" cx="133.7" cy="64.1" r="1.3"/>
<circle class="st1" cx="132.1" cy="71.5" r="1.3"/>
<circle class="st1" cx="97.8" cy="84" r="1.3"/>
<circle class="st1" cx="92" cy="88.2" r="1.3"/>
<circle class="st1" cx="85.9" cy="80.3" r="1.3"/>
<circle class="st1" cx="80.8" cy="85.5" r="1.3"/>
<circle class="st1" cx="76.3" cy="81.8" r="1.3"/>
<circle class="st1" cx="79.8" cy="74.7" r="1.3"/>
<circle class="st1" cx="73.2" cy="77" r="1.3"/>
<circle class="st1" cx="73.3" cy="87.3" r="1.3"/>
<circle class="st1" cx="63.1" cy="77.6" r="1.3"/>
<circle class="st1" cx="59.4" cy="73.8" r="1.3"/>
<circle class="st1" cx="56.3" cy="77.8" r="1.3"/>
</svg>
