<?xml version="1.0" encoding="UTF-8"?><svg id="_Слой_1" xmlns="http://www.w3.org/2000/svg" xmlns:xlink="http://www.w3.org/1999/xlink" viewBox="0 0 237 190.94"><defs><linearGradient id="linear-gradient" x1="44.05" y1="2.32" x2="85.67" y2="187.98" gradientUnits="userSpaceOnUse"><stop offset=".11" stop-color="#fff" stop-opacity="0"/><stop offset="1" stop-color="#54cdff" stop-opacity=".6"/></linearGradient><linearGradient id="linear-gradient-2" x1="80" y1="-.79" x2="122.27" y2="187.77" xlink:href="#linear-gradient"/><linearGradient id="linear-gradient-3" x1="114.52" y1="2.42" x2="157" y2="191.9" xlink:href="#linear-gradient"/><linearGradient id="linear-gradient-4" x1="159.35" y1=".74" x2="201.2" y2="187.44" xlink:href="#linear-gradient"/><linearGradient id="linear-gradient-5" x1="34.02" y1="138.44" x2="215.91" y2="380.96" gradientUnits="userSpaceOnUse"><stop offset=".11" stop-color="#fff"/><stop offset="1" stop-color="#000"/></linearGradient><linearGradient id="linear-gradient-6" x1="829.02" y1="138.44" x2="1010.91" y2="380.96" gradientTransform="translate(1032) rotate(-180) scale(1 -1)" xlink:href="#linear-gradient-5"/></defs><path d="m88,113.89c-10.59-8.11-16.67-20.39-16.67-33.72,0-3.84.51-7.65,1.52-11.31l.62.17c-1,3.61-1.5,7.36-1.5,11.14,0,13.12,5.98,25.22,16.42,33.2l-.39.51Z" style="fill:#3a3a3a;"/><path d="m145.11,108.76l-.48-.44c2.41-2.64,4.47-5.58,6.13-8.73l.57.3c-1.68,3.2-3.78,6.18-6.22,8.86Z" style="fill:#3a3a3a;"/><path d="m155.34,76.12c-.26-2.66-.77-5.3-1.53-7.85l.62-.18c.77,2.59,1.29,5.27,1.55,7.97l-.64.06Z" style="fill:#3a3a3a;"/><path d="m91.21,111.83c-.06,0-.12-.02-.17-.05-3.29-2.35-6.19-5.19-8.61-8.43-.1-.13-.07-.32.06-.42.13-.1.32-.07.42.06,2.38,3.19,5.24,5.98,8.48,8.3.13.09.16.28.07.41-.06.08-.15.12-.24.12Z" style="fill:#3a3a3a;"/><path d="m80.9,100.89c-.1,0-.2-.05-.25-.14-3.77-6-5.81-12.93-5.91-20.04,0-.14.09-.26.23-.29.13-.03.27.03.33.16.34.69,1.06,1.14,1.83,1.14.58,0,1.13-.25,1.52-.68.39-.44.57-1,.51-1.59-.1-.9-.82-1.66-1.72-1.79-.45-.07-.9,0-1.29.22-.29.16-.64.14-.91-.03-.27-.17-.41-.47-.39-.79.34-4.35,1.41-8.56,3.15-12.53.07-.15.24-.22.39-.15.15.07.22.24.15.39-1.72,3.91-2.76,8.06-3.1,12.34-.01.14.08.22.12.25.09.06.2.06.3,0,.51-.28,1.08-.38,1.66-.29,1.16.17,2.09,1.15,2.22,2.31.08.75-.16,1.5-.66,2.05-.5.56-1.22.88-1.96.88-.67,0-1.3-.26-1.78-.69.25,6.68,2.25,13.17,5.8,18.83.09.14.04.32-.09.41-.05.03-.1.05-.16.05Z" style="fill:#3a3a3a;"/><path d="m137.06,106.95h-.59s.05-1.85,2.34-2.39c.16-.04.33-.06.54-.06h2.77c.61,0,1.17-.28,1.55-.76,1.63-2.08,3.05-4.33,4.22-6.7l.53.26c-1.18,2.4-2.63,4.69-4.28,6.8-.49.63-1.23.99-2.02.99h-2.77c-.15,0-.28.01-.4.04-1.83.43-1.89,1.75-1.89,1.81Z" style="fill:#3a3a3a;"/><path d="m151.72,77.4c-.11-1.58-.32-3.17-.63-4.71l.58-.12c.31,1.57.53,3.18.64,4.79l-.59.04Z" style="fill:#3a3a3a;"/><path d="m158.12,102.16c-7.34,0-13.31-5.97-13.31-13.32s5.97-13.31,13.31-13.31,13.32,5.97,13.32,13.31-5.97,13.32-13.32,13.32Zm0-25.98c-6.99,0-12.67,5.68-12.67,12.67s5.68,12.67,12.67,12.67,12.67-5.68,12.67-12.67-5.68-12.67-12.67-12.67Z" style="fill:#3a3a3a;"/><path d="m158.12,100.14c-6.23,0-11.29-5.07-11.29-11.29s5.07-11.29,11.29-11.29,11.29,5.06,11.29,11.29-5.07,11.29-11.29,11.29Zm0-21.96c-5.88,0-10.67,4.78-10.67,10.67s4.79,10.67,10.67,10.67,10.67-4.78,10.67-10.67-4.78-10.67-10.67-10.67Z" style="fill:#3a3a3a;"/><path d="m138.96,130.42c-6.56,0-11.9-5.34-11.9-11.89s5.34-11.9,11.9-11.9,11.9,5.34,11.9,11.9-5.34,11.89-11.9,11.89Zm0-23.17c-6.21,0-11.27,5.06-11.27,11.27s5.06,11.27,11.27,11.27,11.27-5.06,11.27-11.27-5.05-11.27-11.27-11.27Z" style="fill:#3a3a3a;"/><path d="m124.81,66.6c-3.02-1.75-6.47-2.67-9.97-2.67-2.93,0-5.76.62-8.4,1.85l-.24-.52c2.72-1.26,5.62-1.9,8.64-1.9,3.61,0,7.16.95,10.26,2.75l-.29.49Z" style="fill:#3a3a3a;"/><path d="m114.84,104.41c-11.32,0-20.52-9.21-20.52-20.52,0-5.07,1.87-9.94,5.25-13.71l.42.38c-3.29,3.66-5.1,8.4-5.1,13.33,0,11,8.95,19.95,19.95,19.95s19.95-8.95,19.95-19.95c0-3.32-.83-6.61-2.41-9.51l.5-.27c1.62,2.98,2.48,6.37,2.48,9.78,0,11.32-9.21,20.52-20.52,20.52Z" style="fill:#3a3a3a;"/><path d="m123.15,67.35c-2.59-1.31-5.39-1.97-8.31-1.97-2.32,0-4.59.43-6.73,1.26l-.24-.6c2.22-.87,4.57-1.31,6.97-1.31,3.03,0,5.92.69,8.6,2.04l-.29.58Z" style="fill:#3a3a3a;"/><path d="m114.84,103.03c-10.56,0-19.15-8.59-19.15-19.15,0-4.78,1.77-9.37,5-12.9l.48.43c-3.11,3.41-4.83,7.84-4.83,12.46,0,10.2,8.3,18.5,18.5,18.5s18.5-8.3,18.5-18.5c0-2.76-.59-5.42-1.76-7.89l.58-.28c1.21,2.56,1.82,5.31,1.82,8.17,0,10.56-8.59,19.15-19.15,19.15Z" style="fill:#3a3a3a;"/><path d="m122.12,67.8c-2.29-1.04-4.74-1.57-7.28-1.57-1.93,0-3.82.31-5.63.92l-.2-.58c1.87-.63,3.83-.95,5.83-.95,2.63,0,5.16.55,7.54,1.62l-.25.56Z" style="fill:#3a3a3a;"/><path d="m114.84,102.15c-10.07,0-18.26-8.19-18.26-18.26,0-4.64,1.74-9.07,4.91-12.46l.45.42c-3.06,3.28-4.75,7.55-4.75,12.04,0,9.73,7.92,17.65,17.65,17.65s17.65-7.92,17.65-17.65c0-3.04-.78-6.03-2.26-8.66l.54-.3c1.53,2.72,2.35,5.82,2.35,8.96,0,10.07-8.19,18.26-18.26,18.26Z" style="fill:#3a3a3a;"/><path d="m158.12,92.35c-1.93,0-3.5-1.57-3.5-3.5s1.57-3.5,3.5-3.5,3.5,1.57,3.5,3.5-1.57,3.5-3.5,3.5Zm0-6.38c-1.59,0-2.88,1.29-2.88,2.88s1.29,2.88,2.88,2.88,2.88-1.29,2.88-2.88-1.29-2.88-2.88-2.88Z" style="fill:#3a3a3a;"/><path d="m166.41,90.33c-.81,0-1.48-.66-1.48-1.48s.66-1.48,1.48-1.48,1.48.66,1.48,1.48-.66,1.48-1.48,1.48Zm0-2.34c-.48,0-.86.39-.86.86s.39.86.86.86.86-.39.86-.86-.39-.86-.86-.86Z" style="fill:#3a3a3a;"/><path d="m77.13,81.14c-.82,0-1.48-.66-1.48-1.48s.66-1.48,1.48-1.48,1.48.66,1.48,1.48-.66,1.48-1.48,1.48Zm0-2.34c-.48,0-.86.39-.86.86s.39.86.86.86.86-.39.86-.86-.39-.86-.86-.86Z" style="fill:#3a3a3a;"/><path d="m83.24,102.38c-.82,0-1.48-.66-1.48-1.48s.66-1.48,1.48-1.48,1.48.66,1.48,1.48-.66,1.48-1.48,1.48Zm0-2.34c-.48,0-.86.39-.86.86s.39.86.86.86.86-.39.86-.86-.39-.86-.86-.86Z" style="fill:#3a3a3a;"/><path d="m154.09,97.76c-.81,0-1.48-.66-1.48-1.48s.66-1.48,1.48-1.48,1.48.66,1.48,1.48-.66,1.48-1.48,1.48Zm0-2.34c-.47,0-.86.39-.86.86s.39.86.86.86.86-.39.86-.86-.39-.86-.86-.86Z" style="fill:#3a3a3a;"/><path d="m154.09,83.25c-.82,0-1.48-.66-1.48-1.48s.66-1.48,1.48-1.48,1.48.66,1.48,1.48-.66,1.48-1.48,1.48Zm0-2.34c-.48,0-.86.39-.86.86s.39.86.86.86.86-.39.86-.86-.39-.86-.86-.86Z" style="fill:#3a3a3a;"/><path d="m158.12,91.37c-1.39,0-2.53-1.13-2.53-2.53s1.13-2.52,2.53-2.52,2.53,1.13,2.53,2.52-1.13,2.53-2.53,2.53Zm0-4.43c-1.05,0-1.91.86-1.91,1.91s.86,1.91,1.91,1.91,1.91-.86,1.91-1.91-.86-1.91-1.91-1.91Z" style="fill:#3a3a3a;"/><path d="m104.43,87.02c-1.53,0-2.77-1.24-2.77-2.77s1.24-2.77,2.77-2.77,2.77,1.24,2.77,2.77-1.24,2.77-2.77,2.77Zm0-4.93c-1.19,0-2.16.97-2.16,2.16s.97,2.15,2.16,2.15,2.15-.97,2.15-2.15-.97-2.16-2.15-2.16Z" style="fill:#3a3a3a;"/><path d="m106.89,79.85c-1.53,0-2.77-1.24-2.77-2.77,0-.74.29-1.44.81-1.96l.44.44c-.41.41-.63.95-.63,1.52,0,1.19.97,2.15,2.15,2.15.38,0,.76-.1,1.09-.29l.31.53c-.42.25-.91.38-1.4.38Z" style="fill:#3a3a3a;"/><path d="m114.18,97.07c-1.53,0-2.77-1.24-2.77-2.77s1.24-2.77,2.77-2.77,2.77,1.24,2.77,2.77-1.24,2.77-2.77,2.77Zm0-4.93c-1.19,0-2.15.97-2.15,2.16s.97,2.15,2.15,2.15,2.16-.97,2.16-2.15-.97-2.16-2.16-2.16Z" style="fill:#3a3a3a;"/><path d="m121.72,94.38c-1.53,0-2.77-1.24-2.77-2.77s1.24-2.77,2.77-2.77,2.77,1.24,2.77,2.77-1.24,2.77-2.77,2.77Zm0-4.93c-1.19,0-2.15.97-2.15,2.15s.97,2.16,2.15,2.16,2.16-.97,2.16-2.16-.97-2.15-2.16-2.15Z" style="fill:#3a3a3a;"/><path d="m107.34,93.92c-1.53,0-2.77-1.24-2.77-2.77s1.24-2.77,2.77-2.77,2.77,1.24,2.77,2.77-1.24,2.77-2.77,2.77Zm0-4.93c-1.19,0-2.16.97-2.16,2.16s.97,2.15,2.16,2.15,2.16-.97,2.16-2.15-.97-2.16-2.16-2.16Z" style="fill:#3a3a3a;"/><path d="m92.09,126.07c-.81,0-1.48-.66-1.48-1.48s.66-1.48,1.48-1.48,1.48.66,1.48,1.48-.66,1.48-1.48,1.48Zm0-2.34c-.48,0-.86.39-.86.86s.39.86.86.86.86-.39.86-.86-.39-.86-.86-.86Z" style="fill:#3a3a3a;"/><path d="m83.24,103.55c-.22,0-.43-.03-.64-.08l.15-.6c.16.04.33.06.49.06,1.12,0,2.03-.91,2.03-2.03s-.91-2.03-2.03-2.03c-1.01,0-1.88.75-2.01,1.76l-.61-.08c.18-1.31,1.31-2.29,2.62-2.29,1.46,0,2.65,1.19,2.65,2.65s-1.19,2.65-2.65,2.65Z" style="fill:#3a3a3a;"/><path d="m141.37,133.2h-47.56c-.77,0-1.49-.3-2.03-.84-.54-.54-.84-1.27-.84-2.03v-3.38c-.9-.44-1.47-1.34-1.47-2.36s.57-1.92,1.47-2.36v-12.7c0-1.59,1.29-2.88,2.88-2.88h45.15v.56h-45.15c-1.28,0-2.31,1.04-2.31,2.31v13.08l-.18.07c-.79.31-1.29,1.06-1.29,1.91s.51,1.6,1.29,1.91l.17.07v.19s0,2.24,0,3.56c0,.62.24,1.2.68,1.64.44.44,1.02.68,1.64.68h47.56c1.28,0,2.31-1.04,2.31-2.31v-1.36h.56v1.36c0,1.59-1.29,2.88-2.87,2.88Z" style="fill:#3a3a3a;"/><path d="m139.56,131.36h-43.79c-1.01,0-1.83-.82-1.83-1.83v-4.12l.02-.06c.1-.23.15-.49.15-.75s-.05-.52-.15-.76l-.02-.06v-.09s0-12.65,0-12.65c0-1.01.82-1.83,1.83-1.83h35.9v.63h-35.9c-.66,0-1.2.54-1.2,1.2v12.62c.11.29.17.62.17.95s-.06.64-.17.94v4c0,.66.54,1.2,1.2,1.2h43.79c.54,0,1.02-.37,1.16-.89l.6.16c-.21.8-.94,1.36-1.77,1.36Z" style="fill:#3a3a3a;"/><path d="m119.91,125.27h-6.99c-1.76,0-3.2-1.44-3.2-3.2v-6.33h13.38v6.33c0,1.76-1.43,3.2-3.2,3.2Zm-9.63-8.98v5.78c0,1.46,1.19,2.65,2.65,2.65h6.99c1.46,0,2.65-1.19,2.65-2.65v-5.78h-12.28Z" style="fill:#3a3a3a;"/><path d="m119.98,128.03h-6.5v-3.31h6.5v3.31Zm-5.95-.55h5.4v-2.21h-5.4v2.21Z" style="fill:#3a3a3a;"/><path d="m120.39,86.49c-3.93,0-7.13-3.2-7.13-7.13s3.2-7.13,7.13-7.13,7.13,3.2,7.13,7.13-3.2,7.13-7.13,7.13Zm0-13.66c-3.6,0-6.53,2.93-6.53,6.53s2.93,6.53,6.53,6.53,6.53-2.93,6.53-6.53-2.93-6.53-6.53-6.53Z" style="fill:#3a3a3a;"/><path d="m120.39,87.76c-4.63,0-8.4-3.77-8.4-8.4s3.77-8.4,8.4-8.4,8.4,3.77,8.4,8.4-3.77,8.4-8.4,8.4Zm0-16.1c-4.24,0-7.7,3.45-7.7,7.7,0,4.24,3.45,7.7,7.7,7.7s7.7-3.45,7.7-7.7-3.45-7.7-7.7-7.7Z" style="fill:#3a3a3a;"/><path d="m120.39,82c-1.53,0-2.78-1.25-2.78-2.78s1.25-2.78,2.78-2.78,2.78,1.25,2.78,2.78-1.25,2.78-2.78,2.78Zm0-4.85c-1.14,0-2.07.93-2.07,2.07s.93,2.07,2.07,2.07,2.07-.93,2.07-2.07-.93-2.07-2.07-2.07Z" style="fill:#3a3a3a;"/><path d="m120.39,83.23c-2.26,0-4.11-1.84-4.11-4.11s1.84-4.11,4.11-4.11,4.11,1.84,4.11,4.11-1.84,4.11-4.11,4.11Zm0-7.59c-1.92,0-3.48,1.56-3.48,3.48s1.56,3.48,3.48,3.48,3.48-1.56,3.48-3.48-1.56-3.48-3.48-3.48Z" style="fill:#3a3a3a;"/><path d="m120.27,90.71c-6.27,0-11.37-5.1-11.37-11.37s5.1-11.37,11.37-11.37,11.37,5.1,11.37,11.37-5.1,11.37-11.37,11.37Zm0-22.14c-5.94,0-10.77,4.83-10.77,10.77s4.83,10.77,10.77,10.77,10.77-4.83,10.77-10.77-4.83-10.77-10.77-10.77Z" style="fill:#3a3a3a;"/><path d="m114.84,94.59c-5.9,0-10.71-4.8-10.71-10.71,0-2.49.87-4.91,2.46-6.83l.46.38c-1.5,1.81-2.32,4.1-2.32,6.45,0,5.57,4.54,10.11,10.11,10.11,3.23,0,6.29-1.56,8.18-4.17l.48.35c-2.01,2.77-5.25,4.42-8.67,4.42Z" style="fill:#3a3a3a;"/><path d="m114.67,97.94c-7.8,0-14.14-6.34-14.14-14.14,0-3.45,1.26-6.78,3.54-9.36l.59.52c-2.16,2.44-3.35,5.58-3.35,8.84,0,7.36,5.99,13.35,13.35,13.35,6.07,0,11.39-4.1,12.92-9.97l.76.2c-1.62,6.22-7.25,10.56-13.68,10.56Z" style="fill:#3a3a3a;"/><path d="m96.06,102.89l-.21-.21,8.35-8.35.21.21-8.35,8.35Zm10.44-10.44l-.21-.21,8.35-8.35.21.21-8.35,8.35Zm10.44-10.44l-.21-.21,8.35-8.35.21.21-8.35,8.35Zm10.44-10.44l-.21-.21,1.68-1.68.21.21-1.68,1.68Z" style="fill:#3a3a3a;"/><path d="m132.3,102.53l-8.27-8.27.21-.21,8.27,8.27-.21.21Zm-10.34-10.34l-8.27-8.27.21-.21,8.27,8.27-.21.21Zm-10.34-10.34l-8.27-8.27.21-.21,8.27,8.27-.21.21Zm-10.34-10.34l-1.34-1.34.21-.21,1.34,1.34-.21.21Z" style="fill:#3a3a3a;"/><path d="m140.4,84.4h-12.52v-.31h12.52v.31Zm-15.65,0h-12.52v-.31h12.52v.31Zm-15.65,0h-12.52v-.31h12.52v.31Zm-15.65,0h-5.48v-.31h5.48v.31Z" style="fill:#3a3a3a;"/><path d="m114.33,110.46h-.3v-6.1h.3v6.1Zm0-9.05h-.3v-11.81h.3v11.81Zm0-14.77h-.3v-11.81h.3v11.81Zm0-14.77h-.3v-11.81h.3v11.81Zm0-14.77h-.29v-11.81h.29v11.81Zm0-14.77h-.29v-11.81h.29v11.81Zm0-14.77h-.29v-11.81h.29v11.81Z" style="fill:#3a3a3a;"/><path d="m138.96,124.9c-3.43,0-6.22-2.79-6.22-6.22s2.79-6.22,6.22-6.22,6.22,2.79,6.22,6.22-2.79,6.22-6.22,6.22Zm0-11.83c-3.09,0-5.61,2.51-5.61,5.61s2.52,5.61,5.61,5.61,5.61-2.51,5.61-5.61-2.51-5.61-5.61-5.61Z" style="fill:#3a3a3a;"/><path d="m138.98,126.65c-4.34,0-7.87-3.53-7.87-7.87s3.53-7.87,7.87-7.87,7.87,3.53,7.87,7.87-3.53,7.87-7.87,7.87Zm0-15.07c-3.97,0-7.2,3.23-7.2,7.2s3.23,7.2,7.2,7.2,7.2-3.23,7.2-7.2-3.23-7.2-7.2-7.2Z" style="fill:#3a3a3a;"/><polygon points="82.61 116.81 73.68 116.81 73.68 113.35 91.54 113.35 91.54 116.49 90.89 116.49 90.89 113.99 74.32 113.99 74.32 116.17 82.61 116.17 82.61 116.81" style="fill:#3a3a3a;"/><path d="m79.42,122.93h-5.74v-3.54h5.02c.42,0,.81-.16,1.11-.46l5.04-5.05c.36-.37.85-.56,1.36-.56h5.32v3.48l-4.6.05c-.34,0-.66.14-.9.38l-5.05,5.05c-.42.42-.97.65-1.56.65Zm-5.11-.64h5.11c.42,0,.81-.16,1.11-.46l5.06-5.05c.36-.36.83-.56,1.34-.56l3.97-.04v-2.22h-4.69c-.34,0-.67.13-.91.38l-5.04,5.05c-.42.42-.97.64-1.56.64h-4.38v2.27Z" style="fill:#3a3a3a;"/><path d="m74.32,117.91h-2.99v-5.46h2.99v5.46Zm-2.35-.64h1.7v-4.18h-1.7v4.18Z" style="fill:#3a3a3a;"/><path d="m74.32,123.85h-2.99v-5.46h2.99v5.46Zm-2.35-.64h1.7v-4.17h-1.7v4.17Z" style="fill:#3a3a3a;"/><path d="m124.07,116.34h-15.71v-2.68h15.71v2.68Zm-15.06-.65h14.42v-1.39h-14.42v1.39Z" style="fill:#3a3a3a;"/><path d="m121.51,114.25h-10.58v-5.02h10.58v5.02Zm-10-.58h9.41v-3.85h-9.41v3.85Z" style="fill:#3a3a3a;"/><path d="m101.1,135.59h-5.47v-2.99h5.47v2.99Zm-4.82-.65h4.18v-1.7h-4.18v1.7Z" style="fill:#3a3a3a;"/><path d="m99.85,136.94h-2.83v-4.27h2.83v4.27Zm-2.16-.67h1.49v-2.93h-1.49v2.93Z" style="fill:#3a3a3a;"/><path d="m110.68,135.6h-5.47v-2.99h5.47v2.99Zm-4.82-.64h4.17v-1.7h-4.17v1.7Z" style="fill:#3a3a3a;"/><path d="m109.43,136.95h-2.83v-4.27h2.83v4.27Zm-2.16-.67h1.49v-2.93h-1.49v2.93Z" style="fill:#3a3a3a;"/><path d="m120.27,135.61h-5.46v-2.99h5.46v2.99Zm-4.82-.64h4.18v-1.7h-4.18v1.7Z" style="fill:#3a3a3a;"/><path d="m119.01,136.96h-2.83v-4.27h2.83v4.27Zm-2.16-.67h1.49v-2.93h-1.49v2.93Z" style="fill:#3a3a3a;"/><path d="m129.85,135.62h-5.46v-2.99h5.46v2.99Zm-4.82-.65h4.18v-1.7h-4.18v1.7Z" style="fill:#3a3a3a;"/><path d="m128.59,136.97h-2.83v-4.27h2.83v4.27Zm-2.16-.67h1.49v-2.93h-1.49v2.93Z" style="fill:#3a3a3a;"/><path d="m139.43,135.63h-5.47v-2.99h5.47v2.99Zm-4.82-.65h4.17v-1.7h-4.17v1.7Z" style="fill:#3a3a3a;"/><path d="m138.17,136.98h-2.83v-4.27h2.83v4.27Zm-2.16-.67h1.49v-2.93h-1.49v2.93Z" style="fill:#3a3a3a;"/><path d="m149.16,108.46l-2.44-1.73,3.16-4.46,2.44,1.73-3.16,4.46Zm-1.54-1.89l1.39.99,2.42-3.4-1.39-.99-2.42,3.4Z" style="fill:#3a3a3a;"/><path d="m151.06,108.11l-3.48-2.47,1.64-2.3,3.48,2.47-1.64,2.3Zm-2.55-2.63l2.39,1.7.86-1.21-2.39-1.7-.86,1.21Z" style="fill:#3a3a3a;"/><path d="m113.81,36.63h-5.46v-2.99h5.46v2.99Zm-4.82-.65h4.17v-1.7h-4.17v1.7Z" style="fill:#3a3a3a;"/><path d="m112.55,37.98h-2.83v-4.27h2.83v4.27Zm-2.16-.67h1.49v-2.93h-1.49v2.93Z" style="fill:#3a3a3a;"/><path d="m186.19,35.8l-3.96-3.74,2.04-2.16,3.96,3.74-2.04,2.16Zm-3.08-3.76l3.05,2.88,1.18-1.25-3.05-2.88-1.18,1.25Z" style="fill:#3a3a3a;"/><path d="m185.23,34.78l-2.02-1.91,2.9-3.08,2.03,1.91-2.9,3.08Zm-1.14-1.94l1.11,1.05,2.04-2.16-1.11-1.05-2.04,2.16Z" style="fill:#3a3a3a;"/><polygon points="137.94 73.63 134.71 70.39 135.15 69.95 137.94 72.74 167.1 43.59 154.56 31.05 125.41 60.21 129.02 63.82 128.58 64.26 124.52 60.21 154.56 30.17 167.98 43.59 137.94 73.63" style="fill:#3a3a3a;"/><polygon points="147.8 63.77 147.36 63.33 166.69 44 154.16 31.46 134.82 50.79 134.38 50.35 154.16 30.58 167.58 44 147.8 63.77" style="fill:#3a3a3a;"/><path d="m163.94,47.63l-13.42-13.42,1.26-1.26,13.42,13.42-1.26,1.26Zm-12.53-13.42l12.53,12.53.37-.38-12.53-12.53-.37.38Z" style="fill:#3a3a3a;"/><path d="m162.14,49.43l-13.42-13.42,1.26-1.26,13.42,13.42-1.26,1.26Zm-12.53-13.42l12.53,12.53.37-.38-12.53-12.53-.37.38Z" style="fill:#3a3a3a;"/><path d="m160.32,51.25l-13.42-13.42,1.26-1.26,13.42,13.42-1.26,1.26Zm-12.53-13.42l12.53,12.53.37-.38-12.53-12.53-.37.38Z" style="fill:#3a3a3a;"/><path d="m150.68,60.72l-13.42-13.42,1.26-1.26,13.42,13.42-1.26,1.26Zm-12.53-13.42l12.53,12.53.38-.38-12.53-12.53-.38.38Z" style="fill:#3a3a3a;"/><polygon points="139.69 75.38 134.71 70.39 135.15 69.95 139.69 74.49 173.27 40.92 157.1 24.75 123.53 58.33 129.02 63.82 128.58 64.26 122.64 58.33 157.1 23.87 174.15 40.92 139.69 75.38" style="fill:#3a3a3a;"/><path d="m178.05,48.81l-28.6-28.6,10.67-10.67,28.6,28.6-10.67,10.67Zm-27.71-28.6l27.71,27.71,9.78-9.79-27.71-27.71-9.78,9.79Z" style="fill:#3a3a3a;"/><path d="m181.07,31.38l-21.4-21.4,2.06-2.06,21.4,21.4-2.06,2.06Zm-20.51-21.4l20.51,20.51,1.18-1.18-20.51-20.51-1.18,1.18Z" style="fill:#3a3a3a;"/><path d="m181.06,28.12l-18.08-18.08,5.74-5.74c.51-.51,1.19-.8,1.92-.8s1.41.28,1.92.8l14.24,14.24c.51.51.79,1.2.79,1.92s-.28,1.41-.79,1.92l-5.74,5.74Zm-17.19-18.08l17.19,17.19,5.3-5.3c.39-.39.61-.92.61-1.48s-.22-1.08-.61-1.48l-14.24-14.24c-.39-.4-.92-.61-1.48-.61s-1.08.22-1.48.61l-5.3,5.3Z" style="fill:#3a3a3a;"/><path d="m183.03,15.67l-7.07-7.07,2.98-2.98,7.07,7.07-2.98,2.98Zm-6.18-7.07l6.18,6.18,2.09-2.09-6.18-6.18-2.09,2.09Z" style="fill:#3a3a3a;"/><path d="m186.06,11.66l-6.17-6.17,2.16-2.16,6.17,6.17-2.16,2.16Zm-5.29-6.17l5.29,5.28,1.28-1.28-5.29-5.28-1.28,1.28Z" style="fill:#3a3a3a;"/><path d="m184.58,12.14l-5.01-5.01,1.42-1.42,5.01,5.01-1.42,1.43Zm-4.12-5.01l4.12,4.12.54-.54-4.12-4.12-.54.54Z" style="fill:#3a3a3a;"/><path d="m184.28,9.88l-2.67-2.67,2.16-2.16,2.67,2.67-2.16,2.16Zm-1.78-2.67l1.78,1.78,1.28-1.28-1.78-1.78-1.28,1.28Z" style="fill:#3a3a3a;"/><path d="m149.5,32.17l-4.99-4.98,2.16-2.16,4.99,4.99-2.16,2.16Zm-4.1-4.98l4.1,4.1,1.28-1.28-4.1-4.1-1.28,1.28Z" style="fill:#3a3a3a;"/><path d="m146.32,35.35l-4.99-4.99,2.16-2.16,4.98,4.98-2.16,2.16Zm-4.1-4.99l4.1,4.1,1.28-1.28-4.1-4.1-1.28,1.28Z" style="fill:#3a3a3a;"/><path d="m143.14,38.53l-4.99-4.98,2.16-2.16,4.99,4.99-2.16,2.16Zm-4.1-4.98l4.1,4.1,1.28-1.28-4.1-4.1-1.28,1.28Z" style="fill:#3a3a3a;"/><path d="m139.96,41.72l-4.99-4.99,2.16-2.16,4.99,4.99-2.16,2.16Zm-4.1-4.99l4.1,4.1,1.28-1.28-4.1-4.1-1.28,1.28Z" style="fill:#3a3a3a;"/><path d="m136.77,44.9l-4.98-4.99,2.16-2.16,4.99,4.99-2.16,2.16Zm-4.1-4.99l4.1,4.1,1.28-1.28-4.1-4.1-1.28,1.28Z" style="fill:#3a3a3a;"/><path d="m133.59,48.08l-4.99-4.99,2.16-2.16,4.99,4.98-2.16,2.16Zm-4.1-4.99l4.1,4.1,1.28-1.28-4.1-4.1-1.28,1.28Z" style="fill:#3a3a3a;"/><path d="m170.97,53.63l-4.99-4.99,2.16-2.16,4.99,4.99-2.16,2.16Zm-4.1-4.99l4.1,4.1,1.28-1.28-4.1-4.1-1.28,1.28Z" style="fill:#3a3a3a;"/><path d="m167.78,56.81l-4.99-4.99,2.16-2.16,4.98,4.98-2.16,2.16Zm-4.1-4.99l4.1,4.1,1.28-1.28-4.1-4.1-1.28,1.28Z" style="fill:#3a3a3a;"/><path d="m164.6,60l-4.98-4.98,2.16-2.16,4.99,4.99-2.16,2.16Zm-4.1-4.98l4.1,4.1,1.28-1.28-4.1-4.1-1.27,1.28Z" style="fill:#3a3a3a;"/><path d="m161.42,63.18l-4.99-4.99,2.16-2.16,4.99,4.98-2.16,2.16Zm-4.1-4.99l4.1,4.1,1.28-1.28-4.1-4.1-1.28,1.28Z" style="fill:#3a3a3a;"/><path d="m158.24,66.36l-4.99-4.98,2.16-2.16,4.99,4.99-2.16,2.16Zm-4.1-4.98l4.1,4.1,1.28-1.28-4.1-4.1-1.28,1.28Z" style="fill:#3a3a3a;"/><path d="m155.05,69.54l-4.98-4.99,2.16-2.16,4.99,4.99-2.16,2.16Zm-4.1-4.99l4.1,4.1,1.28-1.28-4.1-4.1-1.28,1.28Z" style="fill:#3a3a3a;"/><path d="m176.98,49.87l-28.6-28.6,1.51-1.51,28.6,28.6-1.51,1.51Zm-27.71-28.6l27.71,27.71.62-.62-27.71-27.71-.62.62Z" style="fill:#3a3a3a;"/><rect x="172.62" y="43.14" width=".63" height="8.9" transform="translate(58.04 185.31) rotate(-65.55)" style="fill:#3a3a3a;"/><rect x="150.29" y="20.9" width=".63" height="8.52" transform="translate(3.09 64.59) rotate(-24.45)" style="fill:#3a3a3a;"/><path d="m149.76,53.45c-1.13,0-2.26-.43-3.13-1.29-1.72-1.72-1.72-4.53,0-6.25s4.53-1.72,6.25,0c.83.83,1.29,1.94,1.29,3.12s-.46,2.29-1.29,3.13h0c-.86.86-1.99,1.29-3.13,1.29Zm0-8.21c-.97,0-1.94.37-2.68,1.11-1.48,1.48-1.48,3.89,0,5.37,1.48,1.48,3.89,1.48,5.37,0h0c.72-.72,1.11-1.67,1.11-2.68s-.39-1.97-1.11-2.68c-.74-.74-1.71-1.11-2.68-1.11Z" style="fill:#3a3a3a;"/><path d="m149.72,51.9c-.74,0-1.49-.28-2.05-.85-1.13-1.13-1.13-2.97,0-4.1,1.13-1.13,2.97-1.13,4.1,0,1.13,1.13,1.13,2.97,0,4.1h0c-.57.56-1.31.85-2.05.85Zm0-5.18c-.58,0-1.17.22-1.61.67-.89.89-.89,2.33,0,3.22.89.89,2.33.89,3.22,0,.89-.89.89-2.33,0-3.22-.44-.44-1.03-.67-1.61-.67Z" style="fill:#3a3a3a;"/><path d="m149.76,50.61c-.4,0-.81-.15-1.12-.46-.3-.3-.46-.7-.46-1.12s.16-.82.46-1.12c.62-.62,1.62-.62,2.23,0,.3.3.46.69.46,1.12s-.16.82-.46,1.12c-.31.31-.71.46-1.12.46Zm0-2.53c-.24,0-.49.09-.67.28-.18.18-.28.42-.28.67s.1.49.28.67c.37.37.98.37,1.35,0,.18-.18.28-.42.28-.67s-.1-.49-.28-.67c-.18-.19-.43-.28-.67-.28Z" style="fill:#3a3a3a;"/><path d="m157.83,34.32l-1.25-1.25,3.31-3.31,1.25,1.25-3.31,3.31Zm-.37-1.25l.37.37,2.42-2.42-.37-.37-2.42,2.42Z" style="fill:#3a3a3a;"/><path d="m163.65,40.13l-2.36-2.36,3.31-3.31,2.36,2.36-3.31,3.31Zm-1.47-2.36l1.47,1.47,2.42-2.42-1.47-1.47-2.42,2.42Z" style="fill:#3a3a3a;"/><path d="m133.59,48.08l-3.91-3.91,20.46-20.46,3.91,3.91-20.46,20.46Zm-3.02-3.91l3.02,3.02,19.58-19.58-3.02-3.02-19.58,19.58Z" style="fill:#3a3a3a;"/><path d="m153.75,68.24l-3.91-3.91,20.46-20.46,3.91,3.91-20.46,20.46Zm-3.02-3.91l3.02,3.02,19.58-19.58-3.02-3.02-19.58,19.58Z" style="fill:#3a3a3a;"/><path d="m150.98,17.75l-1.67-1.68,5.94-5.94,1.68,1.68-5.94,5.94Zm-.79-1.68l.79.79,5.06-5.06-.79-.79-5.06,5.06Z" style="fill:#3a3a3a;"/><path d="m152.36,18.19l-1.35-1.35,5.08-5.08,1.35,1.35-5.08,5.08Zm-.47-1.35l.47.46,4.2-4.2-.47-.46-4.2,4.2Z" style="fill:#3a3a3a;"/><path d="m150.74,15.52l-2.22-2.22,4-4,2.22,2.22-4,4Zm-1.34-2.22l1.34,1.34,3.12-3.12-1.34-1.34-3.12,3.12Z" style="fill:#3a3a3a;"/><path d="m149.42,13.28l-.95-.95,3.03-3.03.95.95-3.03,3.03Zm-.07-.95l.07.07,2.14-2.14-.07-.07-2.14,2.14Z" style="fill:#3a3a3a;"/><path d="m148.49,12.99l-2.73-2.73,3.73-3.73,2.73,2.73-3.73,3.73Zm-1.85-2.73l1.85,1.85,2.84-2.85-1.85-1.85-2.85,2.85Z" style="fill:#3a3a3a;"/><path d="m145.4,11.51l-2.14-2.15,5.49-5.49,2.15,2.15-5.49,5.49Zm-1.26-2.15l1.26,1.26,4.61-4.61-1.26-1.26-4.61,4.61Z" style="fill:#3a3a3a;"/><path d="m144.5,9l-2.01-2.01,3.73-3.73,2.01,2.01-3.73,3.73Zm-1.12-2.01l1.12,1.12,2.85-2.84-1.12-1.12-2.84,2.85Z" style="fill:#3a3a3a;"/><path d="m143.26,7.11l-1.5-1.5,3.03-3.03,1.5,1.5-3.03,3.03Zm-.62-1.5l.62.61,2.14-2.14-.61-.61-2.14,2.14Z" style="fill:#3a3a3a;"/><path d="m142.39,5.6l-.95-.95,2.17-2.16.95.95-2.16,2.17Zm-.07-.95l.07.07,1.28-1.28-.07-.07-1.28,1.28Z" style="fill:#3a3a3a;"/><path d="m141.48,5.33l-2.44-2.44,2.8-2.8,2.44,2.44-2.8,2.8Zm-1.55-2.44l1.55,1.55,1.92-1.92-1.55-1.55-1.92,1.92Z" style="fill:#3a3a3a;"/><path d="m141.09,4.94l-2.05-2.05,2.02-2.02,2.05,2.05-2.02,2.02Zm-1.16-2.05l1.16,1.16,1.13-1.13-1.16-1.16-1.13,1.13Z" style="fill:#3a3a3a;"/><polygon points="142.95 6.36 142.51 5.92 145.09 3.34 145.54 3.78 142.95 6.36" style="fill:#3a3a3a;"/><rect x="143.13" y="7" width="7.14" height=".63" transform="translate(37.8 105.87) rotate(-45)" style="fill:#3a3a3a;"/><path d="m146.95,9.96l-2.14-2.15,2.48-2.48,2.14,2.14-2.48,2.48Zm-1.26-2.15l1.26,1.26,1.59-1.59-1.26-1.26-1.59,1.59Z" style="fill:#3a3a3a;"/><polygon points="130.17 68.72 129.95 68.5 192.92 5.96 193.07 6.11 192.96 6.22 193.03 6.3 130.17 68.72" style="fill:#3a3a3a;"/><polygon points="149.81 24.8 145.58 24.8 145.58 17.43 152.12 17.43 152.12 18.05 146.2 18.05 146.2 24.18 149.81 24.18 149.81 24.8" style="fill:#3a3a3a;"/><path d="m121.59,38.23l-.55-.31c1.83-3.26,9.04-13.95,24.64-14.46l.02.63c-15.28.5-22.32,10.95-24.12,14.14Z" style="fill:#3a3a3a;"/><path d="m115.82,38.06l-.6-.19c1.89-5.91,6.57-11.27,13.18-15.11,5.87-3.4,12.58-5.08,17.53-4.38l-.09.62c-9.22-1.31-25.89,6.12-30.03,19.06Z" style="fill:#3a3a3a;"/><path d="m117.62,38.2l-.58-.24c2.21-5.23,6.71-9.99,12.67-13.41,5.37-3.08,11.43-4.73,16.2-4.42l-.04.62c-9.59-.63-23.7,6.7-28.25,17.45Z" style="fill:#3a3a3a;"/><path d="m119.2,38.21l-.56-.27c5.31-10.98,18.04-16.9,27.28-16.29l-.04.62c-9.04-.6-21.48,5.21-26.67,15.94Z" style="fill:#3a3a3a;"/><rect x="143.63" y="21.91" width=".63" height="1.97" transform="translate(-.29 1.93) rotate(-.77)" style="fill:#3a3a3a;"/><rect x="143.58" y="18.54" width=".63" height="1.67" transform="translate(-.25 1.93) rotate(-.77)" style="fill:#3a3a3a;"/><rect x="142.41" y="22" width=".63" height="2.01" transform="translate(-.32 2.08) rotate(-.84)" style="fill:#3a3a3a;"/><rect x="142.35" y="18.56" width=".63" height="1.84" transform="translate(-.26 2.05) rotate(-.82)" style="fill:#3a3a3a;"/><rect x="145.88" y="69.05" width=".63" height="3.59" transform="translate(15.9 167.87) rotate(-62.53)" style="fill:#3a3a3a;"/><rect x="149.2" y="65.62" width=".63" height="2.52" transform="translate(-3.53 125.23) rotate(-44.97)" style="fill:#3a3a3a;"/><path d="m42.15,35.71l-2.04-2.16,3.96-3.74,2.04,2.16-3.96,3.74Zm-1.16-2.14l1.18,1.25,3.05-2.88-1.18-1.25-3.05,2.88Z" style="fill:#3a3a3a;"/><path d="m43.11,34.69l-2.9-3.08,2.03-1.91,2.9,3.08-2.02,1.91Zm-2.01-3.05l2.04,2.16,1.11-1.05-2.04-2.16-1.11,1.05Z" style="fill:#3a3a3a;"/><polygon points="90.4 73.53 60.36 43.49 73.78 30.07 103.82 60.12 101.44 62.49 101 62.05 102.93 60.12 73.78 30.96 61.24 43.49 90.4 72.65 96.08 66.96 96.53 67.41 90.4 73.53" style="fill:#3a3a3a;"/><path d="m85.24,68.35l-16.92-16.92,13.38-13.38,16.92,16.92-13.38,13.38Zm-16.1-16.92l16.1,16.1,12.57-12.57-16.11-16.11-12.57,12.57Z" style="fill:#3a3a3a;"/><path d="m71.72,54.86l-1.26-1.26,13.32-13.32,1.26,1.26-13.32,13.32Zm-.38-1.26l.38.38,12.44-12.44-.38-.38-12.44,12.44Z" style="fill:#3a3a3a;"/><path d="m73.62,56.55l-1.26-1.26,13.21-13.21,1.26,1.26-13.21,13.21Zm-.38-1.26l.38.38,12.33-12.33-.38-.38-12.33,12.33Z" style="fill:#3a3a3a;"/><path d="m75.34,58.48l-1.26-1.26,13.32-13.32,1.26,1.26-13.32,13.32Zm-.38-1.26l.38.38,12.44-12.44-.38-.38-12.44,12.44Z" style="fill:#3a3a3a;"/><path d="m85.26,68.14l-1.26-1.26,13.25-13.25,1.26,1.26-13.25,13.25Zm-.38-1.26l.38.38,12.37-12.37-.38-.38-12.37,12.37Z" style="fill:#3a3a3a;"/><polygon points="88.65 75.28 54.19 40.83 71.24 23.78 105.7 58.23 101.44 62.49 101 62.05 104.81 58.23 71.24 24.66 55.07 40.83 88.65 74.4 96.08 66.96 96.53 67.41 88.65 75.28" style="fill:#3a3a3a;"/><path d="m50.29,48.71l-10.67-10.67,28.6-28.6,10.67,10.67-28.6,28.6Zm-9.78-10.67l9.78,9.79,27.71-27.71-9.78-9.78-27.71,27.71Z" style="fill:#3a3a3a;"/><path d="m47.27,31.29l-2.06-2.06,21.4-21.4,2.06,2.06-21.4,21.4Zm-1.18-2.06l1.18,1.18,20.51-20.51-1.18-1.18-20.51,20.51Z" style="fill:#3a3a3a;"/><path d="m47.28,28.03l-5.74-5.74c-1.06-1.06-1.06-2.78,0-3.84l14.24-14.24c1.06-1.06,2.78-1.06,3.84,0l5.74,5.74-18.08,18.08Zm10.42-23.98c-.54,0-1.07.2-1.48.61l-14.24,14.24c-.81.81-.81,2.14,0,2.96l5.3,5.29,17.19-17.19-5.29-5.29c-.41-.41-.94-.61-1.48-.61Z" style="fill:#3a3a3a;"/><path d="m45.31,15.57l-2.98-2.98,7.07-7.07,2.98,2.98-7.07,7.07Zm-2.09-2.98l2.09,2.09,6.18-6.18-2.09-2.09-6.18,6.18Z" style="fill:#3a3a3a;"/><path d="m42.27,11.57l-2.16-2.16,6.17-6.17,2.16,2.16-6.17,6.17Zm-1.28-2.16l1.28,1.28,5.29-5.28-1.28-1.28-5.28,5.28Z" style="fill:#3a3a3a;"/><path d="m43.76,12.04l-1.42-1.42,5.01-5.01,1.42,1.42-5.01,5.01Zm-.54-1.42l.54.54,4.12-4.12-.54-.54-4.12,4.12Z" style="fill:#3a3a3a;"/><path d="m44.06,9.79l-2.16-2.16,2.67-2.67,2.16,2.16-2.67,2.67Zm-1.28-2.16l1.28,1.28,1.78-1.78-1.28-1.28-1.78,1.78Z" style="fill:#3a3a3a;"/><path d="m78.84,32.08l-2.16-2.16,4.99-4.99,2.16,2.16-4.99,4.99Zm-1.28-2.16l1.28,1.28,4.1-4.1-1.28-1.28-4.1,4.1Z" style="fill:#3a3a3a;"/><path d="m82.02,35.26l-2.16-2.16,4.99-4.99,2.16,2.16-4.99,4.98Zm-1.28-2.16l1.28,1.28,4.1-4.1-1.28-1.28-4.1,4.1Z" style="fill:#3a3a3a;"/><path d="m85.2,38.44l-2.16-2.16,4.99-4.99,2.16,2.16-4.98,4.99Zm-1.28-2.16l1.28,1.28,4.1-4.1-1.27-1.28-4.1,4.1Z" style="fill:#3a3a3a;"/><path d="m88.38,41.62l-2.16-2.16,4.99-4.98,2.16,2.16-4.99,4.98Zm-1.28-2.16l1.28,1.28,4.1-4.1-1.28-1.28-4.1,4.1Z" style="fill:#3a3a3a;"/><path d="m91.57,44.81l-2.16-2.16,4.99-4.99,2.16,2.16-4.99,4.99Zm-1.27-2.16l1.27,1.28,4.1-4.1-1.28-1.28-4.1,4.1Z" style="fill:#3a3a3a;"/><path d="m94.75,47.99l-2.16-2.16,4.99-4.98,2.16,2.16-4.98,4.99Zm-1.28-2.16l1.28,1.28,4.1-4.1-1.28-1.28-4.1,4.1Z" style="fill:#3a3a3a;"/><path d="m57.37,53.54l-2.16-2.16,4.99-4.98,2.16,2.16-4.98,4.99Zm-1.28-2.16l1.28,1.28,4.1-4.1-1.28-1.28-4.1,4.1Z" style="fill:#3a3a3a;"/><path d="m60.56,56.72l-2.16-2.16,4.99-4.99,2.16,2.16-4.99,4.98Zm-1.28-2.16l1.28,1.28,4.1-4.1-1.28-1.28-4.1,4.1Z" style="fill:#3a3a3a;"/><path d="m63.74,59.9l-2.16-2.16,4.99-4.99,2.16,2.16-4.99,4.99Zm-1.28-2.16l1.28,1.28,4.1-4.1-1.28-1.28-4.1,4.1Z" style="fill:#3a3a3a;"/><path d="m66.92,63.09l-2.16-2.16,4.99-4.99,2.16,2.16-4.99,4.99Zm-1.28-2.16l1.28,1.28,4.1-4.1-1.28-1.28-4.1,4.1Z" style="fill:#3a3a3a;"/><path d="m70.1,66.27l-2.16-2.16,4.99-4.99,2.16,2.16-4.99,4.99Zm-1.28-2.16l1.28,1.28,4.1-4.1-1.28-1.28-4.1,4.1Z" style="fill:#3a3a3a;"/><path d="m73.29,69.45l-2.16-2.16,4.99-4.99,2.16,2.16-4.99,4.98Zm-1.28-2.16l1.28,1.28,4.1-4.1-1.28-1.28-4.1,4.1Z" style="fill:#3a3a3a;"/><path d="m51.36,49.78l-1.51-1.51,28.6-28.6,1.51,1.51-28.6,28.6Zm-.62-1.51l.62.62,27.71-27.71-.62-.62-27.71,27.71Z" style="fill:#3a3a3a;"/><rect x="50.96" y="47.18" width="8.9" height=".63" transform="translate(-14.7 27.23) rotate(-24.48)" style="fill:#3a3a3a;"/><rect x="73.21" y="24.93" width="8.9" height=".63" transform="translate(22.49 85.45) rotate(-65.51)" style="fill:#3a3a3a;"/><path d="m85.82,60.66c-1.13,0-2.26-.43-3.13-1.29h0c-1.72-1.72-1.72-4.53,0-6.25,1.72-1.72,4.53-1.72,6.25,0s1.72,4.53,0,6.25c-.86.86-2,1.29-3.13,1.29Zm-2.68-1.74c1.48,1.48,3.89,1.48,5.37,0,.72-.72,1.11-1.67,1.11-2.68s-.39-1.97-1.11-2.68c-1.48-1.48-3.89-1.48-5.37,0-1.48,1.48-1.48,3.89,0,5.37h0Z" style="fill:#3a3a3a;"/><path d="m85.86,59.11c-.74,0-1.49-.28-2.05-.85-.55-.55-.85-1.28-.85-2.05s.3-1.5.85-2.05c.55-.55,1.28-.85,2.05-.85s1.5.3,2.05.85c1.13,1.13,1.13,2.97,0,4.1-.57.57-1.31.85-2.05.85Zm0-5.18c-.61,0-1.18.24-1.61.67-.43.43-.67,1-.67,1.61s.24,1.18.67,1.61c.89.89,2.33.89,3.22,0,.89-.89.89-2.33,0-3.22-.43-.43-1-.67-1.61-.67Z" style="fill:#3a3a3a;"/><path d="m85.82,57.82c-.4,0-.81-.15-1.12-.46-.3-.3-.46-.7-.46-1.12s.16-.82.46-1.12c.62-.62,1.62-.62,2.23,0,.61.62.62,1.62,0,2.23-.31.31-.71.46-1.12.46Zm0-2.53c-.25,0-.49.1-.67.28-.18.18-.28.42-.28.67s.1.49.28.67c.36.36.99.36,1.35,0,.37-.37.37-.98,0-1.35-.18-.18-.42-.28-.67-.28Z" style="fill:#3a3a3a;"/><path d="m70.51,34.23l-3.31-3.31,1.25-1.25,3.31,3.31-1.25,1.25Zm-2.42-3.31l2.42,2.42.37-.37-2.42-2.42-.37.37Z" style="fill:#3a3a3a;"/><path d="m64.69,40.04l-3.31-3.31,2.36-2.36,3.31,3.3-2.36,2.36Zm-2.42-3.31l2.42,2.42,1.47-1.47-2.42-2.42-1.47,1.47Z" style="fill:#3a3a3a;"/><path d="m94.75,47.99l-20.46-20.46,3.91-3.91,20.46,20.46-3.91,3.91Zm-19.58-20.46l19.58,19.58,3.02-3.02-19.58-19.58-3.02,3.02Z" style="fill:#3a3a3a;"/><path d="m74.59,68.15l-20.46-20.46,3.91-3.91,20.46,20.46-3.91,3.91Zm-19.58-20.46l19.58,19.58,3.02-3.02-19.58-19.58-3.02,3.02Z" style="fill:#3a3a3a;"/><path d="m77.36,17.66l-5.94-5.94,1.68-1.68,5.94,5.94-1.67,1.68Zm-5.06-5.94l5.06,5.06.79-.79-5.06-5.06-.79.79Z" style="fill:#3a3a3a;"/><path d="m75.98,18.1l-5.08-5.08,1.35-1.35,5.08,5.08-1.35,1.35Zm-4.2-5.08l4.2,4.2.47-.47-4.2-4.2-.47.47Z" style="fill:#3a3a3a;"/><path d="m77.59,15.43l-4-4,2.22-2.22,4,4-2.22,2.22Zm-3.12-4l3.12,3.12,1.34-1.34-3.12-3.12-1.34,1.34Z" style="fill:#3a3a3a;"/><path d="m78.92,13.19l-3.03-3.03.95-.95,3.03,3.03-.95.95Zm-2.14-3.03l2.14,2.14.07-.07-2.14-2.14-.07.07Z" style="fill:#3a3a3a;"/><path d="m79.85,12.9l-3.73-3.73,2.73-2.73,3.73,3.73-2.73,2.73Zm-2.85-3.73l2.85,2.84,1.85-1.85-2.84-2.85-1.85,1.85Z" style="fill:#3a3a3a;"/><path d="m82.94,11.41l-5.49-5.49,2.15-2.14,5.49,5.49-2.15,2.14Zm-4.61-5.49l4.61,4.61,1.26-1.26-4.61-4.61-1.26,1.26Z" style="fill:#3a3a3a;"/><path d="m83.84,8.91l-3.73-3.73,2.01-2.01,3.73,3.73-2.01,2.01Zm-2.84-3.73l2.84,2.84,1.12-1.12-2.84-2.84-1.12,1.12Z" style="fill:#3a3a3a;"/><path d="m85.08,7.02l-3.03-3.03,1.5-1.5,3.03,3.03-1.5,1.5Zm-2.14-3.03l2.14,2.14.61-.61-2.14-2.14-.61.61Z" style="fill:#3a3a3a;"/><path d="m85.95,5.5l-2.16-2.16.95-.95,2.16,2.17-.95.95Zm-1.28-2.16l1.28,1.28.07-.07-1.28-1.28-.07.07Z" style="fill:#3a3a3a;"/><path d="m86.86,5.24l-2.8-2.8,2.44-2.44,2.8,2.8-2.44,2.44Zm-1.92-2.8l1.92,1.92,1.55-1.55-1.91-1.92-1.55,1.55Z" style="fill:#3a3a3a;"/><path d="m87.25,4.85l-2.02-2.02,2.05-2.05,2.02,2.02-2.05,2.05Zm-1.13-2.02l1.13,1.13,1.16-1.16-1.13-1.13-1.16,1.16Z" style="fill:#3a3a3a;"/><polygon points="85.39 6.27 82.8 3.69 83.25 3.24 85.83 5.83 85.39 6.27" style="fill:#3a3a3a;"/><rect x="81.33" y="3.65" width=".63" height="7.14" transform="translate(18.81 59.84) rotate(-45)" style="fill:#3a3a3a;"/><path d="m81.39,9.87l-2.48-2.48,2.14-2.15,2.48,2.48-2.15,2.15Zm-1.59-2.48l1.59,1.59,1.26-1.26-1.59-1.59-1.26,1.26Z" style="fill:#3a3a3a;"/><polygon points="98.17 68.62 35.31 6.2 35.38 6.13 35.27 6.02 35.42 5.87 35.53 5.98 98.39 68.4 98.17 68.62" style="fill:#3a3a3a;"/><polygon points="82.76 24.71 78.13 24.71 78.13 24.09 82.14 24.09 82.14 17.96 75.81 17.96 75.81 17.33 82.76 17.33 82.76 24.71" style="fill:#3a3a3a;"/><path d="m100.87,38.2c-.94-4.12-4.6-13.75-18.24-14.2l.02-.62c14.07.46,17.85,10.42,18.83,14.68l-.61.14Z" style="fill:#3a3a3a;"/><polygon points="106.49 38.32 106.48 38.16 107.1 38.1 106.79 38.13 107.1 38.1 107.12 38.26 106.49 38.32" style="fill:#3a3a3a;"/><path d="m106.48,38.16c-.54-5.59-3.41-10.7-8.08-14.38-4.73-3.73-10.83-5.59-15.91-4.87l-.09-.62c5.24-.75,11.52,1.17,16.38,5,4.81,3.78,7.76,9.04,8.32,14.81l-.62.06Z" style="fill:#3a3a3a;"/><rect x="81.75" y="20.81" width="5.34" height=".63" transform="translate(62.25 105.27) rotate(-89.29)" style="fill:#3a3a3a;"/><rect x="82.92" y="20.88" width="5.45" height=".63" transform="translate(63.25 106.53) rotate(-89.19)" style="fill:#3a3a3a;"/><path d="m87.97,70.46l-.6-.19c3.56-10.97,13.3-12.98,13.4-13l.12.61c-.09.02-9.48,1.97-12.93,12.58Z" style="fill:#3a3a3a;"/><path d="m68.71,51.73l-.62-.62,13.28-13.29.62.62-13.28,13.28Zm0-.62h0s12.67-12.66,12.67-12.66h0s-12.67,12.66-12.67,12.66Z" style="fill:#3a3a3a;"/><path d="m43.28,42.53l-1.3-1.3,28.6-28.6,1.3,1.3-28.6,28.6Zm-.41-1.3l.41.41,27.71-27.71-.41-.41-27.71,27.71Z" style="fill:#3a3a3a;"/><path d="m184.76,42.53l-28.6-28.6,1.3-1.3,28.6,28.6-1.3,1.3Zm-27.71-28.6l27.71,27.71.41-.41-27.71-27.71-.41.41Z" style="fill:#3a3a3a;"/><rect x="128.12" y="118.53" width="39.96" height=".29" style="fill:#3a3a3a;"/><rect x="138.88" y="107.61" width=".16" height="21.67" style="fill:#3a3a3a;"/><rect x="143.8" y="88.79" width="29.45" height=".25" style="fill:#3a3a3a;"/><rect x="158.02" y="74.51" width=".21" height="28.8" style="fill:#3a3a3a;"/><polygon points="144.05 129.27 143.88 128.67 160.56 123.66 160.56 113.9 144.78 108.84 144.97 108.24 161.18 113.44 161.18 124.13 144.05 129.27" style="fill:#3a3a3a;"/><path d="m91.54,109.71h-.65v-1.85c0-.21-.07-.41-.21-.57-.41-.49-1.22-1.47-2.04-2.57-.99-1.34-4.97-19.09-7.25-29.55l-.13-.6c-.25-1.22-.78-3.76-4.98-3.77v-.65c4.74,0,5.38,3.12,5.62,4.29l.13.6c3.75,17.2,6.48,28.42,7.13,29.3.81,1.09,1.61,2.06,2.01,2.54.23.28.36.63.36.99v1.85Z" style="fill:#3a3a3a;"/><rect x="134.71" y="87.39" width="10.46" height=".66" style="fill:#3a3a3a;"/><path d="m101.11,107.24h-.66v-2.66c0-.25-.1-.49-.29-.66-.19-.17-.43-.25-.68-.23l-4.6.42c-.33.03-.67-.05-.96-.22l-3.25-2.01c-.35-.22-.6-.57-.69-.97l-2.54-11.16c-.13-.57,0-1.17.37-1.62.37-.46.91-.72,1.5-.72h5.66v.66h-5.66c-.39,0-.74.17-.98.47-.24.3-.33.69-.24,1.07l2.54,11.16c.05.23.2.44.4.56l3.25,2.01c.16.1.36.15.55.13l4.6-.42c.43-.04.86.11,1.18.4.32.29.5.71.5,1.14v2.66Z" style="fill:#3a3a3a;"/><rect x="134.78" y="80.08" width="13.38" height=".65" style="fill:#3a3a3a;"/><path d="m94.9,80.73h-7.56c-1.15,0-2.13-.78-2.38-1.9l-2.15-9.43.64-.15,2.15,9.43c.19.82.9,1.39,1.74,1.39h7.56v.65Z" style="fill:#3a3a3a;"/><polygon points="131.16 50.25 128.88 47.79 99.01 47.79 97.04 49.98 96.58 49.56 98.73 47.16 129.15 47.16 131.62 49.82 131.16 50.25" style="fill:#3a3a3a;"/><path d="m122.15,43.73h-22.15v-5.88h22.15v5.88Zm-21.59-.55h21.04v-4.78h-21.04v4.78Z" style="fill:#3a3a3a;"/><rect x="98.84" y="43.14" width="30.57" height=".63" style="fill:#3a3a3a;"/><path d="m123.11,119.86h-13.25v-1.35h13.25v1.35Zm-12.7-.55h12.14v-.25h-12.14v.25Z" style="fill:#3a3a3a;"/><polygon points="140.55 130.38 115.5 130.38 115.5 128.69 133.95 128.69 133.95 129.25 116.05 129.25 116.05 129.83 140.55 129.83 140.55 130.38" style="fill:#3a3a3a;"/><path d="m117.87,129.25h-2.37v-1.76h2.37v1.76Zm-1.81-.55h1.26v-.66h-1.26v.66Z" style="fill:#3a3a3a;"/><path d="m147.79,62.94c-3.45-10.62-12.83-12.56-12.93-12.58l.12-.62c.1.02,9.84,2.03,13.4,13l-.6.19Z" style="fill:#3a3a3a;"/><path d="m163.31,98.82c-.08,0-.15-.03-.21-.09l-7.74-7.74c-.12-.12-.12-.3,0-.42.12-.12.3-.12.42,0l7.74,7.74c.12.12.12.3,0,.42-.06.06-.13.09-.21.09Z" style="fill:#3a3a3a;"/><path d="m167.79,94.35c-.08,0-.15-.03-.21-.09l-7.78-7.78c-.12-.12-.12-.3,0-.42.12-.12.3-.12.42,0l7.78,7.78c.12.12.12.3,0,.42-.06.06-.13.09-.21.09Z" style="fill:#3a3a3a;"/><path d="m164.15,96.96c-.53,0-1.06-.2-1.47-.61l-1.67-1.67c-.81-.81-.81-2.13,0-2.93.81-.81,2.13-.81,2.94,0l1.67,1.67c.81.81.81,2.13,0,2.94-.4.4-.94.61-1.47.61Zm-1.67-5.22c-.4,0-.77.15-1.05.43-.28.28-.43.65-.43,1.05s.15.77.43,1.05l1.67,1.67c.28.28.65.43,1.05.43s.77-.15,1.05-.43c.28-.28.43-.65.43-1.05s-.15-.77-.43-1.05l-1.66-1.67c-.28-.28-.65-.43-1.05-.43Z" style="fill:#3a3a3a;"/><path d="m149.69,73.35l-2.14-1.57-.11-2.66,2.01-1.74,2.61.48,1.25,2.34-1.05,2.44-2.56.7Zm-1.64-1.84l1.75,1.28,2.09-.57.86-1.99-1.02-1.91-2.13-.39-1.63,1.42.09,2.16Z" style="fill:#3a3a3a;"/><path d="m150.21,71.9c-.84,0-1.53-.69-1.53-1.53s.69-1.53,1.53-1.53,1.53.69,1.53,1.53-.69,1.53-1.53,1.53Zm0-2.55c-.56,0-1.02.46-1.02,1.02s.46,1.02,1.02,1.02,1.02-.46,1.02-1.02-.46-1.02-1.02-1.02Z" style="fill:#3a3a3a;"/><rect x="101.71" y="54.38" width="25.01" height=".63" style="fill:#3a3a3a;"/><rect x="99.18" y="51.84" width="30.08" height=".63" style="fill:#3a3a3a;"/><path d="m131.84,77.36l-.6-.16c2.2-8.36,12.17-17.62,14.15-19.39l.42.47c-1.95,1.75-11.81,10.89-13.96,19.08Z" style="fill:#3a3a3a;"/><path d="m119.55,68.54l-.09-.62c9.25-1.35,21.26-15.01,21.38-15.15l.47.41c-.5.57-12.29,13.97-21.77,15.36Z" style="fill:#3a3a3a;"/><path d="m129.94,72c-.27,0-.54-.1-.74-.31l-2.04-2.03c-.41-.41-.41-1.07,0-1.48l14.65-14.65.42.43-14.65,14.65c-.17.17-.17.46,0,.63l2.03,2.04c.17.17.46.17.63,0l14.56-14.56.42.42-14.56,14.56c-.2.2-.47.31-.74.31Z" style="fill:#3a3a3a;"/><path d="m100.89,127.98l-2.15-1.57-.11-2.66,2.01-1.74,2.61.48,1.25,2.35-1.05,2.44-2.57.7Zm-1.64-1.84l1.75,1.28,2.09-.57.86-1.99-1.02-1.91-2.13-.39-1.63,1.42.09,2.16Z" style="fill:#3a3a3a;"/><path d="m101.41,126.53c-.84,0-1.53-.69-1.53-1.53s.69-1.53,1.53-1.53,1.53.69,1.53,1.53-.69,1.53-1.53,1.53Zm0-2.55c-.56,0-1.02.46-1.02,1.02s.46,1.02,1.02,1.02,1.02-.46,1.02-1.02-.46-1.02-1.02-1.02Z" style="fill:#3a3a3a;"/><path d="m101.04,119l-2.15-1.57-.11-2.66,2.01-1.74,2.61.48,1.25,2.34-1.05,2.44-2.56.7Zm-1.64-1.84l1.75,1.28,2.09-.57.86-1.98-1.02-1.91-2.13-.39-1.63,1.42.09,2.16Z" style="fill:#3a3a3a;"/><path d="m101.56,117.55c-.84,0-1.53-.69-1.53-1.53s.69-1.53,1.53-1.53,1.53.69,1.53,1.53-.69,1.53-1.53,1.53Zm0-2.55c-.56,0-1.02.46-1.02,1.02s.46,1.02,1.02,1.02,1.02-.46,1.02-1.02-.46-1.02-1.02-1.02Z" style="fill:#3a3a3a;"/><path d="m138.96,123.21c-.34,0-.68-.04-1.01-.11l.13-.61c.94.21,1.97.06,2.82-.4l.3.55c-.68.37-1.46.57-2.24.57Zm-2.55-.75c-.95-.62-1.65-1.55-1.96-2.64l.6-.17c.27.94.87,1.75,1.7,2.29l-.34.52Zm6.09-.86l-.47-.41c.64-.74,1-1.68,1-2.66h.62c0,1.13-.41,2.22-1.15,3.07Zm-7.59-3.39l-.62-.05c.09-1.12.58-2.18,1.38-2.98l.44.45c-.7.69-1.12,1.61-1.2,2.58Zm8.03-.51c-.2-.96-.74-1.81-1.52-2.41l.38-.5c.9.69,1.52,1.67,1.75,2.78l-.61.13Zm-5.64-2.88l-.26-.57c1.02-.46,2.21-.53,3.28-.21l-.18.6c-.93-.28-1.95-.22-2.84.18Z" style="fill:#3a3a3a;"/><path d="m116.18,69.26c-7.39-.85-16.31-7.09-19.8-9.73l.38-.5c3.45,2.61,12.25,8.78,19.49,9.61l-.07.62Z" style="fill:#3a3a3a;"/><path d="m109.29,82.43c-2.69-8.41-16.62-17.46-18.21-18.46l.34-.53c2.61,1.66,15.77,10.36,18.47,18.8l-.6.19Z" style="fill:#3a3a3a;"/><path d="m108.89,74.99c-.21,0-.42-.06-.61-.2l-16.41-11.74.35-.49,16.41,11.74c.2.14.48.1.62-.1l1.67-2.34c.14-.2.1-.48-.1-.62l-15.48-11.07.35-.49,15.48,11.07c.47.34.58.99.24,1.46l-1.67,2.34c-.2.29-.53.44-.85.44Z" style="fill:#3a3a3a;"/><path d="m101.41,125.88c-.49,0-.88-.39-.88-.88s.4-.88.88-.88.88.39.88.88-.4.88-.88.88Zm0-1.45c-.31,0-.57.25-.57.57s.26.57.57.57.57-.25.57-.57-.25-.57-.57-.57Z" style="fill:#3a3a3a;"/><path d="m150.21,71.25c-.49,0-.88-.39-.88-.88s.39-.88.88-.88.88.4.88.88-.39.88-.88.88Zm0-1.45c-.31,0-.57.25-.57.57s.25.57.57.57.57-.26.57-.57-.25-.57-.57-.57Z" style="fill:#3a3a3a;"/><path d="m158.12,89.73c-.49,0-.88-.39-.88-.88s.39-.88.88-.88.88.4.88.88-.4.88-.88.88Zm0-1.45c-.31,0-.57.25-.57.57s.25.57.57.57.57-.25.57-.57-.25-.57-.57-.57Z" style="fill:#3a3a3a;"/><path d="m101.56,116.9c-.48,0-.88-.4-.88-.88s.4-.88.88-.88.88.39.88.88-.4.88-.88.88Zm0-1.45c-.31,0-.57.25-.57.57s.25.57.57.57.57-.25.57-.57-.25-.57-.57-.57Z" style="fill:#3a3a3a;"/><path d="m95.74,29.91l-2.5-2.07,4.99-6.03,2.5,2.07-4.99,6.03Zm-1.78-2.14l1.71,1.41,4.33-5.23-1.71-1.41-4.33,5.23Z" style="fill:#3a3a3a;"/><path d="m122.06,42.39h-22.19v-1.21h22.19v1.21Zm-21.82-.37h21.46v-.48h-21.46v.48Z" style="fill:#3a3a3a;"/><path d="m165.55,124.04h-3.84v-10.39h3.84v10.39Zm-3.21-.63h2.59v-9.14h-2.59v9.14Z" style="fill:#3a3a3a;"/><polygon points="41.36 7.44 9 19.97 64.04 172.94 87.94 172.94 84.21 7.44 41.36 7.44" style="fill:url(#linear-gradient); opacity:.6;"/><polygon points="63.76 7.44 85.98 172.52 109.65 175.85 114.72 7.44 63.76 7.44" style="fill:url(#linear-gradient-2); opacity:.6;"/><polygon points="112.71 7.44 103.87 176.26 126.52 183.9 165.27 7.44 112.71 7.44" style="fill:url(#linear-gradient-3); opacity:.6;"/><polygon points="149.73 7.44 124.97 163.84 152.6 183.73 232.25 9.47 223.08 7.44 149.73 7.44" style="fill:url(#linear-gradient-4); opacity:.6;"/><path d="m118.5,185.44v-20.71s-6.15-8.42-25.2-8.42c-27.06,0-40.56,17.28-64.49,17.28-21.32,0-24.31-1.02-24.31-1.02v12.86h114Z" style="fill:url(#linear-gradient-5); stroke:#afafaf; stroke-miterlimit:10;"/><path d="m118.5,185.44v-20.71s6.15-8.42,25.2-8.42c27.06,0,40.56,17.28,64.49,17.28,21.32,0,24.31-1.02,24.31-1.02v12.86h-114Z" style="fill:url(#linear-gradient-6); stroke:#afafaf; stroke-miterlimit:10;"/><rect y="185.94" width="237" height="5" style="fill:#ff8164;"/><rect x="110.5" y="187.44" width="15" height="3" style="fill:#ff8164; stroke:#a34b3d; stroke-miterlimit:10;"/></svg>