<?xml version="1.0" encoding="utf-8"?>
<!-- Generator: Adobe Illustrator 25.2.3, SVG Export Plug-In . SVG Version: 6.00 Build 0)  -->
<svg version="1.1" id="Слой_1" xmlns="http://www.w3.org/2000/svg" xmlns:xlink="http://www.w3.org/1999/xlink" x="0px" y="0px"
	 viewBox="0 0 150 89.4" style="enable-background:new 0 0 150 89.4;" xml:space="preserve">
<style type="text/css">
	.st0{opacity:0.3;fill:#42D6EA;enable-background:new    ;}
	.st1{opacity:0.4;fill:#42D6EA;enable-background:new    ;}
	.st2{opacity:0.5;fill:#42D6EA;enable-background:new    ;}
	.st3{fill:#38A1E2;}
	.st4{fill:#FFFFFF;}
	.st5{fill:#004D8C;}
	.st6{fill:#FFAD5C;}
</style>
<rect x="32.6" y="0.9" class="st0" width="73.5" height="58.7"/>
<rect x="71.8" y="13.9" class="st1" width="73.5" height="54"/>
<rect x="19.4" y="38.2" class="st1" width="73.5" height="44.8"/>
<rect x="4.4" y="21.6" class="st0" width="73.5" height="44.8"/>
<rect x="61.5" y="35.1" class="st2" width="73.5" height="44.8"/>
<path class="st3" d="M123.9,10.1H39v63.7h35.3c0,6.2-1.5,8.5-4,10.8H51c-1.1,0-2,0.9-2,2s0.9,2,2,2h60.9c1.1,0,2-0.9,2-2s-0.9-2-2-2
	H92.5c-2.5-2.5-4-4.7-4-10.8h35.3L123.9,10.1L123.9,10.1z"/>
<rect x="41.1" y="12.1" class="st4" width="80.6" height="59.9"/>
<polyline class="st5" points="79.7,58.5 79.7,43.2 91.8,50.1 "/>
<polygon class="st3" points="105,43.2 92.9,50.1 92.9,65.2 105,58.5 "/>
<polygon class="st3" points="79.7,43.2 91.8,50.1 91.8,65.2 79.7,58.5 "/>
<polygon class="st3" points="79.7,42 92.4,49.2 105,42 92.4,35.9 "/>
<g>
	<rect x="91.6" y="24.8" width="1.6" height="7.1"/>
	<g>
		<polygon points="94.6,25.4 92.4,21.6 90.2,25.4 		"/>
	</g>
</g>
<g>
	<rect x="110.5" y="58.5" transform="matrix(0.4617 -0.887 0.887 0.4617 4.8344 132.0987)" width="1.6" height="7.1"/>
	<g>
		<polygon points="112.9,65.4 117.3,65.2 114.9,61.5 		"/>
	</g>
</g>
<g>
	<rect x="69.7" y="61.3" transform="matrix(0.887 -0.4618 0.4618 0.887 -20.3758 40.8286)" width="7.1" height="1.6"/>
	<g>
		<polygon points="69.6,61.5 67.2,65.2 71.7,65.4 		"/>
	</g>
</g>
<polygon class="st6" points="26.6,4.2 91.8,14.5 48.8,56.7 "/>
<g>
	<path d="M51.1,32.6c-2.5,0-4.3-0.6-5.5-1.8c-1.3-1.2-1.9-3-1.9-5.2c0-2.3,0.6-4.1,1.8-5.4c1.3-1.3,3.1-1.9,5.5-1.9
		c0.9,0,1.6,0.1,2.3,0.2c0.6,0.2,1.3,0.3,1.9,0.6v3c-1.3-0.6-2.5-0.8-4-0.8c-1.4,0-2.5,0.3-3.2,1c-0.6,0.7-1,1.7-1,3.2
		c0,1.4,0.3,2.5,1,3.1c0.7,0.6,1.7,0.9,3.2,0.9c0.6,0,1.3-0.1,2-0.2s1.3-0.3,1.9-0.6v3.1c-0.6,0.2-1.3,0.4-1.9,0.5
		S52,32.6,51.1,32.6z"/>
	<path d="M56.2,32.4l5.3-13.8h3.7l5.3,13.8h-3.6l-1.3-3.2h-4.6l-1.2,3.2H56.2z M61.5,26.7h3.6l-1.8-4.8L61.5,26.7z"/>
	<path d="M72.3,32.4V18.5h6c1.4,0,2.6,0.2,3.6,0.7s1.7,1.2,2.2,2.2c0.5,1,0.8,2.4,0.8,4c0,2.4-0.6,4.1-1.7,5.2
		c-1.1,1.1-2.7,1.7-4.8,1.7C78.4,32.4,72.3,32.4,72.3,32.4z M75.7,29.7h2.1c0.7,0,1.3-0.1,1.9-0.3c0.5-0.2,0.9-0.6,1.2-1.3
		c0.3-0.6,0.4-1.5,0.4-2.6c0-1.1-0.1-2.1-0.3-2.7s-0.6-1-1.1-1.3c-0.5-0.2-1.2-0.4-2-0.4h-2.1L75.7,29.7L75.7,29.7z"/>
</g>
</svg>
