<svg width="325" height="289" viewBox="0 0 325 289" fill="none" xmlns="http://www.w3.org/2000/svg">
<path fill-rule="evenodd" clip-rule="evenodd" d="M288.321 164.566V151.795H276.245V164.566H272.726V157.988H255.042V161.04H250.093V164.566H246.585V150.076H233.454V161.04H226.141V155.42H209.303V164.566H206.741V150.076H194.853V164.566H189.904V145.228H178.026V161.04H169.657V157.988H166.996V153.602H158.956V150.925H147.926V145.536H131.858V150.925H129.197V154.671H120.828V135.222H108.94V159.013H104.002V141.195H92.1133V159.013H89.5398V147.762H72.7136V154.671H65.3892V141.195H52.2691V159.013H48.7499V154.671H31.0658V165.415H26.1719V188.665H109.984V188.555H139.898V188.566H188.859V188.665H288.992V164.566H288.321Z" fill="#D5D5D5"/>
<path d="M206.312 54.044L201.649 46.6501L200.89 45.438L200.351 45.449L199.625 46.6832L195.479 53.8566L189.53 46.8595L188.496 45.6474H188.276L187.341 46.8925L182.15 53.8677L177.344 47.0578L176.487 45.8457L175.97 45.8567L175.189 47.1019L170.977 53.8015L166.556 47.2451L165.742 46.022L164.444 46.044L163.63 47.2892L159.275 53.8897L153.799 47.4545L152.776 46.2424L152.215 46.2534L151.148 47.4986L145.616 53.9668L140.063 47.6859L138.996 46.4738L138.655 46.4848L137.555 47.73L132.122 53.8787L128.57 47.8842L127.844 46.6611L127.481 46.6721L126.437 47.9173L121.411 53.9338L116.924 48.0716L116.11 47.0247L115.131 48.1046L109.896 53.8897L106.575 48.2479L105.86 47.0358H105.761L104.595 48.2809L99.3387 53.9228L95.8084 48.4352L95.0166 47.2121L94.6317 47.2231L93.5759 48.4683L88.99 53.8677L85.8886 48.6005L85.1738 47.3774H85.0308L84.327 48.6225L81.4676 53.7354L78.3003 48.7217L77.8714 48.0495L76.7387 48.4021L70.635 53.7024L71.2399 54.3966L77.2886 49.1404L80.3899 54.044L81.3357 55.5316H81.6986L82.5344 54.044L85.1188 49.4159L87.8462 54.044L88.726 55.5316H88.99L90.2437 54.044L94.7417 48.7658L98.1399 54.044L99.0967 55.5316H99.3057L100.691 54.044L105.629 48.7548L108.742 54.044L109.621 55.5316H109.863L111.205 54.044L116.044 48.6997L120.146 54.044L121.29 55.5316H121.488L122.719 54.044L127.547 48.2699L130.968 54.044L131.847 55.5316H132.1L133.409 54.044L138.831 47.9173L144.253 54.044L145.561 55.5316H145.704L146.969 54.044L152.49 47.5867L158 54.044L159.253 55.5316H159.495L160.474 54.044L164.928 47.2672L165.104 47.0137L165.269 47.2672L169.844 54.044L170.834 55.5316H171.164L172.088 54.044L176.267 47.3994L180.952 54.044L181.996 55.5316H182.249L183.36 54.044L188.43 47.2341L194.226 54.044L195.479 55.5316H195.754L196.612 54.044L200.648 47.0798L205.036 54.044L205.685 55.0798L206.598 54.5068L206.312 54.044Z" fill="#1DDCEE"/>
<path d="M217.156 18.1875L135.752 45.2947C135.466 44.7878 134.927 44.4462 134.3 44.4462C133.387 44.4462 132.639 45.1955 132.639 46.1101C132.639 47.0247 133.387 47.774 134.3 47.774C135.169 47.774 135.884 47.1018 135.961 46.2533L217.046 19.4327L264.467 55.4764L265.05 54.7051L217.156 18.1875Z" fill="#3DB3FF"/>
<path d="M222.346 120.412L211.085 129.646L222.214 139.729L211.052 150.913L222.203 160.092L211.008 172.864L222.236 183.034L211.074 193.084L222.225 202.737L211.008 213.877L221.819 225.106L221.049 225.855L209.501 213.855L220.642 202.792L209.446 193.095L220.631 183.023L209.501 172.952L220.664 160.214L209.457 150.991L220.653 139.773L209.435 129.613L220.532 120.512L209.413 113.195L221.61 100.556L209.413 92.4016L221.555 80.0491L209.369 73.5808L219.85 62.9363L210.513 56.1595L211.041 55.6857L213.625 53.3386L219.201 48.3139L214.615 44.2698L212.295 42.2313L212.361 41.7795L215.165 39.212L217.606 36.9641L215.616 35.0137L213.658 33.0964L213.79 32.1818L216.144 30.1322L217.002 29.3829L216.331 28.4463L214.692 26.1763L214.747 25.8237L215.407 25.3389L216.507 26.8485L218.453 29.5482L215.979 31.708L214.824 32.7217L215.77 33.6473L219.179 36.9972L214.989 40.8318L213.691 42.0219L214.758 42.9585L220.818 48.3028L213.46 54.9584L212.438 55.873L212.218 56.0714L221.5 62.8041L211.151 73.3054L222.643 79.41V80.4788L211.096 92.2253L223.281 100.379L211.096 113.007L222.346 120.412Z" fill="#1DDCEE"/>
<path d="M223.336 55.5313L218.64 20.3801H219.839V19.2121C219.839 18.0992 218.937 17.1846 217.815 17.1846H216.199C215.088 17.1846 214.175 18.0881 214.175 19.2121V20.3801H215.55L214.736 25.8236L214.681 26.1762L213.779 32.1817L213.647 33.0963L212.35 41.7794L212.284 42.2312L210.304 55.5864L211.041 55.6856L212.438 55.8729L213.339 55.9941L213.449 54.9473L213.625 53.3385L214.604 44.2697L214.747 42.9584L214.978 40.8317L215.154 39.2119L215.605 35.0136L215.748 33.6472L215.957 31.7078L216.133 30.1321L216.32 28.4462L216.496 26.8484L217.079 21.5041L220.609 55.6085L223.336 55.5313Z" fill="#3DB3FF"/>
<path d="M223.336 56.8096H220.609V70.275H223.336V56.8096Z" fill="#3DB3FF"/>
<path d="M210.271 84.1479H208.171V115.079H210.271V84.1479Z" fill="#3DB3FF"/>
<path d="M224.073 84.1479H221.973V115.079H224.073V84.1479Z" fill="#3DB3FF"/>
<path d="M235.379 233.403H197.569V241.733H235.379V233.403Z" fill="#0875B2"/>
<path d="M215.88 231.794H201.627V233.392H215.88V231.794Z" fill="#A0A1A7"/>
<path d="M230.133 231.794H215.88V233.392H230.133V231.794Z" fill="#C3C5CC"/>
<path d="M237.237 241.7H195.71V243.298H237.237V241.7Z" fill="#C3C5CC"/>
<path d="M225.635 228.72H206.158V231.794H225.635V228.72Z" fill="#0875B2"/>
<path d="M225.635 231.332H206.158V231.794H225.635V231.332Z" fill="#1DDCEE"/>
<path d="M227.559 241.721C227.559 241.711 227.559 241.711 227.57 241.7L227.559 241.721Z" fill="#F0943B"/>
<path d="M210.755 119.123H209.215V228.709H210.755V119.123Z" fill="#2CA7FD"/>
<path d="M222.533 119.123H220.994V228.709H222.533V119.123Z" fill="#2CA7FD"/>
<path d="M220.994 219.838H210.755V221.028H220.994V219.838Z" fill="#2CA7FD"/>
<path d="M220.994 209.679H210.755V210.869H220.994V209.679Z" fill="#2CA7FD"/>
<path d="M220.994 199.53H210.755V200.72H220.994V199.53Z" fill="#2CA7FD"/>
<path d="M220.994 189.37H210.755V190.56H220.994V189.37Z" fill="#2CA7FD"/>
<path d="M220.994 179.222H210.755V180.412H220.994V179.222Z" fill="#2CA7FD"/>
<path d="M220.994 169.073H210.755V170.263H220.994V169.073Z" fill="#2CA7FD"/>
<path d="M220.994 158.913H210.755V160.103H220.994V158.913Z" fill="#2CA7FD"/>
<path d="M220.994 148.765H210.755V149.955H220.994V148.765Z" fill="#2CA7FD"/>
<path d="M220.994 138.605H210.755V139.795H220.994V138.605Z" fill="#2CA7FD"/>
<path d="M220.994 128.456H210.755V129.646H220.994V128.456Z" fill="#2CA7FD"/>
<path d="M221.972 109.338H210.271V110.528H221.972V109.338Z" fill="#2CA7FD"/>
<path d="M224.084 103.994H208.171V105.184H224.084V103.994Z" fill="#2CA7FD"/>
<path d="M221.972 89.085H210.271V90.0326H221.972V89.085Z" fill="#2CA7FD"/>
<path d="M224.084 115.079H208.171V117.503H224.084V115.079Z" fill="#3DB3FF"/>
<path d="M224.084 82.7485H208.171V85.1728H224.084V82.7485Z" fill="#0875B2"/>
<path d="M224.997 81.0957H207.709V84.137H224.997V81.0957Z" fill="#3DB3FF"/>
<path d="M222.522 117.514H209.215V119.134H222.522V117.514Z" fill="#0875B2"/>
<path d="M206.004 97.2939V98.3077V103.035V104.049H225.987V103.035V98.3077V97.2939H206.004ZM206.708 103.046V98.3187H209.039V103.046H206.708ZM209.754 103.046V98.3187H211.723V103.046H209.754ZM212.438 103.046V98.3187H214.406V103.046H212.438ZM215.121 103.046V98.3187H217.09V103.046H215.121ZM217.804 103.046V98.3187H219.773V103.046H217.804ZM220.488 103.046V98.3187H222.456V103.046H220.488ZM225.272 103.046H223.171V98.3187H225.272V103.046Z" fill="#0875B2"/>
<path d="M216.727 64.5342V65.5479V70.2752V71.2889H225.899V70.2752V65.5479V64.5342H216.727ZM217.716 70.2862V65.559H219.685V70.2862H217.716ZM220.4 70.2862V65.559H222.368V70.2862H220.4ZM225.184 70.2862H223.083V65.559H225.184V70.2862Z" fill="#0875B2"/>
<path d="M222.654 78.8037H209.16V81.1067H222.654V78.8037Z" fill="#3DB3FF"/>
<path d="M222.654 78.8037H209.16V79.4979H222.654V78.8037Z" fill="#0875B2"/>
<path d="M225.899 71.2998H206.092V78.8039H225.899V71.2998Z" fill="#3DB3FF"/>
<path d="M217.266 77.1951H203.189V76.6552H216.727V59.333H217.266V77.1951Z" fill="#2CA7FD"/>
<path d="M217.266 77.1948H206.092V77.856H217.266V77.1948Z" fill="#1DDCEE"/>
<path d="M221.533 78.804H219.256L217.266 76.8096V74.5176L221.533 78.804Z" fill="#1DDCEE"/>
<path d="M212.746 78.8038H210.458L209.523 77.8672H211.811L212.746 78.8038Z" fill="#1DDCEE"/>
<path d="M225.899 75.8285V78.2968L218.651 71.0352H221.115L225.899 75.8285Z" fill="#1DDCEE"/>
<path d="M213.339 56.8096H210.304V59.333H213.339V56.8096Z" fill="#3DB3FF"/>
<path d="M223.336 55.5312H210.304V56.8205H223.336V55.5312Z" fill="#0875B2"/>
<path d="M120.278 108.599C120.366 108.721 120.927 109.525 121.708 109.525C122.28 109.525 122.939 109.073 122.994 108.577C123.049 108.026 122.577 107.288 121.862 106.506C121.686 106.307 120.432 105.051 120.223 104.115C120.157 103.817 124.754 103.817 124.831 104.082C124.963 104.544 123.434 104.919 123.456 105.812C123.467 106.296 123.907 106.385 124.435 107.387C124.721 107.927 124.963 108.368 124.941 108.908C124.919 109.79 124.226 110.836 123.115 111.101C121.851 111.398 120.894 110.462 120.839 110.407C120.047 109.602 120.025 108.412 120.113 108.379C120.124 108.357 120.168 108.456 120.278 108.599Z" fill="#758792"/>
<path d="M70.4481 54.7821L75.276 47.5425L74.3632 47.5535" fill="#3DB3FF"/>
<path d="M127.855 57.9555H117.496C116.825 57.9555 116.286 57.4155 116.286 56.7434C116.286 56.0712 116.825 55.5312 117.496 55.5312H127.855C128.526 55.5312 129.065 56.0712 129.065 56.7434C129.065 57.4155 128.526 57.9555 127.855 57.9555Z" fill="#3DB3FF"/>
<path d="M119.541 58.6057H117.727C117.364 58.6057 117.078 58.3192 117.078 57.9556H120.19C120.19 58.3192 119.893 58.6057 119.541 58.6057Z" fill="#3DB3FF"/>
<path d="M127.712 58.6057H125.898C125.535 58.6057 125.249 58.3192 125.249 57.9556H128.361C128.361 58.3192 128.064 58.6057 127.712 58.6057Z" fill="#3DB3FF"/>
<path d="M122.027 95.3104L118.112 58.6055H118.661L122.566 95.2553L122.027 95.3104Z" fill="#5F7079"/>
<path d="M122.566 95.2553L122.027 95.3104L126.558 58.6055H127.261L122.566 95.2553Z" fill="#5F7079"/>
<path d="M122.434 95.2446H122.115C120.894 95.2446 119.893 96.2364 119.893 97.4705H124.644C124.655 96.2364 123.665 95.2446 122.434 95.2446Z" fill="#1DDCEE"/>
<path d="M122.258 104.137C120.421 104.137 118.925 102.638 118.925 100.798C118.925 98.9581 120.421 97.4595 122.258 97.4595C124.094 97.4595 125.59 98.9581 125.59 100.798C125.59 102.65 124.094 104.137 122.258 104.137Z" fill="#0875B2"/>
<path d="M216.727 59.333V76.6552H203.189C203.189 76.6552 201.561 74.3742 201.484 72.2254C201.484 72.1042 201.473 71.994 201.473 71.8839C201.462 69.9775 201.913 68.1704 202.496 66.6718C203.057 65.2283 203.761 64.0713 204.277 63.4211C204.409 63.2558 204.541 63.0905 204.673 62.9363C205.058 62.4845 205.432 62.0768 205.773 61.7352C208.061 59.4432 209.446 59.333 209.446 59.333H216.727Z" fill="#2F5969"/>
<path d="M216.727 76.655L208.281 76.666L201.473 71.8947C201.462 69.9884 201.913 68.1812 202.496 66.6826L216.727 76.655Z" fill="#0875B2"/>
<path d="M216.727 69.4926V71.476L204.684 62.9472C205.069 62.4954 205.443 62.0877 205.784 61.7461L216.727 69.4926Z" fill="#449C8A"/>
<path d="M227.416 54.0435V52.1042H209.611L202.408 45.4155V46.6387L207.852 52.1042V54.0435H70.943L75.243 47.5532H74.3632L70.0522 54.0435H67.2478V55.5311H70.2061V57.757H76.4307V55.5311H280.315V54.0435H227.416Z" fill="#3DB3FF"/>
<path d="M247.333 48.2915H246.717H240.954H240.338H234.422H233.96H227.427V54.0545H233.96H234.422H240.338H240.954H246.717H247.333H253.711V48.2915H247.333ZM253.096 49.0959V50.9581H247.333V49.0959H253.096ZM246.717 49.0959V50.9581H240.954V49.0959H246.717ZM240.338 49.0959V50.9581H234.576V49.0959H240.338ZM233.795 49.0959V50.9581H228.032V49.0959H233.795ZM228.032 53.2391V51.3769H233.795V53.2391H228.032ZM234.576 53.2391V51.3769H240.338V53.2391H234.576ZM240.954 53.2391V51.3769H246.717V53.2391H240.954ZM247.333 53.2391V51.3769H253.096V53.2391H247.333Z" fill="#3DB3FF"/>
<path d="M280.315 48.2915H253.711V54.0545H280.315V48.2915Z" fill="#0875B2"/>
<path d="M278.093 57.7571H255.922C254.701 57.7571 253.701 56.7654 253.701 55.5312H280.304C280.315 56.7544 279.314 57.7571 278.093 57.7571Z" fill="#1DDCEE"/>
<path d="M261.861 61.4487C259.012 61.4487 256.714 59.1347 256.714 56.2917V55.4873H267.019V56.2917C267.008 59.1347 264.709 61.4487 261.861 61.4487Z" fill="#0875B2"/>
<path d="M277.895 54.0435L270.835 54.0545L263.84 48.2915H270.989L277.895 54.0435Z" fill="#1DDCEE"/>
<path d="M265.16 54.0435H261.586L254.602 48.2915H258.165L265.16 54.0435Z" fill="#1DDCEE"/>
<path d="M202.408 45.4155V46.6387L201.649 46.6497L199.625 46.6827L189.53 46.859L187.341 46.8921L177.344 47.0574L175.189 47.1015L166.556 47.2447L165.269 47.2667H164.928L163.63 47.2888L153.799 47.4541L151.148 47.4982L140.063 47.6855L137.555 47.7296L128.57 47.8838L126.437 47.9169L116.924 48.0711L115.131 48.1042L106.575 48.2475L104.596 48.2805L95.8085 48.4348L93.5759 48.4678L85.8887 48.6001L84.327 48.6221L78.3003 48.7213L77.0356 48.7433L74.3632 48.7874V47.5643L85.0308 47.3769H85.1738L94.6317 47.2227L95.0166 47.2117L105.761 47.0353H105.86L127.481 46.6717L127.844 46.6607L138.655 46.4844L138.996 46.4734L152.215 46.253L152.776 46.242L164.444 46.0436L165.742 46.0216L175.97 45.8563L176.487 45.8453L188.276 45.6469H188.496L200.351 45.4486L200.89 45.4376L202.408 45.4155Z" fill="#3DB3FF"/>
<path d="M106.229 188.053L105.683 188.657L123.384 204.712L123.93 204.107L106.229 188.053Z" fill="black"/>
<path d="M141.932 221.546L143.01 220.323L122.928 202.571C122.763 202.428 122.522 202.439 122.379 202.604L121.818 203.244C121.675 203.409 121.686 203.651 121.851 203.795L141.932 221.546Z" fill="#6F6F6F"/>
<path d="M99.2727 172.522L101.065 158.814C101.153 158.153 100.548 157.602 99.8995 157.756L85.5147 161.15C84.9868 161.271 84.503 161.569 84.151 161.987L81.9845 164.577C81.8965 164.676 81.9295 164.841 82.0505 164.897L86.0866 166.803L66.7639 207.298L70.2061 213.194L99.2727 172.522Z" fill="#139EF7"/>
<path d="M56.9321 226.483L65.4332 231.166C67.1048 232.092 69.0624 232.356 70.921 231.926L92.5202 226.879C92.8281 226.813 92.9161 226.417 92.6741 226.218L91.9043 225.601C91.5854 225.348 91.1895 225.205 90.7716 225.205L87.4283 225.238C86.4275 225.249 85.4487 224.929 84.6459 224.345L64.2124 209.524C64.0365 209.392 63.7725 209.447 63.6626 209.645L55.9973 223.155C55.3264 224.323 55.7443 225.833 56.9321 226.483Z" fill="#3D3D3D"/>
<path d="M62.5848 209.646L66.335 203.651L73.4504 215.75C73.5824 215.971 73.5824 216.257 73.4394 216.467L72.5486 217.877C71.9657 218.803 70.668 218.935 69.9202 218.142L62.6618 210.483C62.4528 210.263 62.4198 209.91 62.5848 209.646Z" fill="black"/>
<path d="M146.969 212.499L131.177 202.141L92.7181 182.064L88.0882 169.767L95.0276 170.682C95.4345 170.737 95.7975 170.946 96.0614 171.266L98.9318 174.858L141.404 190.836L156.097 203.849L146.969 212.499Z" fill="#6F6F6F"/>
<path d="M87.1094 173.305L88.0882 169.756L92.7181 182.054L90.2437 185.139L87.1314 174.351C87.0214 174.01 87.0214 173.646 87.1094 173.305Z" fill="#525252"/>
<path d="M132.254 195.53C132.265 195.398 132.254 195.265 132.232 195.133C132.1 194.373 131.485 193.756 130.682 193.657C129.692 193.524 128.779 194.23 128.658 195.221C128.526 196.213 129.23 197.128 130.22 197.249C131.21 197.381 132.122 196.676 132.243 195.684C132.254 195.629 132.254 195.585 132.254 195.53Z" fill="#139EF7"/>
<path d="M95.7095 181.04L98.8988 176.654L134.256 190.252L133.992 192.224L99.7236 178.704L98.2829 180.897L95.7095 181.04Z" fill="#139EF7"/>
<path d="M94.7197 173.415L93.0261 173.194L91.9923 174.539L92.6412 176.114L94.3348 176.335L95.3685 174.99L94.7197 173.415Z" fill="black"/>
<path d="M97.832 163.09C98.9314 163.09 99.8226 162.197 99.8226 161.095C99.8226 159.994 98.9314 159.101 97.832 159.101C96.7326 159.101 95.8414 159.994 95.8414 161.095C95.8414 162.197 96.7326 163.09 97.832 163.09Z" fill="#6F6F6F"/>
<path d="M140.305 190.406L116.066 171.718C115.615 171.365 114.955 171.475 114.625 171.949L113.383 173.767L113.295 173.888C112.987 174.34 113.097 174.957 113.537 175.277L128.713 186.054L140.305 190.406Z" fill="#139EF7"/>
<path d="M100.284 164.808L113.394 173.767L114.592 172.004L100.658 161.943L100.284 164.808Z" fill="black"/>
<path d="M136.466 189.194C136.038 188.302 135.444 187.718 134.575 187.012C132.001 184.919 129.967 184.048 129.879 184.015C120.905 180.236 112.976 177.503 112.888 177.47C107.29 175.552 103.353 173.966 99.7786 171.541C99.7456 171.519 99.6576 171.442 99.5586 171.354C99.1407 170.979 98.2719 170.208 97.0402 169.47C96.2704 169.007 95.2036 168.368 93.6749 168.037C92.8611 167.861 91.7503 167.619 90.3427 167.938C89.0779 168.225 87.9782 168.842 87.1644 169.712C86.6365 170.274 86.4935 170.66 86.3395 171.079C86.1966 171.475 86.0206 171.927 85.4597 172.676C84.437 174.032 83.2382 174.847 82.8423 175.112C82.3804 175.431 81.8855 175.707 81.3796 175.96L81.2807 176.511C81.8086 176.258 82.6114 175.817 83.0953 175.497C83.5022 175.222 84.7559 174.373 85.8227 172.952C86.4275 172.159 86.6035 171.663 86.7685 171.233C86.9114 170.836 87.0324 170.517 87.4943 170.021C88.2531 169.216 89.2649 168.643 90.4416 168.379C91.7394 168.081 92.7511 168.302 93.5759 168.478C95.0386 168.798 96.0614 169.415 96.8092 169.856C97.997 170.572 98.8548 171.321 99.2617 171.685C99.3937 171.806 99.4816 171.872 99.5256 171.916C103.144 174.362 107.103 175.96 112.734 177.9C112.811 177.922 120.74 180.654 129.692 184.434C129.714 184.445 131.748 185.315 134.278 187.365C135.103 188.037 135.653 188.577 136.049 189.393C136.664 190.671 136.752 191.817 136.301 192.797C135.807 193.888 134.839 194.373 134.377 194.616C133.596 195.001 132.837 195.122 132.232 195.134C132.254 195.266 132.265 195.398 132.254 195.53C132.947 195.497 133.882 195.376 134.586 195.023C135.103 194.77 136.159 194.23 136.73 192.985C137.236 191.872 137.148 190.605 136.466 189.194Z" fill="black"/>
<path d="M72.2297 186.88L74.7921 188.268C75.111 188.445 75.5069 188.312 75.6609 187.993L86.0866 166.814L82.3694 165.051L71.9657 186.042C71.8118 186.34 71.9327 186.714 72.2297 186.88Z" fill="#6F6F6F"/>
<path d="M73.4834 182.979C73.3184 182.021 73.3294 181.051 73.5384 180.125C73.8463 178.781 74.4732 177.91 75.133 176.996C75.9578 175.85 76.8157 174.671 78.3663 173.933C78.7622 173.745 79.5431 173.525 81.1047 173.084C81.8525 172.875 82.6334 172.665 83.3702 172.478L83.1173 173.018C82.3804 173.205 81.9735 173.315 81.2257 173.525C79.697 173.955 78.9272 174.175 78.5643 174.351C77.1126 175.045 76.2988 176.18 75.5069 177.271C74.8691 178.142 74.2752 178.979 73.9893 180.236C73.7913 181.095 73.7693 181.359 73.8463 182.263L73.4834 182.979Z" fill="black"/>
<path d="M63.1897 209.161C64.9086 209.161 66.302 207.765 66.302 206.042C66.302 204.32 64.9086 202.924 63.1897 202.924C61.4708 202.924 60.0774 204.32 60.0774 206.042C60.0774 207.765 61.4708 209.161 63.1897 209.161Z" fill="#6F6F6F"/>
<path d="M65.3122 205.249L74.2972 187.993L72.2847 186.902L63.4756 203.783C62.2329 203.618 61.0891 204.499 60.9352 205.745C60.7702 206.99 61.65 208.136 62.8927 208.29C64.1355 208.455 65.2792 207.574 65.4332 206.329C65.4882 205.954 65.4332 205.59 65.3122 205.249Z" fill="#3D3D3D"/>
<path d="M64.2564 206.075L63.6956 206.99L62.6178 206.957L62.1119 206.009L62.6728 205.095L63.7506 205.128L64.2564 206.075Z" fill="#6F6F6F"/>
<path d="M70.954 200.268C69.3813 200.059 66.5879 199.695 66.5879 199.695L63.4866 203.783C64.3444 203.894 65.0373 204.478 65.3232 205.249L67.5997 202.318L70.635 202.693C70.5031 202.307 70.4481 201.877 70.5031 201.447C70.558 201.018 70.723 200.61 70.954 200.268Z" fill="#1B2026"/>
<path d="M73.5384 199.111C72.4936 198.979 71.5148 199.453 70.954 200.268C70.723 200.61 70.558 201.007 70.5031 201.447C70.4481 201.877 70.4921 202.307 70.635 202.693C70.965 203.629 71.7898 204.356 72.8455 204.489C74.3302 204.687 75.6939 203.64 75.8809 202.153C76.0678 200.665 75.0231 199.31 73.5384 199.111Z" fill="#6F6F6F"/>
<path d="M73.9453 200.929L72.6806 200.764L71.9107 201.778L72.3946 202.957L73.6594 203.122L74.4292 202.109L73.9453 200.929Z" fill="black"/>
<path d="M198.207 203.1C196.238 203.904 194.919 204.279 194.369 205.833C194.369 205.833 194.369 224.488 194.391 224.488H197.459L197.382 207.012C197.569 206.219 198.361 206.296 198.361 206.296" fill="#2B383D"/>
<path d="M198.372 206.284C198.809 206.284 199.164 205.564 199.164 204.676C199.164 203.787 198.809 203.067 198.372 203.067C197.934 203.067 197.58 203.787 197.58 204.676C197.58 205.564 197.934 206.284 198.372 206.284Z" fill="black"/>
<path d="M192.554 212.996H199.274C201.737 212.996 203.739 215.001 203.739 217.469H188.089C188.089 215.001 190.091 212.996 192.554 212.996Z" fill="black"/>
<path d="M223.701 259.363L221.88 255.23L220.301 255.928L222.121 260.062L223.701 259.363Z" fill="#3D3D3D"/>
<path d="M223.361 267.037L224.21 262.6L222.514 262.274L221.665 266.711L223.361 267.037Z" fill="#3D3D3D"/>
<path d="M114.141 262.658L114.855 267.119L116.56 266.845L115.845 262.384L114.141 262.658Z" fill="#3D3D3D"/>
<path d="M117.064 254.653L114.809 258.565L116.304 259.43L118.559 255.518L117.064 254.653Z" fill="#3D3D3D"/>
<path d="M144.587 247.663L192.514 247.663L192.514 240.457L144.587 240.457L144.587 247.663Z" fill="black"/>
<path d="M210.077 272.509L214.586 272.509L214.586 270.779L210.077 270.779L210.077 272.509Z" fill="#3D3D3D"/>
<path d="M200.715 272.509L205.224 272.509L205.224 270.779L200.715 270.779L200.715 272.509Z" fill="#3D3D3D"/>
<path d="M191.365 272.509L195.874 272.509L195.874 270.779L191.365 270.779L191.365 272.509Z" fill="#3D3D3D"/>
<path d="M182.014 272.509L186.523 272.509L186.523 270.779L182.014 270.779L182.014 272.509Z" fill="#3D3D3D"/>
<path d="M172.652 272.509L177.161 272.509L177.161 270.779L172.652 270.779L172.652 272.509Z" fill="#3D3D3D"/>
<path d="M163.301 272.509L167.81 272.509L167.81 270.779L163.301 270.779L163.301 272.509Z" fill="#3D3D3D"/>
<path d="M153.951 272.509L158.46 272.509L158.46 270.779L153.951 270.779L153.951 272.509Z" fill="#3D3D3D"/>
<path d="M144.589 272.509L149.098 272.509L149.098 270.779L144.589 270.779L144.589 272.509Z" fill="#3D3D3D"/>
<path d="M135.238 272.509L139.747 272.509L139.747 270.779L135.238 270.779L135.238 272.509Z" fill="#3D3D3D"/>
<path d="M125.877 272.509L130.386 272.509L130.386 270.779L125.877 270.779L125.877 272.509Z" fill="#3D3D3D"/>
<path d="M117.377 270.156L121.169 272.601L122.103 271.146L118.311 268.701L117.377 270.156Z" fill="#3D3D3D"/>
<path d="M127.439 251.179L123.182 252.67L123.752 254.303L128.009 252.812L127.439 251.179Z" fill="#3D3D3D"/>
<path d="M136.729 248.204L132.472 249.696L133.042 251.329L137.299 249.838L136.729 248.204Z" fill="#3D3D3D"/>
<path d="M146.001 246.791H141.492V248.521H146.001V246.791Z" fill="#3D3D3D"/>
<path d="M154.865 246.791H150.356V248.521H154.865V246.791Z" fill="#3D3D3D"/>
<path d="M163.861 246.791H159.352V248.521H163.861V246.791Z" fill="#3D3D3D"/>
<path d="M172.857 246.791H168.348V248.521H172.857V246.791Z" fill="#3D3D3D"/>
<path d="M181.853 246.791H177.344V248.521H181.853V246.791Z" fill="#3D3D3D"/>
<path d="M190.849 246.791H186.34V248.521H190.849V246.791Z" fill="#3D3D3D"/>
<path d="M201.582 248.142L197.327 246.647L196.755 248.28L201.01 249.775L201.582 248.142Z" fill="#3D3D3D"/>
<path d="M209.633 250.776L205.377 249.281L204.806 250.914L209.061 252.409L209.633 250.776Z" fill="#3D3D3D"/>
<path d="M218.485 253.576L214.23 252.081L213.659 253.713L217.914 255.208L218.485 253.576Z" fill="#3D3D3D"/>
<path d="M217.898 272.296L221.582 269.691L220.586 268.277L216.902 270.882L217.898 272.296Z" fill="#3D3D3D"/>
<path d="M123.357 253.48L141.47 247.662H196.931L215.044 253.48C219.531 253.48 223.171 257.535 223.171 262.538C223.171 267.54 219.531 271.595 215.044 271.595H123.357C118.87 271.595 115.23 267.54 115.23 262.538C115.23 257.535 118.87 253.48 123.357 253.48Z" fill="#808080"/>
<path d="M124.941 254.295L142.427 249.249H195.963L213.449 254.295C217.782 254.295 221.291 257.81 221.291 262.152C221.291 266.494 217.782 270.009 213.449 270.009H124.941C120.608 270.009 117.1 266.494 117.1 262.152C117.1 257.81 120.619 254.295 124.941 254.295Z" fill="#3D3D3D"/>
<path d="M139.249 237.524H218.343C218.343 237.524 218.101 234.858 217.595 231.42C217.387 229.976 217.123 228.389 216.815 226.803C216.32 224.257 215.693 221.723 214.923 219.772C214.098 217.679 213.119 216.268 211.976 216.268C211.503 216.268 173.825 216.29 173.825 216.29L173.638 215.155L170.933 199.189C170.328 195.64 169.503 194.957 165.907 195.012L149.883 195.244C146.166 195.299 143.087 198.142 142.724 201.844L139.249 237.524Z" fill="#139EF7"/>
<path d="M156.834 192.753L155.448 192.775C154.129 192.797 153.062 193.888 153.084 195.21L156.878 195.155L156.834 192.753Z" fill="#6F6F6F"/>
<path d="M158.22 192.731L156.834 192.753L156.867 195.155L160.661 195.1C160.639 193.778 159.55 192.72 158.22 192.731Z" fill="#808080"/>
<path d="M144.572 200.301C144.352 200.18 143.615 200.147 143.054 200.378C142.372 200.654 142.163 201.117 142.086 202.009C141.635 202.031 141.25 202.384 141.195 202.847L140.393 209.017C140.327 209.524 140.679 209.998 141.173 210.086C141.173 210.395 141.217 210.758 141.338 211.078C141.58 211.695 141.987 211.937 142.735 212.026C142.966 212.059 143.219 212.07 143.516 212.081L143.538 211.541C142.273 211.486 142.02 211.342 141.833 210.869C141.734 210.626 141.701 210.351 141.701 210.141L141.811 210.152C142.339 210.218 142.823 209.855 142.889 209.326L143.692 203.155C143.758 202.626 143.395 202.141 142.867 202.075L142.614 202.042C142.691 201.227 142.856 201.017 143.252 200.863C143.692 200.687 144.22 200.731 144.319 200.764C144.308 200.764 144.308 200.764 144.308 200.753L144.572 200.301Z" fill="black"/>
<path d="M143.076 207.938L143.516 204.588C142.922 204.511 142.372 204.929 142.295 205.524L142.141 206.725C142.064 207.31 142.482 207.86 143.076 207.938Z" fill="#707070"/>
<path d="M211.855 268.709C215.511 268.709 218.475 265.739 218.475 262.075C218.475 258.411 215.511 255.441 211.855 255.441C208.198 255.441 205.234 258.411 205.234 262.075C205.234 265.739 208.198 268.709 211.855 268.709Z" fill="#808080"/>
<path d="M211.855 265.403C213.689 265.403 215.176 263.913 215.176 262.075C215.176 260.237 213.689 258.747 211.855 258.747C210.02 258.747 208.533 260.237 208.533 262.075C208.533 263.913 210.02 265.403 211.855 265.403Z" fill="black"/>
<path d="M196.59 268.719C198.528 268.719 200.098 267.145 200.098 265.204C200.098 263.263 198.528 261.689 196.59 261.689C194.653 261.689 193.082 263.263 193.082 265.204C193.082 267.145 194.653 268.719 196.59 268.719Z" fill="#808080"/>
<path d="M182.579 268.719C184.517 268.719 186.087 267.145 186.087 265.204C186.087 263.263 184.517 261.689 182.579 261.689C180.642 261.689 179.071 263.263 179.071 265.204C179.071 267.145 180.642 268.719 182.579 268.719Z" fill="#808080"/>
<path d="M168.557 268.719C170.495 268.719 172.066 267.145 172.066 265.204C172.066 263.263 170.495 261.689 168.557 261.689C166.62 261.689 165.049 263.263 165.049 265.204C165.049 267.145 166.62 268.719 168.557 268.719Z" fill="#808080"/>
<path d="M154.535 268.719C156.473 268.719 158.044 267.145 158.044 265.204C158.044 263.263 156.473 261.689 154.535 261.689C152.598 261.689 151.027 263.263 151.027 265.204C151.027 267.145 152.598 268.719 154.535 268.719Z" fill="#808080"/>
<path d="M140.514 268.719C142.451 268.719 144.022 267.145 144.022 265.204C144.022 263.263 142.451 261.689 140.514 261.689C138.576 261.689 137.005 263.263 137.005 265.204C137.005 267.145 138.576 268.719 140.514 268.719Z" fill="#808080"/>
<path d="M126.36 268.709C130.016 268.709 132.98 265.739 132.98 262.075C132.98 258.411 130.016 255.441 126.36 255.441C122.703 255.441 119.739 258.411 119.739 262.075C119.739 265.739 122.703 268.709 126.36 268.709Z" fill="#808080"/>
<path d="M142.871 240.451L211.452 240.451L211.452 238.578L142.871 238.578L142.871 240.451Z" fill="#3D3D3D"/>
<path d="M139.249 237.524L218.365 237.513L218.475 238.571H139.172L139.249 237.524Z" fill="#6F6F6F"/>
<path d="M156.966 199.222V216.566C156.966 216.907 156.845 217.227 156.647 217.469C156.46 217.712 156.185 217.888 155.888 217.965C155.778 217.998 155.657 218.009 155.536 218.009H145.583C144.715 218.009 144.044 217.249 144.154 216.389L144.176 216.213L144.77 211.266L146.254 199.045C146.342 198.318 146.958 197.767 147.684 197.767H155.536C156.317 197.778 156.966 198.417 156.966 199.222Z" fill="#305969"/>
<path d="M156.966 221.535V225.249C156.966 226.108 156.273 226.802 155.415 226.802H145.484C144.748 226.802 144.143 226.284 143.978 225.601C143.956 225.491 143.934 225.37 143.934 225.249V221.535C143.934 220.676 144.627 219.981 145.484 219.981H155.404C155.998 219.981 156.515 220.323 156.779 220.808C156.9 221.028 156.966 221.282 156.966 221.535Z" fill="#305969"/>
<path d="M155.877 217.965L156.636 217.469C156.449 217.712 156.185 217.888 155.877 217.965Z" fill="#2F86A8"/>
<path d="M156.79 220.819L145.484 226.813C144.748 226.813 144.143 226.295 143.978 225.612L152.721 219.992H155.404C156.009 219.981 156.526 220.323 156.79 220.819Z" fill="#2F86A8"/>
<path d="M156.966 204.456V210.318L146.419 217.998H145.572C144.704 217.998 144.033 217.238 144.143 216.378L144.165 216.202L156.966 204.456Z" fill="#2F86A8"/>
<path d="M175.035 226.813V231.431H217.595C217.398 229.987 217.167 228.4 216.892 226.813H175.035Z" fill="#6F6F6F"/>
<path d="M211.976 216.268C213.119 216.268 214.098 217.679 214.923 219.772H175.024V216.29L211.976 216.268Z" fill="#6F6F6F"/>
<path d="M171.329 218.009H159.44C158.704 218.009 158.099 217.37 158.044 216.566C158.044 216.532 158.044 216.488 158.044 216.455V199.332C158.044 198.472 158.671 197.778 159.44 197.778H168.59C168.953 197.778 169.283 197.932 169.536 198.186C169.756 198.406 169.921 198.714 169.976 199.056L170.229 200.665L170.867 204.698L171.395 207.993L172.077 212.246L172.143 212.665L172.703 216.169C172.857 217.139 172.198 218.009 171.329 218.009Z" fill="#305969"/>
<path d="M172.143 212.676L162.069 218.009H159.44C158.704 218.009 158.099 217.37 158.044 216.566L171.395 207.993L172.077 212.246L172.143 212.676Z" fill="#2F86A8"/>
<path d="M170.229 200.665L158.044 209.546V203.475L164.246 197.778H168.59C168.953 197.778 169.283 197.932 169.536 198.186C169.756 198.406 169.921 198.714 169.976 199.056L170.229 200.665Z" fill="#2F86A8"/>
<path d="M147.222 234.835H160.848C161.959 234.835 162.861 233.932 162.861 232.819C162.861 231.706 161.959 230.802 160.848 230.802H147.222C146.111 230.802 145.21 231.706 145.21 232.819C145.199 233.932 146.1 234.835 147.222 234.835Z" fill="#6F6F6F"/>
<path d="M126.36 265.403C128.194 265.403 129.681 263.913 129.681 262.075C129.681 260.237 128.194 258.747 126.36 258.747C124.525 258.747 123.038 260.237 123.038 262.075C123.038 263.913 124.525 265.403 126.36 265.403Z" fill="black"/>
<path d="M144.55 257.81H193.83C194.973 257.81 195.908 256.874 195.908 255.728C195.908 254.582 194.973 253.645 193.83 253.645H144.55C143.406 253.645 142.471 254.582 142.471 255.728C142.471 256.874 143.406 257.81 144.55 257.81Z" fill="black"/>
</svg>
