<?xml version="1.0" encoding="utf-8"?>
<!-- Generator: Adobe Illustrator 25.2.3, SVG Export Plug-In . SVG Version: 6.00 Build 0)  -->
<svg version="1.1" id="Слой_1" xmlns="http://www.w3.org/2000/svg" xmlns:xlink="http://www.w3.org/1999/xlink" x="0px" y="0px"
	 viewBox="0 0 189.2 112.8" style="enable-background:new 0 0 189.2 112.8;" xml:space="preserve">
<style type="text/css">
	.st0{opacity:0.3;fill:#42D6EA;enable-background:new    ;}
	.st1{opacity:0.8;fill:#FFAD5C;enable-background:new    ;}
	.st2{opacity:0.6;fill:#42D6EA;enable-background:new    ;}
	.st3{fill:url(#SVGID_1_);}
	.st4{fill:#FFFFFF;}
	.st5{fill:#8DF7FF;}
</style>
<rect x="20.4" y="16.7" class="st0" width="146" height="79"/>
<polygon class="st1" points="4.3,35.2 185.3,7.2 159.6,89.6 20.4,63.9 "/>
<rect x="34.6" y="9.3" class="st2" width="117.6" height="93.9"/>
<linearGradient id="SVGID_1_" gradientUnits="userSpaceOnUse" x1="93.4" y1="0.6" x2="93.4" y2="111" gradientTransform="matrix(1 0 0 -1 0 112)">
	<stop  offset="0" style="stop-color:#2AA5F4"/>
	<stop  offset="1" style="stop-color:#1BCCEC"/>
</linearGradient>
<rect x="49.5" y="1" class="st3" width="87.8" height="110.4"/>
<g>
	<path class="st4" d="M63.4,97.7V78.5h8.3c1.9,0,3.6,0.3,4.9,1c1.3,0.6,2.3,1.7,3,3.1s1,3.3,1,5.6c0,3.3-0.8,5.7-2.3,7.2
		s-3.8,2.3-6.7,2.3H63.4z M68.2,94h2.9c1,0,1.9-0.2,2.6-0.5s1.2-0.9,1.6-1.7c0.4-0.8,0.6-2,0.6-3.6s-0.2-2.8-0.5-3.7
		c-0.3-0.9-0.8-1.5-1.5-1.8s-1.6-0.5-2.7-0.5h-2.9L68.2,94L68.2,94z"/>
	<path class="st4" d="M85.8,97.7l-4.5-19.2H86l2.5,11.6l2.6-8.8v-2.7H95l3.3,11.6l2.7-11.6h4.7l-4.4,19.2h-4.4l-3.2-11.1l-3.5,11.1
		h-4.4V97.7z"/>
	<path class="st4" d="M116.6,98c-3.3,0-5.8-0.8-7.6-2.5c-1.7-1.7-2.6-4-2.6-7.1c0-3.2,0.9-5.7,2.7-7.5c1.8-1.8,4.4-2.7,7.8-2.7
		c1.2,0,2.2,0.1,3.2,0.2c0.9,0.1,1.8,0.3,2.7,0.6v4.1c-0.9-0.3-1.7-0.5-2.7-0.7c-0.9-0.1-1.9-0.2-2.8-0.2c-2.1,0-3.6,0.5-4.5,1.5
		s-1.4,2.5-1.4,4.6c0,1.9,0.4,3.3,1.3,4.2c0.9,0.9,2.2,1.4,4,1.4c1.2,0,2.2-0.2,3.2-0.5v-3.6h-4.1v-3h8.2v9.5
		c-0.7,0.4-1.6,0.8-2.8,1.2C119.9,97.8,118.4,98,116.6,98z"/>
</g>
<path class="st5" d="M101.7,44.3H85.5V28h16.3v16.3H101.7z M87.5,42.3h12.3V30H87.5V42.3z"/>
<rect x="103.7" y="35.1" class="st5" width="17.7" height="2"/>
<rect x="65.7" y="35.2" class="st5" width="17.7" height="2"/>
<rect x="92.4" y="35.1" class="st5" width="2" height="2"/>
<rect x="92.6" y="8.3" class="st5" width="2" height="17.7"/>
<rect x="92.6" y="46.3" class="st5" width="2" height="17.7"/>
</svg>
