<svg width="697" height="303" viewBox="0 0 697 303" fill="none" xmlns="http://www.w3.org/2000/svg">
<g clip-path="url(#clip0_54_5908)">
<path d="M0 228.496L192.5 302.998L696.5 244.998L538 195.998H108.5L0 228.496Z" fill="#D3D3D3"/>
<path d="M625.749 54.6934H298.629V231.058H625.749V54.6934Z" fill="#F6BA66"/>
<path d="M338 54.998H254V230.998H338V54.998Z" fill="#BF8847"/>
<path d="M298.416 55.7468H640.844L613.164 11.9512H249.705L298.416 48.4475V55.7468Z" fill="#866253"/>
<path d="M304.443 11.9512H186.5L258.5 55.7468H338.5L304.443 11.9512Z" fill="#6B4E46"/>
<path d="M598.04 84.9434H324.097V230.929H598.04V84.9434Z" fill="#333333"/>
<path d="M603.747 74.7246H315.537V84.9436H603.747V74.7246Z" fill="#777777"/>
<path d="M598.04 84.9434H324.097V95.1623H598.04V84.9434Z" fill="#E8E8E8"/>
<path d="M324.097 95.1621H456.874C456.831 96.622 456.774 99.5417 456.731 102.461H324.097V95.1621Z" fill="#BFBFBF"/>
<path d="M598.04 95.1621V102.461H449.098C449.041 99.5417 448.984 96.622 448.927 95.1621H598.04Z" fill="#BFBFBF"/>
<path d="M296 90.998H42V214.998H296V90.998Z" fill="#F6BA66"/>
<path d="M279 120.998H227V219.998H279V120.998Z" fill="#D6D6D6"/>
<path d="M275 125.998H231V214.998H275V125.998Z" fill="#725A4F"/>
<path d="M273 128.998H234V214.998H273V128.998Z" fill="#886251"/>
<path d="M271 130.998H236V177.998H271V130.998Z" fill="#9B6C5A"/>
<path d="M271 180.998H236V211.998H271V180.998Z" fill="#9B6C5A"/>
<path d="M298 214.998H40V230.998H298V214.998Z" fill="#B5B5B5"/>
<path d="M122 117.998H78V177.998H122V117.998Z" fill="white"/>
<path d="M119 120.998H81V173.998H119V120.998Z" fill="#9FE0F6"/>
<path d="M119 120.998H81V122.998H119V120.998Z" fill="#74B5C4"/>
<path d="M82 120.998H81V173.998H82V120.998Z" fill="#74B5C4"/>
<path d="M102 119.998H99V173.998H102V119.998Z" fill="white"/>
<path d="M124 177.998H77V180.998H124V177.998Z" fill="#B2B2B2"/>
<path d="M195 117.998H151V177.998H195V117.998Z" fill="white"/>
<path d="M192 120.998H154V173.998H192V120.998Z" fill="#9FE0F6"/>
<path d="M155 120.998H154V173.998H155V120.998Z" fill="#74B5C4"/>
<path d="M175 119.998H172V173.998H175V119.998Z" fill="white"/>
<path d="M197 177.998H149V180.998H197V177.998Z" fill="#B2B2B2"/>
<path d="M275 215.998H231V222.998H275V215.998Z" fill="#919191"/>
<path d="M275 223.998H231V230.998H275V223.998Z" fill="#919191"/>
<path d="M230.987 210.49H221V230.928H230.987V210.49Z" fill="#D6D6D6"/>
<path d="M284.988 210.49H275V230.928H284.988V210.49Z" fill="#D6D6D6"/>
<path d="M238 171.998H236V175.998H238V171.998Z" fill="#B5B5B5"/>
<path d="M305 83.998H33L168.994 0.998047L305 83.998Z" fill="#866253"/>
<path d="M296 83.998H42V91.998H296V83.998Z" fill="#BF8847"/>
<path opacity="0.5" d="M331.331 74.7246H323.783H315.537V84.9436H324.097V102.462H338.365V74.7246H331.331Z" fill="black"/>
<path opacity="0.4" fill-rule="evenodd" clip-rule="evenodd" d="M435.886 131.232C435.814 135.232 435.729 139.189 435.643 143.159C416.753 138.78 397.42 134.415 386.947 132.006C377.102 129.773 371.381 124.663 369.069 124.181C371.324 124.006 376.132 124.429 384.108 125.378C394.623 126.619 415.468 128.911 435.886 131.232Z" fill="#BEC2C8"/>
<path opacity="0.4" fill-rule="evenodd" clip-rule="evenodd" d="M456.731 102.459H462.495V119.014C459.642 118.839 458.543 118.693 456.631 118.488C456.703 113.101 456.646 108.298 456.731 102.459Z" fill="#BEC2C8"/>
<path fill-rule="evenodd" clip-rule="evenodd" d="M462.182 114.533C458.572 115.03 454.962 115.526 451.01 116.752C447.058 117.978 442.763 119.92 438.839 122.562C434.916 125.205 431.349 128.548 428.838 132.051C426.327 135.541 424.857 139.19 423.501 143.205C422.132 147.219 420.862 151.613 420.377 156.285C419.892 160.957 420.177 165.891 421.133 170.256C422.089 174.621 423.687 178.416 425.542 182.037C427.397 185.657 429.494 189.103 431.962 191.891C434.431 194.694 437.256 196.84 440.066 198.606C442.863 200.373 445.645 201.774 448.313 202.854C450.967 203.92 453.507 204.679 455.804 205.146C458.101 205.628 460.141 205.818 462.196 206.022C462.467 182.227 462.738 158.446 462.738 143.19C462.724 127.949 462.453 121.234 462.182 114.533Z" fill="#E5E5E5"/>
<path opacity="0.4" fill-rule="evenodd" clip-rule="evenodd" d="M556.821 120.795L547.575 127.131C545.035 127.642 547.575 127.131 540.099 129.058C529.127 131.904 509.166 137.101 489.391 142.284C489.105 138.328 488.734 134.357 488.463 130.372C509.965 127.189 531.752 123.992 542.824 122.328C548.559 121.452 554.295 120.97 556.821 120.795Z" fill="#777B86"/>
<path fill-rule="evenodd" clip-rule="evenodd" d="M404.111 187.409C404.111 198.212 404.111 209.029 404.111 219.832C404.839 219.803 405.581 219.774 406.309 219.73C406.309 208.927 406.309 198.124 406.309 187.307C405.581 187.336 404.853 187.38 404.111 187.409Z" fill="#B2B2B2"/>
<path fill-rule="evenodd" clip-rule="evenodd" d="M405.068 216.842C404.44 217.09 403.827 217.338 403.199 217.586C403.242 220.331 403.27 223.075 403.313 225.82C404.654 225.776 405.995 225.747 407.336 225.703C407.322 223.046 407.308 220.389 407.308 217.732C406.552 217.44 405.81 217.134 405.068 216.842Z" fill="#363636"/>
<path fill-rule="evenodd" clip-rule="evenodd" d="M400.745 214.854H401.258C402.428 214.854 403.384 215.832 403.384 217.029V228.445C403.384 229.642 402.428 230.62 401.258 230.62H400.745C399.575 230.62 398.619 229.642 398.619 228.445V217.029C398.633 215.832 399.589 214.854 400.745 214.854Z" fill="black"/>
<path fill-rule="evenodd" clip-rule="evenodd" d="M409.276 214.854H409.79C410.96 214.854 411.916 215.832 411.916 217.029V228.445C411.916 229.642 410.96 230.62 409.79 230.62H409.276C408.106 230.62 407.15 229.642 407.15 228.445V217.029C407.15 215.832 408.106 214.854 409.276 214.854Z" fill="black"/>
<path fill-rule="evenodd" clip-rule="evenodd" d="M520.237 187.409C520.237 198.212 520.237 209.029 520.237 219.832C519.51 219.803 518.782 219.774 518.04 219.73C518.04 208.927 518.04 198.124 518.04 187.307C518.782 187.336 519.51 187.38 520.237 187.409Z" fill="#808080"/>
<path fill-rule="evenodd" clip-rule="evenodd" d="M519.296 216.842C519.924 217.09 520.537 217.338 521.165 217.586C521.137 220.331 521.094 223.075 521.051 225.82C519.71 225.776 518.369 225.747 517.027 225.703C517.042 223.046 517.056 220.389 517.07 217.732C517.798 217.44 518.54 217.134 519.296 216.842Z" fill="#363636"/>
<path fill-rule="evenodd" clip-rule="evenodd" d="M523.605 214.854H523.091C521.921 214.854 520.965 215.832 520.965 217.029V228.445C520.965 229.642 521.921 230.62 523.091 230.62H523.605C524.775 230.62 525.731 229.642 525.731 228.445V217.029C525.731 215.832 524.775 214.854 523.605 214.854Z" fill="black"/>
<path fill-rule="evenodd" clip-rule="evenodd" d="M515.087 214.854H514.573C513.403 214.854 512.447 215.832 512.447 217.029V228.445C512.447 229.642 513.403 230.62 514.573 230.62H515.087C516.257 230.62 517.213 229.642 517.213 228.445V217.029C517.213 215.832 516.257 214.854 515.087 214.854Z" fill="black"/>
<path opacity="0.6" fill-rule="evenodd" clip-rule="evenodd" d="M598.04 175.598V179.131C598.04 179.102 598.183 179.102 598.254 179.102C598.183 179.131 598.111 179.131 598.054 179.146C597.555 179.204 597.056 179.277 596.556 179.35C596.428 179.35 596.299 179.379 596.157 179.408C590.692 180.124 585.87 180.854 581.133 181.569C578.108 182.036 575.14 182.489 572.073 182.985C561.357 184.679 549.301 186.737 537.245 188.416C525.188 190.095 513.161 191.379 501.104 192.693C498.936 195.16 496.795 197.671 494.513 199.336C493.756 199.876 492.986 200.343 492.101 200.722C492.001 200.795 491.873 200.854 491.745 200.898C491.545 201 491.317 201.073 491.088 201.16C490.503 201.394 489.861 201.598 489.148 201.803C488.82 201.876 488.491 201.978 488.149 202.08C487.464 202.241 486.708 202.387 485.88 202.576C485.852 202.576 485.838 202.576 485.781 202.606C485.509 202.679 485.21 202.737 484.896 202.781C484.011 202.956 483.027 203.117 482 203.277C481.971 203.277 481.928 203.277 481.9 203.306C480.844 203.481 479.702 203.642 478.504 203.846C477.691 203.949 476.892 204.08 476.036 204.211C475.308 204.314 474.552 204.416 473.796 204.518C473.696 204.518 473.596 204.547 473.467 204.576C470.842 204.956 468.103 205.321 465.363 205.686C476.435 194.124 487.536 182.547 498.607 170.985C521.379 171.657 544.15 172.299 557.163 172.533C570.175 172.795 573.385 172.635 578.921 172.255C583.03 171.949 588.038 171.511 598.026 170.635V172.649V175.408V175.598H598.04Z" fill="#777B86"/>
<path opacity="0.6" fill-rule="evenodd" clip-rule="evenodd" d="M425.741 170.973C402.941 171.644 380.17 172.286 367.186 172.52C354.174 172.783 351.106 172.622 345.57 172.243C341.119 171.907 335.497 171.44 324.083 170.389V178.841C324.083 178.9 324.739 178.943 325.11 179.002C325.496 179.06 325.781 179.104 326.166 179.162C328.435 179.469 330.532 179.746 332.601 180.038C333.528 180.17 334.442 180.286 335.355 180.418C337.095 180.681 338.765 180.9 340.448 181.162C341.447 181.323 342.46 181.469 343.43 181.63C346.355 182.097 349.266 182.564 352.262 183.016C357.998 183.922 364.133 184.943 370.425 185.922C372.294 186.228 374.149 186.52 376.004 186.797C377.559 187.06 379.128 187.294 380.684 187.513C381.012 187.571 381.34 187.615 381.668 187.673C383.48 187.936 385.264 188.184 387.076 188.447C392.768 189.221 398.419 189.936 404.083 190.578C404.811 190.681 405.538 190.754 406.294 190.841C411.93 191.484 417.566 192.097 423.23 192.724C425.371 195.192 427.511 197.703 429.822 199.367C432.105 201.046 434.559 201.892 439.41 202.812C439.867 202.914 440.337 202.987 440.851 203.075C441.35 203.177 441.878 203.25 442.406 203.338C443.391 203.513 444.418 203.673 445.502 203.834C446.387 203.965 447.314 204.111 448.27 204.243C449.098 204.374 449.954 204.476 450.839 204.608C451.081 204.637 451.367 204.681 451.623 204.71C452.808 204.885 454.02 205.046 455.247 205.206C456.46 205.381 457.687 205.571 458.943 205.717C447.885 194.126 436.813 182.535 425.741 170.973Z" fill="#BEC2C8"/>
<path fill-rule="evenodd" clip-rule="evenodd" d="M461.083 202.928C461.083 209.219 461.083 215.511 461.083 221.789C461.811 221.774 462.553 221.745 463.28 221.73C463.28 215.438 463.28 209.147 463.28 202.869C462.538 202.884 461.811 202.898 461.083 202.928Z" fill="#363636"/>
<path fill-rule="evenodd" clip-rule="evenodd" d="M462.325 219.717C462.795 219.907 463.281 220.096 463.751 220.286C463.723 222.388 463.694 224.491 463.666 226.593C462.639 226.564 461.611 226.534 460.584 226.505C460.598 224.476 460.598 222.432 460.613 220.403C461.183 220.184 461.754 219.95 462.325 219.717Z" fill="#363636"/>
<path fill-rule="evenodd" clip-rule="evenodd" d="M465.62 218.197H465.221C464.322 218.197 463.594 218.942 463.594 219.861V228.606C463.594 229.526 464.322 230.27 465.221 230.27H465.62C466.519 230.27 467.247 229.526 467.247 228.606V219.861C467.247 218.956 466.519 218.197 465.62 218.197Z" fill="black"/>
<path fill-rule="evenodd" clip-rule="evenodd" d="M459.1 218.197H458.714C457.816 218.197 457.088 218.942 457.088 219.861V228.606C457.088 229.526 457.816 230.27 458.714 230.27H459.1C459.999 230.27 460.726 229.526 460.726 228.606V219.861C460.726 218.956 459.984 218.197 459.1 218.197Z" fill="black"/>
<path fill-rule="evenodd" clip-rule="evenodd" d="M455.89 137.658C455.861 135.716 455.847 133.76 455.818 131.818C452.751 131.921 449.669 132.023 446.601 132.125C446.031 132.636 445.46 133.147 444.932 133.804C444.404 134.446 443.933 135.234 443.605 135.95C443.277 136.665 443.106 137.322 442.949 137.964C447.258 137.862 451.567 137.76 455.89 137.658Z" fill="#122142"/>
<path fill-rule="evenodd" clip-rule="evenodd" d="M450.767 131.994C449.925 133.95 449.084 135.892 448.242 137.848C448.755 137.833 449.269 137.819 449.768 137.804C450.61 135.848 451.452 133.892 452.294 131.936C451.794 131.95 451.281 131.965 450.767 131.994Z" fill="white"/>
<path opacity="0.4" fill-rule="evenodd" clip-rule="evenodd" d="M468.046 118.488C466.134 118.693 463.922 118.839 462.496 119.014V102.459H467.646C467.718 108.298 467.96 113.101 468.046 118.488Z" fill="#777B86"/>
<path fill-rule="evenodd" clip-rule="evenodd" d="M462.182 114.533C465.791 115.03 469.401 115.526 473.353 116.752C477.306 117.978 481.6 119.92 485.524 122.562C489.448 125.205 493.014 128.548 495.526 132.051C498.037 135.541 499.506 139.19 500.862 143.205C502.231 147.219 503.501 151.613 503.986 156.285C504.472 160.957 504.186 165.891 503.23 170.256C502.274 174.621 500.676 178.416 498.821 182.037C496.967 185.657 494.869 189.103 492.401 191.891C489.933 194.694 487.108 196.84 484.311 198.606C481.515 200.373 478.718 201.774 476.064 202.854C473.41 203.92 470.871 204.679 468.574 205.146C466.277 205.628 464.236 205.818 462.182 206.022C462.182 175.526 462.182 145.03 462.182 114.533Z" fill="#D3D3D3"/>
<path fill-rule="evenodd" clip-rule="evenodd" d="M462.181 149.424C464.379 149.614 466.576 149.818 468.958 150.869C471.355 151.92 473.938 153.818 475.836 156.081C477.733 158.344 478.96 161 479.174 164.49C479.388 167.979 478.618 172.329 477.248 176.022C475.878 179.716 473.924 182.767 471.755 184.957C469.586 187.146 467.189 188.504 465.563 189.205C463.936 189.906 463.052 189.949 462.167 190.008C462.167 186.738 462.167 183.453 462.167 176.694C462.181 169.92 462.181 159.672 462.181 149.424Z" fill="#2E2E2E"/>
<path fill-rule="evenodd" clip-rule="evenodd" d="M468.474 137.658C468.488 135.716 468.517 133.76 468.545 131.818C471.613 131.921 474.695 132.023 477.763 132.125C478.333 132.636 478.904 133.147 479.432 133.804C479.96 134.446 480.431 135.234 480.759 135.95C481.087 136.665 481.258 137.322 481.429 137.964C477.106 137.862 472.783 137.76 468.474 137.658Z" fill="#122142"/>
<path fill-rule="evenodd" clip-rule="evenodd" d="M473.596 131.994C474.438 133.95 475.28 135.892 476.122 137.848C475.608 137.833 475.094 137.819 474.581 137.804C473.739 135.848 472.897 133.892 472.055 131.936C472.569 131.95 473.082 131.965 473.596 131.994Z" fill="#808080"/>
<path fill-rule="evenodd" clip-rule="evenodd" d="M423.501 143.206C422.317 146.695 421.204 150.476 420.605 154.476H450.04C451.68 152.928 453.592 151.658 455.39 150.87C457.773 149.819 459.97 149.615 462.167 149.425V147.848L446.615 147.439L445.231 147.396C443.533 148.476 441.836 149.542 440.523 149.98C439.924 150.169 439.41 150.242 438.953 150.184C438.397 150.126 437.926 149.877 437.541 149.498C436.842 148.812 436.399 147.629 436.485 146.111C436.542 144.972 436.885 143.644 437.298 142.271H423.815C423.715 142.578 423.601 142.885 423.501 143.206Z" fill="#BEC2C8"/>
<path fill-rule="evenodd" clip-rule="evenodd" d="M462.182 149.425C464.379 149.615 466.576 149.819 468.959 150.87C470.757 151.658 472.668 152.928 474.309 154.476H503.758C503.159 150.476 502.046 146.709 500.862 143.206C500.762 142.885 500.648 142.578 500.534 142.271H487.05C487.464 143.658 487.807 144.972 487.849 146.111C487.921 147.629 487.479 148.812 486.794 149.498C486.408 149.877 485.952 150.111 485.381 150.184C484.925 150.228 484.411 150.169 483.826 149.98C482.499 149.542 480.801 148.476 479.118 147.396L477.734 147.439L462.182 147.848V149.425Z" fill="#777B86"/>
<path fill-rule="evenodd" clip-rule="evenodd" d="M462.182 138.941C456.132 138.839 450.097 138.737 444.047 138.635C441.764 139.19 439.467 139.744 437.184 140.299C436.713 142.08 436.228 143.846 435.986 145.263C435.743 146.679 435.757 147.744 436.043 148.606C436.342 149.481 436.913 150.153 437.612 150.547C438.311 150.941 439.139 151.044 439.867 150.956C440.594 150.883 441.236 150.62 442.207 150.109C443.177 149.598 444.475 148.839 445.788 148.08C451.252 148.168 456.703 148.255 462.167 148.343C462.182 145.233 462.182 142.095 462.182 138.941Z" fill="#C6C4C4"/>
<path fill-rule="evenodd" clip-rule="evenodd" d="M462.181 139.718C456.132 139.63 450.082 139.543 444.033 139.455C441.935 139.922 439.838 140.375 437.741 140.842C437.156 142.711 436.571 144.579 436.499 146.112C436.428 147.63 436.87 148.813 437.555 149.499C438.254 150.185 439.196 150.404 440.523 149.981C441.85 149.543 443.533 148.477 445.231 147.397C450.881 147.543 456.531 147.703 462.167 147.849C462.181 145.134 462.181 142.433 462.181 139.718Z" fill="#122142"/>
<path fill-rule="evenodd" clip-rule="evenodd" d="M445.873 139.279C445.659 142.024 445.445 144.768 445.246 147.513C445.702 147.484 446.173 147.454 446.63 147.425C446.815 144.71 447.001 142.009 447.186 139.294C446.744 139.294 446.301 139.294 445.873 139.279Z" fill="#C6C4C4"/>
<path fill-rule="evenodd" clip-rule="evenodd" d="M443.291 139.424C441.85 143.015 440.409 146.592 438.954 150.183C438.64 150.168 438.326 150.154 438.083 150.037C437.855 149.92 437.698 149.716 437.541 149.497C438.854 146.329 440.152 143.176 441.465 140.022C442.078 139.818 442.692 139.628 443.291 139.424Z" fill="#C6C4C4"/>
<path fill-rule="evenodd" clip-rule="evenodd" d="M462.182 138.941C468.231 138.839 474.267 138.737 480.316 138.635C482.599 139.19 484.896 139.744 487.179 140.299C487.65 142.08 488.135 143.846 488.363 145.263C488.606 146.679 488.591 147.744 488.306 148.606C488.021 149.481 487.436 150.153 486.737 150.547C486.037 150.941 485.21 151.044 484.482 150.956C483.755 150.883 483.113 150.62 482.142 150.109C481.172 149.598 479.874 148.839 478.561 148.08C473.097 148.168 467.646 148.255 462.182 148.343C462.182 145.233 462.182 142.095 462.182 138.941Z" fill="#808080"/>
<path fill-rule="evenodd" clip-rule="evenodd" d="M462.182 139.718C468.231 139.63 474.281 139.543 480.33 139.455C482.428 139.922 484.525 140.375 486.623 140.842C487.207 142.711 487.792 144.579 487.864 146.112C487.935 147.63 487.493 148.813 486.808 149.499C486.109 150.185 485.167 150.404 483.84 149.981C482.513 149.543 480.815 148.477 479.132 147.397C473.482 147.543 467.846 147.703 462.196 147.849C462.182 145.134 462.182 142.433 462.182 139.718Z" fill="#0C172E"/>
<path fill-rule="evenodd" clip-rule="evenodd" d="M478.461 139.481C478.718 142.211 478.961 144.941 479.217 147.671C478.718 147.598 478.233 147.51 477.733 147.437C477.534 144.664 477.334 141.89 477.134 139.131C477.577 139.248 478.019 139.364 478.461 139.481Z" fill="#808080"/>
<path fill-rule="evenodd" clip-rule="evenodd" d="M481.144 139.408C482.556 142.999 483.983 146.591 485.395 150.182C485.695 150.226 485.98 150.27 486.223 150.153C486.451 150.036 486.637 149.773 486.808 149.496C485.495 146.328 484.197 143.175 482.884 140.021C482.299 139.817 481.714 139.613 481.144 139.408Z" fill="#808080"/>
<path fill-rule="evenodd" clip-rule="evenodd" d="M425.542 182.039C427.397 185.659 429.494 189.104 431.962 191.893C434.431 194.695 437.256 196.841 440.066 198.608C442.863 200.374 445.645 201.776 448.313 202.856C450.967 203.922 453.507 204.681 455.804 205.148C456.731 205.338 457.616 205.484 458.472 205.601C458.643 205.63 458.814 205.644 458.986 205.674C459.699 205.761 460.398 205.849 461.097 205.907C461.468 205.951 461.825 205.98 462.196 206.009V201.411V189.98C461.311 189.922 460.441 189.878 458.8 189.177C457.159 188.476 454.777 187.133 452.608 184.929C450.439 182.739 448.484 179.688 447.115 175.995C445.745 172.301 444.975 167.966 445.189 164.462C445.403 160.973 446.63 158.316 448.527 156.053C448.998 155.484 449.512 154.958 450.054 154.447H420.619C420.534 155.046 420.448 155.644 420.391 156.257C419.906 160.929 420.191 165.863 421.147 170.228C421.219 170.52 421.276 170.798 421.347 171.075C422.289 175.119 423.815 178.652 425.542 182.039Z" fill="url(#paint0_linear_54_5908)"/>
<path fill-rule="evenodd" clip-rule="evenodd" d="M498.807 182.039C496.953 185.659 494.855 189.104 492.387 191.893C489.919 194.695 487.093 196.841 484.297 198.608C481.5 200.374 478.704 201.776 476.05 202.856C473.396 203.922 470.857 204.681 468.56 205.148C467.632 205.338 466.762 205.484 465.891 205.601C465.891 205.601 465.891 205.601 465.877 205.601C465.706 205.63 465.535 205.644 465.364 205.674C464.65 205.761 463.951 205.849 463.252 205.907C462.881 205.951 462.524 205.98 462.153 206.009V201.411V189.98C463.024 189.922 463.908 189.878 465.549 189.177C467.19 188.476 469.573 187.133 471.741 184.929C473.91 182.739 475.865 179.688 477.234 175.995C478.604 172.301 479.375 167.966 479.161 164.462C478.932 160.973 477.72 158.316 475.822 156.053C475.351 155.484 474.837 154.958 474.295 154.447H503.744C503.83 155.046 503.915 155.644 503.972 156.257C504.457 160.929 504.172 165.863 503.216 170.228C503.159 170.52 503.088 170.798 503.016 171.075C502.06 175.119 500.548 178.652 498.807 182.039Z" fill="url(#paint1_linear_54_5908)"/>
<path opacity="0.4" fill-rule="evenodd" clip-rule="evenodd" d="M384.379 128.781C376.375 127.511 373.379 125.19 372.522 125.906C374.049 126.416 379.214 130.11 387.404 131.978C397.077 134.197 413.913 138.11 431.306 142.139C431.506 140.84 431.748 139.57 432.048 138.329C428.595 137.672 424.358 136.84 417.281 135.365C407.536 133.322 392.383 130.051 384.379 128.781Z" fill="#D0D0D6"/>
<path opacity="0.4" fill-rule="evenodd" clip-rule="evenodd" d="M542.809 125.79C551.227 124.17 552.169 122.666 553.125 123.338C551.541 123.907 548.345 126.9 539.785 129.104C529.654 131.732 512.019 136.345 493.799 141.133C493.528 139.849 493.2 138.593 492.829 137.352C496.453 136.55 500.89 135.542 508.31 133.761C518.525 131.323 534.391 127.411 542.809 125.79Z" fill="#D0D0D6"/>
<path opacity="0.24" fill-rule="evenodd" clip-rule="evenodd" d="M324.097 175.189V178.824C324.097 178.883 324.753 178.927 325.124 178.985C325.51 179.043 325.795 179.087 326.18 179.146C328.449 179.452 330.546 179.73 332.615 180.022C333.542 180.153 334.456 180.27 335.369 180.401C337.109 180.664 338.779 180.883 340.462 181.146C341.147 181.248 341.846 182.328 342.517 182.43C342.66 182.357 342.845 182.766 342.988 182.766H343.016C343.173 181.306 343.287 182.241 343.444 182.051C345.185 180.022 347.068 179.846 349.052 179.846C349.08 179.846 349.08 179.846 349.08 179.846C349.765 179.846 350.407 179.452 351.092 179.219C351.677 179.014 352.248 178.766 352.833 178.737C353.032 178.708 353.389 178.503 353.589 178.503C344.8 177.627 335.511 176.372 324.097 175.189ZM456.246 205.233L455.875 205.16C455.847 205.16 455.818 205.131 455.804 205.131C453.535 204.664 451.053 203.949 448.427 202.897C448.399 202.868 448.356 202.868 448.299 202.854C445.659 201.773 442.863 200.387 440.066 198.606C437.241 196.854 434.431 194.693 431.962 191.919C431.477 191.379 431.035 190.81 430.578 190.226C428.766 187.905 427.182 185.569 425.542 182.372C424.029 182.401 422.574 182.781 421.033 182.781H421.004C418.536 182.781 415.996 182.547 413.257 182.547C405.781 182.547 396.82 182.138 383.922 181.189C376.603 180.649 367.971 179.832 357.855 178.824C359.738 179.204 361.55 179.788 363.191 180.562C364.047 180.941 364.875 181.335 365.631 181.803C367.614 182.985 369.184 184.343 370.439 185.934C372.308 186.241 374.163 186.518 376.018 186.81C377.573 187.073 379.143 187.306 380.698 187.525C381.026 187.584 381.354 187.627 381.682 187.671C383.494 187.934 385.278 188.182 387.09 188.445C392.783 189.219 398.433 189.934 404.097 190.576C404.825 190.679 405.552 190.751 406.309 190.839C411.944 191.481 417.58 192.095 423.244 192.722C425.385 195.189 427.525 197.7 429.836 199.365C432.119 201.043 434.573 201.89 439.424 202.81C439.881 202.912 440.352 202.985 440.865 203.073C441.365 203.175 441.893 203.248 442.421 203.335C443.405 203.511 444.432 203.671 445.517 203.832C446.401 203.963 447.329 204.109 448.285 204.241C449.112 204.372 449.968 204.474 450.853 204.606C451.095 204.635 451.381 204.679 451.638 204.708C452.822 204.883 454.035 205.043 455.262 205.204C456.089 205.306 456.917 205.438 457.773 205.54C457.273 205.423 456.774 205.35 456.246 205.233Z" fill="black"/>
<path opacity="0.24" fill-rule="evenodd" clip-rule="evenodd" d="M540.441 180.986C523.89 182.197 514.416 182.27 505.67 182.139C505.499 182.139 505.142 182.139 504.942 182.11C502.802 182.081 499.592 182.051 499.592 182.008C499.592 182.008 499.592 182.008 499.592 182.037C496.738 185.205 495.982 187.862 494.17 190.168C493.713 190.767 493.071 191.321 492.586 191.862C490.118 194.635 487.193 196.81 484.382 198.562C481.586 200.343 478.761 201.759 476.121 202.81C476.078 202.84 475.978 202.84 475.95 202.854C473.339 203.905 470.842 204.635 468.573 205.102C468.545 205.132 468.502 205.132 468.473 205.132C468.345 205.161 468.231 205.19 468.102 205.205C467.575 205.307 467.075 205.38 466.562 205.467C468.901 205.19 471.241 204.854 473.453 204.562C473.581 204.533 473.681 204.504 473.781 204.504C474.537 204.402 475.293 204.3 476.021 204.197C476.877 204.066 477.676 203.935 478.489 203.832C479.688 203.628 480.829 203.467 481.885 203.292C481.914 203.263 481.957 203.263 481.985 203.263C483.041 203.088 483.997 202.898 484.91 202.752C485.21 202.708 485.495 202.65 485.766 202.606C485.823 202.577 485.837 202.577 485.866 202.577C486.693 202.402 487.45 202.241 488.135 202.081C488.491 201.978 488.805 201.876 489.133 201.803C489.832 201.599 490.489 201.394 491.074 201.161C491.302 201.088 491.53 201.015 491.73 200.898C491.858 200.84 491.987 200.796 492.087 200.723C492.843 200.343 493 199.876 493.756 199.336C496.067 197.657 499.577 195.19 499.577 192.694V192.664C508.138 192.051 511.619 191.219 517.255 190.548C518.011 190.475 519.495 190.051 520.194 190.051C520.223 190.051 520.223 190.051 520.252 190.051C523.077 190.051 525.916 189.643 528.755 189.292C531.58 188.927 534.419 188.65 537.259 188.27C540.055 187.891 542.852 187.555 545.634 187.146C548.431 186.708 551.199 186.285 553.909 185.876C555.165 184.256 556.734 182.825 558.718 181.643C559.602 181.132 560.572 180.3 561.614 179.891C561.643 179.862 561.671 179.993 561.671 179.993C562.099 179.818 562.556 179.847 562.984 179.847H563.012C564.139 179.847 565.309 179.015 566.508 178.767C556.392 179.759 547.76 180.446 540.441 180.986ZM570.931 178.241C571.088 178.241 571.245 178.577 571.388 178.723C571.43 178.796 571.487 178.956 571.544 178.956C572.229 178.986 572.886 179.832 573.528 179.832H573.556C576.224 179.832 578.821 180.504 581.132 181.716C581.389 181.847 581.632 181.905 581.86 182.037C582.545 181.935 583.244 181.511 583.929 181.438C584.714 181.307 585.484 181.029 586.297 180.927C586.854 180.854 587.41 180.694 587.953 180.635C589.308 180.431 590.721 180.168 592.162 179.993C592.861 179.891 593.588 179.789 594.33 179.686C594.93 179.584 595.572 179.511 596.171 179.424C596.328 179.394 596.428 179.365 596.556 179.365C597.055 179.292 598.054 179.219 598.054 179.132V175.365C588.052 176.46 579.035 177.438 570.931 178.241Z" fill="black"/>
<path opacity="0.13" fill-rule="evenodd" clip-rule="evenodd" d="M434.602 183.643C430.179 181.482 426.427 178.796 422.831 175.979C423.616 178.095 424.543 180.081 425.542 182.037C429.451 189.672 433.104 194.212 440.052 198.606C445.018 201.745 450.454 204.051 455.776 205.146C457.987 205.599 459.942 205.803 462.168 206.022V190.008C461.283 189.949 460.413 189.906 458.772 189.205C458.329 189.015 457.887 188.811 457.473 188.592C456.261 188.665 455.005 188.679 453.749 188.635C447.286 188.373 440.381 186.475 434.602 183.643Z" fill="#4D4D4D"/>
<path opacity="0.18" fill-rule="evenodd" clip-rule="evenodd" d="M462.182 189.995V206.009C464.407 205.79 466.362 205.586 468.574 205.133C473.896 204.039 479.346 201.732 484.311 198.593C491.26 194.199 494.912 189.659 498.822 182.024C500.548 178.637 502.075 175.104 503.045 171.09C504.3 165.863 504.586 159.966 503.773 154.447H491.645C491.445 155.44 491.203 156.52 490.86 157.717C489.562 162.374 487.036 168.725 483.769 173.732C480.673 178.462 476.878 181.98 472.198 184.491C470.3 186.535 468.089 188.111 465.577 189.192C463.937 189.893 463.052 189.951 462.182 189.995Z" fill="black"/>
<path fill-rule="evenodd" clip-rule="evenodd" d="M462.182 129.513C454.977 129.44 448 129.411 442.977 129.688C439.624 129.878 437.142 130.213 435.144 130.9C433.774 131.367 432.619 132.009 431.563 132.9C430.036 134.184 428.724 135.951 427.654 137.717C426.926 138.929 426.312 140.126 425.842 141.162C425.656 141.557 425.499 141.922 425.356 142.272H436.628C436.799 141.63 436.971 140.973 437.142 140.316L444.005 138.651L462.139 138.958V129.513H462.182ZM443.605 135.951C443.933 135.235 444.404 134.447 444.932 133.805C445.46 133.162 446.031 132.637 446.601 132.126L450.768 131.994L452.308 131.951L455.818 131.834L455.89 137.673L449.783 137.819L448.256 137.863L442.949 137.98C443.106 137.323 443.277 136.666 443.605 135.951Z" fill="#F1F1F1"/>
<path opacity="0.24" fill-rule="evenodd" clip-rule="evenodd" d="M424.757 143.599C423.758 148.125 422.76 152.665 422.517 157.337C422.275 162.008 422.803 166.826 423.544 170.694C424.301 174.563 425.271 177.468 427.154 180.096C429.038 182.723 431.806 185.088 435.187 186.84C438.554 188.607 442.535 189.775 446.159 190.344C449.797 190.913 453.093 190.869 456.389 190.826C453.193 188.723 450.011 186.607 447.443 182.694C444.875 178.782 442.92 173.074 442.264 168.081C441.608 163.074 442.264 158.767 442.92 154.461C439.952 154.023 436.97 153.57 435.472 151.76C433.974 149.935 433.96 146.738 433.931 143.541C430.878 143.556 427.811 143.57 424.757 143.599Z" fill="white"/>
<path opacity="0.6" fill-rule="evenodd" clip-rule="evenodd" d="M324.097 175.893C328.378 176.477 333.885 177.047 338.279 177.572C343.059 178.141 347.282 178.623 351.163 179.09C355.715 179.631 359.681 180.098 363.234 180.506C374.605 181.791 381.54 182.521 388.274 183.032C398.918 183.835 408.977 184.112 414.513 184.185C420.077 184.287 421.119 184.492 421.247 183.455C421.276 183.178 421.247 182.755 421.047 182.755H421.019C420.519 181.295 418.85 180.229 414.256 179.572C407.907 178.623 396.036 178.565 383.608 178.083C371.21 177.587 358.426 176.463 330.689 173.704C328.52 173.499 325.524 173.193 324.097 172.959V175.193V175.893Z" fill="#D8D8D8"/>
<path opacity="0.6" fill-rule="evenodd" clip-rule="evenodd" d="M352.833 178.299C348.167 178.503 343.559 180.488 340.092 182.999C336.61 185.51 334.27 188.561 332.858 191.802C331.445 195.043 330.96 198.488 331.346 202.065C331.731 205.642 333.001 209.321 335.069 211.89C337.138 214.459 340.02 215.905 342.874 216.839C345.728 217.759 348.553 218.167 351.663 218.313C354.759 218.459 358.126 218.372 361.536 217.335C364.946 216.313 368.413 214.372 370.825 211.671C373.236 208.97 374.606 205.525 374.848 201.613C375.091 197.686 374.22 193.306 372.708 189.832C371.196 186.357 369.055 183.817 365.617 181.759C362.207 179.686 357.499 178.109 352.833 178.299Z" fill="#CBCBCB"/>
<path opacity="0.6" fill-rule="evenodd" clip-rule="evenodd" d="M353.404 212.68C361.179 212.68 367.529 206.402 367.529 198.694C367.529 190.986 361.179 184.709 353.404 184.709C345.628 184.709 339.278 190.986 339.278 198.694C339.293 206.388 345.628 212.68 353.404 212.68Z" fill="#363636"/>
<path fill-rule="evenodd" clip-rule="evenodd" d="M354.331 197.498C355.273 196.739 357.142 194.914 358.369 193.527C359.596 192.14 360.181 191.192 360.195 190.228C360.209 189.279 359.639 188.316 359.253 187.965C358.868 187.615 358.64 187.849 357.684 189.571C356.728 191.279 355.03 194.447 354.203 196.199C353.361 197.936 353.389 198.257 354.331 197.498Z" fill="#666666"/>
<path fill-rule="evenodd" clip-rule="evenodd" d="M351.862 199.923C350.921 200.682 349.052 202.506 347.825 203.893C346.598 205.28 346.013 206.244 345.998 207.193C345.984 208.156 346.555 209.105 346.94 209.455C347.325 209.806 347.553 209.572 348.509 207.864C349.465 206.156 351.149 202.974 351.991 201.236C352.833 199.47 352.804 199.163 351.862 199.923Z" fill="#666666"/>
<path fill-rule="evenodd" clip-rule="evenodd" d="M353.318 196.971C353.589 195.774 353.931 193.161 354.031 191.293C354.131 189.424 354.003 188.3 353.432 187.555C352.861 186.811 351.834 186.417 351.306 186.402C350.778 186.373 350.764 186.709 351.063 188.65C351.363 190.592 351.991 194.154 352.419 196.052C352.833 197.935 353.047 198.168 353.318 196.971Z" fill="#666666"/>
<path fill-rule="evenodd" clip-rule="evenodd" d="M352.876 200.445C352.604 201.642 352.262 204.255 352.162 206.124C352.062 207.992 352.191 209.116 352.761 209.861C353.332 210.605 354.359 210.985 354.887 211.014C355.415 211.043 355.43 210.708 355.13 208.766C354.83 206.824 354.202 203.262 353.774 201.365C353.361 199.481 353.147 199.248 352.876 200.445Z" fill="#666666"/>
<path fill-rule="evenodd" clip-rule="evenodd" d="M352.105 197.294C351.506 196.229 349.994 194.097 348.809 192.667C347.639 191.236 346.783 190.506 345.87 190.375C344.943 190.229 343.944 190.667 343.545 191.017C343.145 191.367 343.359 191.615 344.886 192.813C346.412 194.01 349.252 196.156 350.835 197.25C352.419 198.345 352.705 198.345 352.105 197.294Z" fill="#666666"/>
<path fill-rule="evenodd" clip-rule="evenodd" d="M354.103 200.123C354.702 201.189 356.214 203.32 357.399 204.751C358.583 206.182 359.425 206.912 360.352 207.043C361.279 207.189 362.278 206.736 362.678 206.401C363.077 206.05 362.863 205.802 361.336 204.605C359.81 203.408 356.97 201.262 355.401 200.167C353.803 199.087 353.489 199.072 354.103 200.123Z" fill="#666666"/>
<path fill-rule="evenodd" clip-rule="evenodd" d="M351.406 198.503C350.236 198.24 347.668 197.933 345.842 197.846C344.015 197.758 342.917 197.904 342.189 198.503C341.461 199.101 341.105 200.152 341.076 200.692C341.062 201.232 341.376 201.247 343.273 200.911C345.171 200.576 348.638 199.889 350.493 199.437C352.348 198.984 352.576 198.765 351.406 198.503Z" fill="#666666"/>
<path fill-rule="evenodd" clip-rule="evenodd" d="M354.802 198.913C355.972 199.176 358.526 199.482 360.366 199.57C362.192 199.657 363.291 199.511 364.019 198.913C364.746 198.314 365.103 197.263 365.132 196.723C365.146 196.183 364.832 196.168 362.934 196.504C361.037 196.84 357.57 197.526 355.715 197.979C353.846 198.431 353.632 198.65 354.802 198.913Z" fill="#666666"/>
<path fill-rule="evenodd" clip-rule="evenodd" d="M353.404 202.358C355.372 202.358 356.985 200.708 356.985 198.694C356.985 196.679 355.372 195.029 353.404 195.029C351.435 195.029 349.822 196.679 349.822 198.694C349.822 200.708 351.435 202.358 353.404 202.358Z" fill="#A0A0A0"/>
<path opacity="0.6" fill-rule="evenodd" clip-rule="evenodd" d="M598.04 175.382V172.623C596.614 172.681 596.542 172.754 595.815 172.827C568.078 175.587 555.151 176.638 542.724 177.134C530.325 177.63 518.44 177.514 512.105 178.477C506.241 179.324 505.142 181.076 505.114 182.127C505.085 182.2 505.114 182.287 505.114 182.36C505.242 183.397 506.298 183.499 511.834 183.397C517.398 183.324 527.457 183.032 538.101 182.243C544.522 181.747 551.142 181.09 561.629 179.908C561.657 179.879 561.686 179.879 561.686 179.879C564.611 179.572 567.807 179.178 571.402 178.74C576.253 178.2 581.775 177.557 588.224 176.784C591.32 176.419 595.201 176.039 598.055 175.63V175.382H598.04Z" fill="#C6C9CE"/>
<path opacity="0.6" fill-rule="evenodd" clip-rule="evenodd" d="M571.517 178.299C576.168 178.503 580.776 180.488 584.258 182.999C587.739 185.51 590.079 188.561 591.492 191.802C592.904 195.043 593.389 198.488 593.004 202.065C592.619 205.642 591.349 209.321 589.266 211.89C587.197 214.459 584.315 215.905 581.461 216.839C578.608 217.759 575.783 218.167 572.687 218.313C569.59 218.459 566.223 218.372 562.813 217.335C559.403 216.313 555.936 214.372 553.525 211.671C551.113 208.97 549.744 205.525 549.501 201.613C549.259 197.686 550.129 193.306 551.656 189.832C553.168 186.357 555.308 183.817 558.733 181.759C562.157 179.686 566.865 178.109 571.517 178.299Z" fill="#CBCBCB"/>
<path fill-rule="evenodd" clip-rule="evenodd" d="M570.946 212.68C578.721 212.68 585.071 206.402 585.071 198.694C585.071 190.986 578.721 184.709 570.946 184.709C563.17 184.709 556.82 190.986 556.82 198.694C556.82 206.388 563.17 212.68 570.946 212.68Z" fill="#363636"/>
<path fill-rule="evenodd" clip-rule="evenodd" d="M572.215 197.248C573.157 196.489 575.026 194.664 576.253 193.277C577.48 191.89 578.065 190.927 578.079 189.978C578.094 189.029 577.523 188.066 577.138 187.715C576.752 187.365 576.524 187.599 575.582 189.321C574.626 191.029 572.929 194.197 572.101 195.949C571.245 197.701 571.274 198.007 572.215 197.248Z" fill="#666666"/>
<path fill-rule="evenodd" clip-rule="evenodd" d="M569.747 199.673C568.806 200.432 566.936 202.256 565.709 203.643C564.482 205.03 563.897 205.994 563.883 206.943C563.869 207.891 564.44 208.855 564.825 209.205C565.21 209.556 565.438 209.322 566.394 207.614C567.35 205.906 569.034 202.724 569.876 200.986C570.703 199.22 570.689 198.913 569.747 199.673Z" fill="#666666"/>
<path fill-rule="evenodd" clip-rule="evenodd" d="M571.202 196.724C571.473 195.527 571.816 192.914 571.916 191.045C572.016 189.177 571.887 188.053 571.317 187.308C570.746 186.564 569.719 186.17 569.191 186.14C568.663 186.111 568.648 186.447 568.948 188.389C569.248 190.33 569.875 193.892 570.304 195.79C570.717 197.688 570.931 197.921 571.202 196.724Z" fill="#666666"/>
<path fill-rule="evenodd" clip-rule="evenodd" d="M570.76 200.199C570.489 201.396 570.146 204.009 570.046 205.878C569.947 207.746 570.075 208.87 570.646 209.615C571.216 210.359 572.244 210.739 572.772 210.768C573.3 210.797 573.314 210.462 573.014 208.52C572.715 206.578 572.087 203.016 571.659 201.119C571.231 199.235 571.031 199.002 570.76 200.199Z" fill="#666666"/>
<path fill-rule="evenodd" clip-rule="evenodd" d="M569.975 197.044C569.376 195.978 567.864 193.846 566.68 192.416C565.495 190.985 564.654 190.255 563.74 190.124C562.813 189.978 561.814 190.43 561.415 190.766C561.015 191.117 561.229 191.365 562.756 192.576C564.283 193.773 567.122 195.919 568.706 197.014C570.275 198.08 570.589 198.109 569.975 197.044Z" fill="#666666"/>
<path fill-rule="evenodd" clip-rule="evenodd" d="M571.973 199.879C572.572 200.93 574.085 203.076 575.269 204.507C576.453 205.937 577.295 206.667 578.222 206.799C579.15 206.945 580.148 206.492 580.548 206.142C580.947 205.791 580.733 205.543 579.207 204.346C577.68 203.149 574.841 201.003 573.271 199.908C571.688 198.842 571.374 198.828 571.973 199.879Z" fill="#666666"/>
<path fill-rule="evenodd" clip-rule="evenodd" d="M569.276 198.256C568.106 197.994 565.552 197.687 563.726 197.6C561.9 197.512 560.801 197.658 560.073 198.256C559.346 198.855 558.989 199.906 558.96 200.446C558.946 200.986 559.26 201.001 561.158 200.665C563.055 200.329 566.522 199.643 568.377 199.191C570.232 198.738 570.46 198.519 569.276 198.256Z" fill="#666666"/>
<path fill-rule="evenodd" clip-rule="evenodd" d="M572.672 198.663C573.842 198.926 576.396 199.232 578.236 199.32C580.063 199.407 581.161 199.261 581.889 198.663C582.617 198.064 582.973 197.013 583.002 196.473C583.016 195.933 582.702 195.918 580.805 196.254C578.907 196.59 575.44 197.276 573.585 197.729C571.73 198.181 571.502 198.4 572.672 198.663Z" fill="#666666"/>
<path fill-rule="evenodd" clip-rule="evenodd" d="M571.288 202.112C573.257 202.112 574.87 200.462 574.87 198.447C574.87 196.433 573.257 194.783 571.288 194.783C569.319 194.783 567.707 196.433 567.707 198.447C567.707 200.462 569.319 202.112 571.288 202.112Z" fill="#A0A0A0"/>
<path opacity="0.6" fill-rule="evenodd" clip-rule="evenodd" d="M553.524 211.672C555.936 214.373 559.403 216.314 562.813 217.336C566.223 218.358 569.59 218.46 572.686 218.314C575.782 218.168 578.607 217.759 581.461 216.84C584.315 215.92 587.197 214.475 589.265 211.891C591.334 209.321 592.604 205.628 593.004 202.066C593.389 198.489 592.904 195.059 591.491 191.803C590.778 190.168 589.836 188.577 588.623 187.088C588.623 187.424 588.623 187.745 588.609 188.081C588.495 191.234 587.682 194.519 586.269 197.935C585.87 198.898 585.427 199.876 584.9 200.84C583.844 207.54 578.008 212.665 570.946 212.665C567.207 212.665 563.797 211.219 561.272 208.869C556.649 207.307 552.597 204.212 550.514 201.044C550.143 200.489 549.829 199.92 549.472 199.365C549.444 200.124 549.444 200.869 549.501 201.599C549.743 205.526 551.099 208.971 553.524 211.672Z" fill="#B2B2B2"/>
<path opacity="0.6" fill-rule="evenodd" clip-rule="evenodd" d="M361.536 217.337C364.946 216.315 368.413 214.373 370.825 211.673C372.765 209.498 374.035 206.841 374.577 203.848C371.196 205.965 367.158 207.979 363.049 208.914C360.523 211.264 357.127 212.695 353.404 212.695C346.141 212.695 340.163 207.264 339.378 200.3C339.364 200.286 339.335 200.257 339.321 200.242C336.425 197.162 334.684 193.979 333.371 190.768C333.186 191.118 333.029 191.483 332.872 191.833C331.46 195.074 330.974 198.519 331.36 202.096C331.745 205.673 333.015 209.352 335.084 211.921C337.152 214.49 340.035 215.935 342.888 216.87C345.742 217.789 348.567 218.198 351.677 218.344C354.759 218.461 358.126 218.359 361.536 217.337Z" fill="#B2B2B2"/>
<path opacity="0.6" fill-rule="evenodd" clip-rule="evenodd" d="M350.151 179.232C348.438 179.773 346.726 180.298 344.9 181.232C343.074 182.167 341.147 183.495 339.92 184.444C338.693 185.393 338.18 185.948 337.652 186.503C338.08 188.561 338.522 190.634 338.95 192.692C340.634 190.269 342.332 187.846 344.201 185.612C346.07 183.364 348.11 181.291 350.151 179.232Z" fill="white"/>
<path opacity="0.6" fill-rule="evenodd" clip-rule="evenodd" d="M567.321 179.775C565.609 180.316 563.897 180.841 562.071 181.775C560.245 182.71 558.318 184.038 557.091 184.987C555.864 185.936 555.351 186.491 554.823 187.045C555.251 189.104 555.693 191.177 556.121 193.235C557.819 190.812 559.503 188.389 561.372 186.155C563.255 183.892 565.281 181.834 567.321 179.775Z" fill="white"/>
<path opacity="0.5" fill-rule="evenodd" clip-rule="evenodd" d="M444.932 155.06C437.655 155.046 430.393 155.017 423.116 155.002C423.13 156.929 423.159 158.871 423.658 160.681C424.158 162.491 425.142 164.184 428.766 163.221C432.39 162.243 438.668 158.652 444.932 155.06Z" fill="white"/>
<path d="M442.052 221.584H440.226V224.066H442.052V221.584Z" fill="#4D4D4D"/>
<path d="M520.466 219.541H518.083V222.767H520.466V219.541Z" fill="#4D4D4D"/>
<path d="M406.537 219.131H404.154V222.357H406.537V219.131Z" fill="#4D4D4D"/>
<path fill-rule="evenodd" clip-rule="evenodd" d="M462.181 149.424C459.984 149.614 457.787 149.818 455.404 150.869C453.007 151.92 450.425 153.818 448.527 156.081C446.629 158.344 445.402 161 445.188 164.49C444.974 167.979 445.745 172.329 447.114 176.022C448.484 179.716 450.439 182.767 452.608 184.957C454.776 187.146 457.173 188.504 458.8 189.205C460.441 189.906 461.311 189.949 462.196 190.008C462.281 181.03 462.367 172.037 462.367 165.278C462.352 158.504 462.267 153.964 462.181 149.424Z" fill="#363636"/>
<path fill-rule="evenodd" clip-rule="evenodd" d="M456.403 164.257C455.119 166.125 454.805 168.812 455.248 171.264C455.676 173.702 456.86 175.907 458.144 177.264C459.428 178.607 460.798 179.089 462.182 179.571C462.182 173.133 462.182 166.709 462.182 160.271C459.927 161.337 457.687 162.388 456.403 164.257Z" fill="#262626"/>
<path opacity="0.2" fill-rule="evenodd" clip-rule="evenodd" d="M460.955 151.803C458.201 152.693 455.433 153.584 453.307 155.175C451.167 156.766 449.669 159.073 448.827 161.117C447.985 163.16 447.814 164.956 448.1 166.474C448.385 167.993 449.113 169.204 451.367 169.934C453.607 170.649 457.374 170.883 461.126 171.102C461.055 164.664 461.012 158.226 460.955 151.803Z" fill="white"/>
<path fill-rule="evenodd" clip-rule="evenodd" d="M467.946 164.257C469.23 166.125 469.544 168.812 469.102 171.264C468.659 173.702 467.475 175.907 466.205 177.264C464.921 178.607 463.551 179.089 462.182 179.571C462.182 173.133 462.182 166.709 462.182 160.271C464.422 161.337 466.662 162.388 467.946 164.257Z" fill="#1F1F1F"/>
</g>
<defs>
<linearGradient id="paint0_linear_54_5908" x1="449.609" y1="231.761" x2="432.868" y2="128.46" gradientUnits="userSpaceOnUse">
<stop stop-color="#A09FA0"/>
<stop offset="1" stop-color="#C4C5C5"/>
</linearGradient>
<linearGradient id="paint1_linear_54_5908" x1="479.301" y1="178.654" x2="438.341" y2="161.661" gradientUnits="userSpaceOnUse">
<stop stop-color="#A09FA0"/>
<stop offset="1" stop-color="#807E7F"/>
</linearGradient>
<clipPath id="clip0_54_5908">
<rect width="697" height="302" fill="white" transform="translate(0 0.998047)"/>
</clipPath>
</defs>
</svg>
