<?xml version="1.0" encoding="utf-8"?>
<!-- Generator: Adobe Illustrator 25.2.3, SVG Export Plug-In . SVG Version: 6.00 Build 0)  -->
<svg version="1.1" id="Слой_1" xmlns="http://www.w3.org/2000/svg" xmlns:xlink="http://www.w3.org/1999/xlink" x="0px" y="0px"
	 viewBox="0 0 189.2 112.8" style="enable-background:new 0 0 189.2 112.8;" xml:space="preserve">
<style type="text/css">
	.st0{fill:#FFAD5C;}
	.st1{fill:#38A1E2;}
	.st2{fill:#FFFFFF;}
	.st3{fill:url(#SVGID_1_);}
	.st4{opacity:0.6;}
	.st5{opacity:0.3;}
	.st6{fill:url(#SVGID_2_);}
	.st7{fill:url(#SVGID_3_);}
	.st8{fill:url(#SVGID_4_);}
	.st9{fill:url(#SVGID_5_);}
</style>
<circle class="st0" cx="35.2" cy="48.8" r="35.2"/>
<circle class="st0" cx="157.6" cy="83" r="16.2"/>
<circle class="st0" cx="180.2" cy="63.6" r="8.2"/>
<path class="st1" d="M162.6,102.8h-7.8V18.6c0-0.9-0.7-1.6-1.6-1.6H42.4c-0.9,0-1.6,0.7-1.6,1.6v84.2h-7.3c-1.4,0-2.5,1.1-2.5,2.5
	v0.7c0,1.4,1.1,2.5,2.5,2.5h129.1c1.4,0,2.5-1.1,2.5-2.5v-0.7C165.1,104,164,102.8,162.6,102.8z"/>
<path class="st2" d="M150.7,102.2H45c-0.7,0-1.3-0.6-1.3-1.3v-80c0-0.7,0.6-1.3,1.3-1.3h105.7c0.7,0,1.3,0.6,1.3,1.3v79.9
	C152,101.6,151.4,102.2,150.7,102.2z"/>
<linearGradient id="SVGID_1_" gradientUnits="userSpaceOnUse" x1="101.1" y1="84.9303" x2="101.1" y2="13.683" gradientTransform="matrix(1 0 0 -1 0 112)">
	<stop  offset="0" style="stop-color:#75DDF7"/>
	<stop  offset="1" style="stop-color:#6AC6FE"/>
</linearGradient>
<path class="st3" d="M82.3,92.1v-49h71.3L147,55.3v36.8H82.3z M48.6,92.1h31.1v-49H48.6V92.1z M147,40.3V25.6H48.6v14.7H147z
	 M79.7,93.9H48.6V97h31.1V93.9z M77,93.9V97h70v-3.1H77z"/>
<polygon class="st2" points="103.7,16.1 101.2,22.7 153.9,22.2 150.1,15.1 "/>
<g class="st4">
	<path class="st2" d="M149.3,100.2l-18.8-26.6c5.6-4.8,9.5-11.7,10.5-19.5c0.2-1.3,6.7-0.3,6.7-1.6c0-1.6,7.5-6.6,5.5-8.8
		c-1.6-1.7-12.7-0.7-13.1-1.8c-3.7-12.9-15.5-22.3-29.5-22.3c-16.9,0-30.7,13.7-30.7,30.7c0,16.9,13.7,30.7,30.7,30.7
		c5.5,0,10.7-1.5,15.1-4l18.8,26.6L149.3,100.2z"/>
</g>
<g class="st5">
	<path class="st2" d="M124.9,106.1l-18.8-26.6c6.6-5.6,10.7-14,10.7-23.3c0-16.9-13.7-30.7-30.7-30.7S55.4,39.2,55.4,56.2
		c0,16.9,13.7,30.7,30.7,30.7c5.5,0,10.7-1.5,15.1-4l18.8,26.6L124.9,106.1z"/>
</g>
<g>
	
		<linearGradient id="SVGID_2_" gradientUnits="userSpaceOnUse" x1="104.8" y1="96.85" x2="151" y2="96.85" gradientTransform="matrix(1 0 0 -1 0 112)">
		<stop  offset="0" style="stop-color:#67C2D9"/>
		<stop  offset="1" style="stop-color:#6ECFFB"/>
	</linearGradient>
	<path class="st6" d="M149.1,13.6h-42.5c-0.7,1-1.3,2-1.8,3.1H151C150.4,15.6,149.8,14.5,149.1,13.6z"/>
	
		<linearGradient id="SVGID_3_" gradientUnits="userSpaceOnUse" x1="99.2" y1="79.3" x2="154.5" y2="79.3" gradientTransform="matrix(1 0 0 -1 0 112)">
		<stop  offset="0" style="stop-color:#67C2D9"/>
		<stop  offset="1" style="stop-color:#6ECFFB"/>
	</linearGradient>
	<path class="st7" d="M153.7,44.8c0.3-0.6,0.6-1.3,0.8-1.9V20.6h-53.3c-1.3,3.4-2,7.1-2,11.1c0,4.7,1,9.2,2.9,13.1
		C102.1,44.8,153.7,44.8,153.7,44.8z"/>
	
		<linearGradient id="SVGID_4_" gradientUnits="userSpaceOnUse" x1="106.1932" y1="55.55" x2="149.4932" y2="55.55" gradientTransform="matrix(1 0 0 -1 0 112)">
		<stop  offset="0" style="stop-color:#67C2D9"/>
		<stop  offset="1" style="stop-color:#6ECFFB"/>
	</linearGradient>
	<path class="st8" d="M127.9,61.6c8.7,0,16.4-4,21.7-10.3h-43.3C111.5,57.6,119.2,61.6,127.9,61.6z"/>
</g>
<linearGradient id="SVGID_5_" gradientUnits="userSpaceOnUse" x1="112.4997" y1="101.9406" x2="144.2733" y2="56.4668" gradientTransform="matrix(1 0 0 -1 0 112)">
	<stop  offset="0" style="stop-color:#FFFFFF"/>
	<stop  offset="1" style="stop-color:#FFFFFF;stop-opacity:0"/>
</linearGradient>
<circle class="st9" cx="127.9" cy="32.1" r="30.7"/>
<path class="st1" d="M166.7,82l-18.8-26.6c6.6-5.6,10.7-14,10.7-23.3c0-16.9-13.7-30.7-30.7-30.7S97.2,15.1,97.2,32.1
	c0,16.9,13.7,30.7,30.7,30.7c5.5,0,10.7-1.5,15.1-4l18.8,26.6L166.7,82z M101.2,32.1c0-14.8,12-26.8,26.8-26.8s26.8,12,26.8,26.8
	s-12,26.8-26.8,26.8S101.2,46.9,101.2,32.1z"/>
</svg>
