<svg width="256" height="288" viewBox="0 0 256 288" fill="none" xmlns="http://www.w3.org/2000/svg">
<g clip-path="url(#clip0_215_657)">
<path d="M229.129 15.5537L211.719 87.8431L228.227 166.868L211.719 253.961H53.4754L73.557 167.308L53.7723 87.9202L75.1736 15.5537H229.129Z" stroke="black" stroke-miterlimit="10"/>
<path d="M78.6819 68.1558L70.9726 73.9208L75.4926 79.5316L70.4667 82.3314L74.6128 87.5013H75.0197L88.3597 79.3552C85.8743 76.4672 82.2231 72.2123 78.6819 68.1558Z" fill="#E6E7E8"/>
<path d="M106.869 206.242L101.095 200.146L92.5607 204.61L72.3142 205.977L71.8743 214.641L73.5899 213.737L106.484 206.407L106.869 206.242Z" fill="#E6E7E8"/>
<path d="M88.8436 79.9395L76.4493 87.5123H89.2615C90.4932 85.44 91.439 83.8526 91.747 83.3235C91.1311 82.607 90.1193 81.4276 88.8436 79.9395Z" fill="#E6E7E8"/>
<path d="M100.556 199.584L96.1789 194.965C93.7595 197.589 90.6802 199.43 86.974 200.455C82.1241 201.811 76.8782 201.535 72.5782 200.83L72.3472 205.261L92.2858 203.916L100.556 199.584Z" fill="#E6E7E8"/>
<path d="M89.3275 171.596L98.9834 175.267L101.887 170.318L106.737 171.552C107.408 170.284 108.089 168.995 108.771 167.705H91.0321L89.3275 171.596Z" fill="#E6E7E8"/>
<path d="M88.5576 171.299L90.1303 167.716H79.1107L88.5576 171.299Z" fill="#E6E7E8"/>
<path d="M85.4123 198.625L75.4705 180.955L71.4454 198.427C75.7235 199.286 80.7714 199.727 85.4123 198.625Z" fill="#E6E7E8"/>
<path d="M106.385 172.214L102.327 171.178L99.7532 175.565L103.778 177.097C104.636 175.51 105.505 173.878 106.385 172.214Z" fill="#8DC63F"/>
<path d="M197.873 220.583L198.775 210.772L179.332 208.876L181.586 222.391L197.873 220.583Z" fill="#E6E7E8"/>
<path d="M103.437 177.747L99.3792 176.204L93.8694 185.596L98.3015 187.249C99.8411 184.438 101.59 181.209 103.437 177.747Z" fill="#8DC63F"/>
<path d="M123.992 190.523L131.239 176.568L126.125 175.069L110.432 169.855C107.935 174.562 105.505 179.136 103.305 183.204L123.992 190.523Z" fill="#E6E7E8"/>
<path d="M109.068 76.6434C107.946 76.1694 106.803 75.6183 105.637 75.001L96.6628 85.4068C98.2795 86.0682 100.237 86.7957 102.261 87.5011H112.334C113.544 84.9548 114.688 82.4085 115.744 79.9062C113.665 78.7378 111.444 77.6355 109.068 76.6434Z" fill="#E6E7E8"/>
<path d="M78.7258 174.077L76.3723 179.225L87.029 198.173C91.241 196.795 94.4853 194.106 96.6738 190.193C97.0808 189.465 97.4987 188.704 97.9386 187.9L92.7147 185.96L98.6094 175.929L78.4069 168.246L76.2953 177.428L77.934 173.834L78.7258 174.077Z" fill="#E6E7E8"/>
<path d="M94.6613 67.5388C92.3738 65.6538 90.0753 63.5705 87.8098 61.3218L79.3087 67.6821C81.1783 69.8206 83.1909 72.1354 85.2694 74.5605L94.6613 67.5388Z" fill="#E6E7E8"/>
<path d="M85.7753 75.1446C86.996 76.5665 88.2387 78.0216 89.4924 79.4876C91.2521 81.549 92.5278 83.0371 92.9347 83.478C93.2976 83.8748 94.3864 84.448 95.893 85.0874L104.922 74.6154C101.81 72.8958 98.5544 70.6692 95.2772 68.0347L85.7753 75.1446Z" fill="#E6E7E8"/>
<path d="M198.731 220.484L212.621 218.941L213.952 212.25L199.611 210.85L198.731 220.484Z" fill="#E6E7E8"/>
<path d="M90.1963 87.5123H100.061C96.4429 86.1896 93.1766 84.8337 92.3078 83.9629C91.648 85.0872 90.9331 86.2777 90.1963 87.5123Z" fill="#E6E7E8"/>
<path d="M170.929 233.028C170.105 233.028 168.961 233.138 167.586 233.348C168.125 237.481 168.587 241.13 168.917 243.864L177.275 243.246L176.175 232.907C173.591 232.973 171.754 233.028 170.929 233.028Z" fill="#E6E7E8"/>
<path d="M184.665 232.576C181.762 232.697 179.167 232.797 177.022 232.863L177.704 239.311L185.776 238.727L184.665 232.576Z" fill="#E6E7E8"/>
<path d="M103.822 241.373L104.119 245.154L125.531 244.999L125.377 240.943C120.044 241.141 112.851 241.285 103.822 241.373Z" fill="#E6E7E8"/>
<path d="M83.1469 241.449L83.7737 246.002L94.2764 245.793L94.1004 241.438C90.6582 241.449 87.007 241.449 83.1469 241.449Z" fill="#E6E7E8"/>
<path d="M151.761 236.578L151.937 241.262L165.991 240.976C165.728 238.848 165.42 236.401 165.068 233.745C161.295 234.428 156.501 235.497 151.761 236.578Z" fill="#E6E7E8"/>
<path d="M150.958 44.5775L158.447 25.9926C156.006 24.8352 155.302 24.1077 155.027 23.4904C154.587 22.5204 154.488 21.5062 154.598 20.5142H153.003L144.601 42.8249L150.958 44.5775Z" fill="#E6E7E8"/>
<path d="M143.798 42.6152L152.113 20.5249H142.204C140.983 23.2696 137.596 30.9307 133.824 39.8814L143.798 42.6152Z" fill="#E6E7E8"/>
<path d="M196.015 232.058L196.312 234.913L209.674 233.778L210.169 231.297C209.344 231.341 208.519 231.397 207.672 231.441C203.702 231.672 199.765 231.882 196.015 232.058Z" fill="#E6E7E8"/>
<path d="M175.065 193.632L160.68 193.213C161.021 194.447 161.373 195.847 161.724 197.38L175.372 195.506L175.065 193.632Z" fill="#E6E7E8"/>
<path d="M221.892 172.313L222.805 167.716H219.847L221.892 172.313Z" fill="#E6E7E8"/>
<path d="M148.164 181.451C144.953 182.3 143.018 190.677 145.756 192.937C148.505 195.197 154.675 197.148 153.707 202.626C152.739 208.105 147.868 222.159 141.489 224.761C141.203 224.882 140.928 225.003 140.664 225.125C140.576 225.169 140.488 225.224 140.4 225.268C140.235 225.356 140.07 225.444 139.905 225.532C139.806 225.588 139.707 225.654 139.608 225.709C139.465 225.797 139.333 225.874 139.19 225.962C139.091 226.028 138.992 226.095 138.893 226.172C138.773 226.26 138.652 226.337 138.531 226.425C138.432 226.502 138.333 226.569 138.234 226.646C138.124 226.734 138.003 226.811 137.893 226.899C137.794 226.976 137.695 227.054 137.607 227.131C137.497 227.219 137.398 227.296 137.288 227.384C137.178 227.472 137.079 227.561 136.98 227.638C136.881 227.715 136.782 227.803 136.683 227.88C136.529 228.013 136.375 228.145 136.221 228.266C136.177 228.31 136.133 228.343 136.078 228.387L136.496 228.354L137.552 237.57C140.389 236.985 143.974 236.159 147.725 235.299C150.43 234.682 153.168 234.053 155.786 233.469V220.859L158.414 216.978L159.888 217.684L157.49 221.244V233.116C160.13 232.543 162.615 232.036 164.793 231.65C163.319 220.66 161.285 206.914 159.25 197.898L157.083 200.477L159.052 212.613L158.216 212.713L156.204 200.301L159.03 196.939C158.513 194.745 158.007 192.871 157.501 191.438C156.611 188.914 155.203 185.452 153.542 181.539C151.2 181.242 149.22 181.176 148.164 181.451Z" fill="#E6E7E8"/>
<path d="M175.614 196.917L162.032 198.779C162.318 200.113 162.604 201.535 162.89 203.023L176.274 200.885L175.614 196.917Z" fill="#E6E7E8"/>
<path d="M135.286 240.193C133.659 240.48 130.623 240.711 126.224 240.899L126.378 244.988L141.995 244.867L139.212 239.411C137.717 239.73 136.386 239.995 135.286 240.193Z" fill="#E6E7E8"/>
<path d="M181.245 230.57L179.903 222.567L166.145 222.898C166.552 225.753 166.948 228.564 167.3 231.209C168.763 231 169.995 230.879 170.918 230.879C172.216 230.89 176.01 230.78 181.245 230.57Z" fill="#E6E7E8"/>
<path d="M176.516 202.296L163.165 204.434C164.188 209.935 165.178 216.174 166.047 222.204L179.793 221.873L176.516 202.296Z" fill="#E6E7E8"/>
<path d="M108.683 229.17L105.714 228.167L92.0989 228.542V231.143L108.925 230.934L108.683 229.17Z" fill="#E6E7E8"/>
<path d="M91.2521 228.563L83.0259 228.795V231.242L91.2521 231.143V228.563Z" fill="#E6E7E8"/>
<path d="M182.95 230.504C189.746 230.228 198.566 229.82 207.496 229.324C208.563 229.269 209.586 229.203 210.598 229.148L212.478 219.668L181.707 223.096L182.95 230.504Z" fill="#E6E7E8"/>
<path d="M91.252 239.311V232.576L72.7101 232.797C72.6442 235.453 72.5892 238.837 72.6552 240.028C73.9749 239.587 75.1846 239.311 76.1854 239.311C76.5703 239.311 77.1971 239.311 78.011 239.311C82.8059 239.322 87.2049 239.322 91.252 239.311Z" fill="#E6E7E8"/>
<path d="M127.412 234.748L119.197 235.001V238.991C122.859 238.903 125.74 238.793 128.006 238.672L127.412 234.748Z" fill="#E6E7E8"/>
<path d="M171.38 71.6279C176.989 73.6451 182.752 75.7285 185.391 76.6875L189.845 73.4908L175.372 64.4629L171.38 71.6279Z" fill="#E6E7E8"/>
<path d="M176.868 82.2654L170.226 87.4132L170.27 87.5124H182.851L180.211 80.8545L176.868 82.2654Z" fill="#E6E7E8"/>
<path d="M164.595 83.7754L169.159 86.2997L175.9 81.0747L184.06 77.6466L184.665 77.2056C180.761 75.7947 175.702 73.9649 171.006 72.2783L164.595 83.7754Z" fill="#E6E7E8"/>
<path d="M190.505 73.0281L194.959 69.8314L198.841 65.356L192.419 57.5737L176.032 64.0002L190.505 73.0281Z" fill="#E6E7E8"/>
<path d="M198.753 76.1366L210.719 70.4156L203.812 62.0381L196.213 70.8014L185.006 78.8373L181.74 80.2151L184.632 87.5124H190.912L202.031 82.8607L202.404 83.489L192.815 87.5124H206.671L206.649 87.3912L210.532 71.3305L199.171 76.7539L198.753 76.1366Z" fill="#E6E7E8"/>
<path d="M139.3 54.5755L143.293 43.9713L133.263 41.2266C131.866 44.5445 130.436 48.0168 129.051 51.456L139.3 54.5755Z" fill="#E6E7E8"/>
<path d="M115.062 87.5123H126.301C123.926 85.3297 121.121 83.1802 117.899 81.1851C117.008 83.2684 116.052 85.3848 115.062 87.5123Z" fill="#8DC63F"/>
<path d="M128.776 52.1285C127.753 54.6748 126.763 57.1991 125.828 59.6242L142.644 65.2239L150.419 45.9225L144.095 44.1919L139.839 55.4906L128.776 52.1285Z" fill="#E6E7E8"/>
<path d="M168.301 50.8275L165.046 49.9347L162.769 55.7218L175.262 63.5151L191.924 56.9784L182.235 45.2168L168.301 50.8275Z" fill="#E6E7E8"/>
<path d="M121.847 70.7352C120.989 73.4249 119.945 76.2137 118.779 79.0797C120.055 79.8513 121.297 80.656 122.496 81.4938L133.329 62.8868L125.564 60.2964C124.102 64.1434 122.815 67.7259 121.847 70.7352Z" fill="#E6E7E8"/>
<path d="M158.095 67.6377L154.048 77.9443L163.88 83.3787L170.237 71.9918C164.793 70.0297 159.943 68.2881 158.095 67.6377Z" fill="#E6E7E8"/>
<path d="M132.317 87.5122H140.587L136.584 83.2793L132.317 87.5122Z" fill="#E6E7E8"/>
<path d="M174.68 64.0444L162.483 56.4385L158.348 66.9655C160.251 67.6379 165.277 69.4347 170.588 71.3527L174.68 64.0444Z" fill="#E6E7E8"/>
<path d="M152.289 77.8894L140.928 73.9211L139.487 77.4926L137.882 77.0407L142.369 65.9073L134.11 63.1626L123.156 81.979C124.927 83.2577 126.587 84.6025 128.116 86.0134C128.655 86.5095 129.172 87.0165 129.678 87.5236H131.195L136.606 82.1664L141.665 87.5236H144.491L150.166 83.3018L152.289 77.8894Z" fill="#E6E7E8"/>
<path d="M147.054 87.5123H153.982L151.112 84.481L147.054 87.5123Z" fill="#E6E7E8"/>
<path d="M153.773 78.6499L151.695 83.952L155.071 87.5125H167.597L168.51 86.796L153.773 78.6499Z" fill="#E6E7E8"/>
<path d="M78.8138 67.1088L87.282 60.7816C87.216 60.7154 87.15 60.6493 87.084 60.5832C82.553 55.9755 78.6489 51.1364 76.0644 46.9917L71.0056 50.2876L69.081 56.692C70.7306 58.0809 74.3158 61.9941 78.8138 67.1088Z" fill="#E6E7E8"/>
<path d="M74.2938 79.3441L70.3237 74.4058L66.4305 77.3269L69.9718 81.7471L74.2938 79.3441Z" fill="#E6E7E8"/>
<path d="M210.983 69.4785L213.666 58.3452L204.461 61.575L210.983 69.4785Z" fill="#E6E7E8"/>
<path d="M101.469 22.9941L100.743 25.0664L121.583 29.5528L119.956 33.7085L132.405 36.9052C135.495 29.63 138.212 23.457 139.509 20.5249H132.713L133.109 20.6462L129.787 27.9985L134.868 30.3465L134.461 30.9748L128.732 28.3292L132.251 20.5249H116.876L116.129 25.7498L101.469 22.9941Z" fill="#E6E7E8"/>
<path d="M200.942 51.963L191.044 42.3068L189.592 42.2627L189.163 42.4391L184.775 44.2028L183.005 44.9193L199.369 64.7608L203.02 60.55L214.073 56.6809L215.074 52.5472C214.062 50.8827 213.193 49.4938 212.467 48.3364L200.942 51.963Z" fill="#E6E7E8"/>
<path d="M168.18 49.2954L185.545 42.3178C186.359 40.3116 187.25 38.1069 188.152 35.8582C187.965 35.8031 187.778 35.748 187.602 35.6929C182.477 34.1607 177.22 32.5844 172.458 31.0742L165.585 48.5899L168.18 49.2954Z" fill="#E6E7E8"/>
<path d="M187.8 41.4029L189.911 36.3764C189.856 36.3544 189.801 36.3433 189.735 36.3213C188.954 38.2614 188.24 40.0361 187.668 41.447L187.8 41.4029Z" fill="#E6E7E8"/>
<path d="M170.863 30.5562C169.401 30.0822 167.993 29.6192 166.662 29.1673C163.77 28.1752 161.592 27.3595 159.965 26.665L152.574 45.0185L163.968 48.138L170.863 30.5562Z" fill="#E6E7E8"/>
<path d="M199.171 41.1162L202.184 40.1683C199.193 39.1872 195.421 38.0408 191.506 36.8613L189.834 40.8407L199.171 41.1162Z" fill="#E6E7E8"/>
<path d="M192.199 42.34L201.195 51.1254L212.049 47.6972C209.597 43.8722 208.706 42.825 208.376 42.5935C207.859 42.2188 206.474 41.6566 204.505 40.9731L199.446 42.5715L192.199 42.34Z" fill="#E6E7E8"/>
<path d="M83.8727 246.719L84.1916 249H94.4083L94.3094 246.498L83.8727 246.719Z" fill="#E6E7E8"/>
<path d="M151.97 241.979L152.234 249.001H157.413L157.127 241.869L151.97 241.979Z" fill="#E6E7E8"/>
<path d="M148.406 237.349C145.426 238.033 142.534 238.694 140.026 239.245L145.008 249.001H150.529L150.078 236.963C149.528 237.096 148.967 237.217 148.406 237.349Z" fill="#E6E7E8"/>
<path d="M142.314 245.572L126.4 245.694L126.532 249.001H144.095L142.314 245.506V245.572Z" fill="#E6E7E8"/>
<path d="M103.316 245.87L102.975 241.384C100.446 241.406 97.7736 241.428 94.9583 241.439L95.2552 249.012H125.674L125.553 245.716L103.316 245.87Z" fill="#E6E7E8"/>
<path d="M169.082 245.263C169.324 247.303 169.478 248.603 169.511 248.89L168.246 248.989H174.581L174.163 244.889L169.082 245.263Z" fill="#E6E7E8"/>
<path d="M174.999 244.834L175.427 249H187.624L186.711 243.963L174.999 244.834Z" fill="#E6E7E8"/>
<path d="M157.974 241.858L158.271 249.001H166.97C166.904 248.45 166.596 245.716 166.091 241.692L157.974 241.858Z" fill="#E6E7E8"/>
<path d="M71.3245 208.788H69.059L67.1454 217.111L70.9945 215.093L71.3245 208.788Z" fill="#E6E7E8"/>
<path d="M130.26 208.336L126.752 199.264L112.752 205.305L120.231 212.095L130.26 208.336Z" fill="#8DC63F"/>
<path d="M177.781 240.017L178.111 243.169L186.458 242.552L185.897 239.433L177.781 240.017Z" fill="#E6E7E8"/>
<path d="M78.7478 241.45L79.4626 249.001H83.3448L82.3 241.45C81.1343 241.45 79.9465 241.45 78.7478 241.45Z" fill="#E6E7E8"/>
<path d="M70.2357 246.631V248.427H69.3889V245.881L77.5051 246.234L77.0542 241.45C76.7023 241.45 76.4054 241.45 76.1854 241.45C72.7432 241.45 64.671 246.322 60.6129 249.012H77.7581L77.5601 246.961L70.2357 246.631Z" fill="#E6E7E8"/>
<path d="M71.0385 232.069L71.0605 231.386L82.19 231.253V228.101L105.879 227.45L109.475 228.674L109.783 230.923L113.071 230.879L113.093 232.301L92.0988 232.554V239.3C103.525 239.267 112.037 239.157 118.35 239.003V229.886H119.197V234.274L128.16 233.998L128.864 238.617C131.954 238.451 133.769 238.264 134.78 238.088C135.363 237.988 136.023 237.856 136.749 237.713L135.715 228.685C133.164 230.768 130.491 232.411 124.256 231.011C113.951 228.696 107.363 223.405 104.878 222.733C102.393 222.06 95.5191 221.862 87.9638 224.849C82.256 227.098 71.0165 229.853 64.22 229.853L63.0983 234.715L70.9835 234.56C70.9835 233.833 71.0055 233.006 71.0385 232.069Z" fill="#E6E7E8"/>
<path d="M70.9615 235.288L62.9223 235.442L60.3819 246.454C63.0653 244.734 67.2774 242.188 71.0275 240.645C70.9616 240.215 70.8846 239.035 70.9615 235.288Z" fill="#E6E7E8"/>
<path d="M70.7636 219.271C71.2255 218.599 77.2082 217.927 78.3409 218.213C79.4737 218.5 78.8688 219.756 78.8688 219.756C78.8688 219.756 74.6677 218.797 74.2058 219.569C73.7439 220.341 70.9945 224.772 72.6002 224.86C74.2058 224.959 78.1429 224.75 78.8688 222.689C79.5946 220.627 80.0455 219.47 80.0455 219.47C80.0455 219.47 82.7509 221.3 85.0054 220.142C87.2599 218.985 92.1868 212.636 97.9056 212.151C103.635 211.666 115.304 220.01 123.211 219.69C131.107 219.371 135.924 216.681 138.322 211.379C140.73 206.088 131.701 201.701 131.811 197.005C131.91 192.309 139.586 178.729 144.854 177.869C146.405 177.615 149.044 177.781 152.091 178.1C151.475 176.667 150.837 175.19 150.188 173.691L142.226 172.148L142.413 171.453L149.836 172.897C149.099 171.189 148.351 169.458 147.604 167.728H111.554C111.29 168.224 111.026 168.72 110.762 169.216L126.422 174.408L131.569 175.918L134.758 169.767L135.539 170.053L124.432 191.449L102.942 183.854C101.491 186.544 100.149 188.991 98.9723 191.096C98.3015 192.287 97.5536 193.378 96.7068 194.37L107.638 205.911L127.753 197.236L132.339 209.119L119.813 213.815L111.191 205.989L107.089 207.752L107.001 207.774L74.2718 215.061L66.7055 219.018L64.8139 227.23C66.0676 227.241 67.2774 227.142 68.0252 226.833C70.1917 225.918 70.3127 219.944 70.7636 219.271Z" fill="#E6E7E8"/>
<path d="M189.174 248.086L189.328 249.001H206.65L206.869 247.898L189.174 248.086Z" fill="#E6E7E8"/>
<path d="M217.053 33.0471L220.165 31.4488L222.805 20.5249H215.426L214.392 27.1939L217.053 33.0471Z" fill="#E6E7E8"/>
<path d="M205.264 33.444L208.002 37.6548L216.316 33.4109L213.523 27.282L214.568 20.5249H205.418L204.142 23.9641C202.987 27.1057 203.383 30.5559 205.264 33.444Z" fill="#E6E7E8"/>
<path d="M217.68 34.436L217.394 34.5242L208.805 38.9114L210.224 41.094C210.752 41.5239 211.906 42.7805 215.876 49.1849L216.723 45.6906L215.667 44.3899C215.667 44.3899 214.876 42.3506 218.043 40.1901L219.693 33.3447L217.647 34.3919L217.68 34.436Z" fill="#8DC63F"/>
<path d="M205.429 38.9665L205.814 38.7681L203.02 34.4691C200.821 31.074 200.348 27.0175 201.712 23.3248L202.745 20.5249H198.357L192.342 34.8549C197.961 36.5414 202.371 37.8973 205.429 38.9665Z" fill="#E6E7E8"/>
<path d="M157.402 22.7405C157.567 23.0161 158.821 24.1956 167.839 27.26C170.764 28.2521 174.031 29.2993 177.462 30.3575L182.653 20.5249H157.149C157.028 21.2745 157.083 22.0351 157.402 22.7405Z" fill="#E6E7E8"/>
<path d="M188.449 33.6754C188.624 33.7306 188.789 33.7746 188.965 33.8298C190.945 28.9024 192.925 23.9641 194.288 20.5249H183.588L178.265 30.6C181.586 31.6251 185.039 32.6613 188.449 33.6754Z" fill="#E6E7E8"/>
<path d="M190.758 34.3699L196.576 20.5249H196.059C194.618 24.1735 192.474 29.5418 190.549 34.3148C190.626 34.3258 190.692 34.3478 190.758 34.3699Z" fill="#E6E7E8"/>
<path d="M188.954 198.25C187.096 195.869 189.152 188.451 190.989 186.577C192.826 184.703 202.899 177.571 204.384 176.127C205.671 174.881 209.52 170.086 208.596 167.705H192.529L176.681 193.058L179.2 208.138L188.602 209.053L189.647 204.191L190.483 204.313L189.449 209.13L214.095 211.533L215.667 203.607C209.586 203.475 202.855 203.277 200.722 202.615C197.511 201.656 190.813 200.631 188.954 198.25Z" fill="#E6E7E8"/>
<path d="M183.093 171.607C179.2 176.711 171.919 184.317 167.487 183.644C165.079 183.281 160.548 182.421 156.38 181.837C157.864 185.353 159.118 188.451 159.932 190.787C160.042 191.096 160.152 191.427 160.262 191.768L175.306 192.209L190.626 167.705H185.567C184.775 169.127 183.962 170.472 183.093 171.607Z" fill="#E6E7E8"/>
<path d="M171.061 179.412C172.755 178.53 177.517 172.952 181.564 167.716H150.309C150.518 168.201 150.727 168.686 150.936 169.171L168.125 171.42L174.548 167.749L175.02 168.334L168.323 172.17L151.266 169.943C151.618 170.748 151.959 171.541 152.3 172.324C153.201 174.407 154.092 176.458 154.928 178.431C161.669 179.224 169.225 180.36 171.061 179.412Z" fill="#E6E7E8"/>
<path d="M215.744 167.716C216.316 168.444 216.47 169.182 215.942 169.877C213.996 172.478 203.922 180.856 197.961 183.744C192.012 186.632 188.119 195.109 190.868 197.798C192.683 199.573 205.363 201.855 215.975 202.053L216.151 201.193C210.818 201.304 205.836 200.841 205.836 200.841L191.737 194.646C191.737 194.646 194.354 188.451 196.587 187.955C198.819 187.47 209.487 191.625 215.008 186.974C216.767 185.497 218.384 183.953 219.869 182.509L221.144 176.105L217.889 177.505L214.909 175.84L202.141 187.051L200.92 186.07L214.667 173.989L217.999 175.851L221.496 174.352L221.628 173.691L218.967 167.694H215.744V167.716Z" fill="#E6E7E8"/>
<path d="M71.7424 200.687C71.4784 200.642 71.2255 200.587 70.9616 200.532L69.2239 208.072H71.3575L71.7424 200.687Z" fill="#E6E7E8"/>
<path d="M63.5492 75.0122L59.821 87.4021L69.2679 82.1441L63.5492 75.0122Z" fill="#E6E7E8"/>
<path d="M61.1737 87.5125H73.579L69.7408 82.7285L61.1737 87.5125Z" fill="#E6E7E8"/>
<path d="M73.513 42.1412C73.502 42.1081 73.48 42.0751 73.469 42.042L71.3245 49.1629L75.6575 46.352C74.7447 44.8198 74.0079 43.4089 73.513 42.1412Z" fill="#E6E7E8"/>
<path d="M197.038 241.769L208.255 240.943L209.531 234.516L196.389 235.629L197.038 241.769Z" fill="#E6E7E8"/>
<path d="M203.482 247.226L207.012 247.193L207.969 242.397L203.592 242.717L203.482 247.226Z" fill="#E6E7E8"/>
<path d="M78.176 67.5828C74.2828 63.1515 70.5986 59.073 68.828 57.4746L65.8037 67.5166L70.4887 73.3258L78.176 67.5828Z" fill="#E6E7E8"/>
<path d="M69.8507 73.8106L65.5287 68.4424L63.8351 74.0862L65.9466 76.7317L69.8507 73.8106Z" fill="#E6E7E8"/>
<path d="M202.745 242.784L188.405 243.842L189.042 247.38L202.635 247.237L202.745 242.784Z" fill="#E6E7E8"/>
<path d="M197.972 183.744C203.922 180.856 214.007 172.478 215.953 169.877C216.481 169.171 216.327 168.444 215.755 167.716H208.607C209.531 170.097 205.682 174.892 204.395 176.138C202.91 177.582 192.826 184.703 191 186.588C189.163 188.462 187.107 195.88 188.965 198.261C190.824 200.642 197.522 201.656 200.733 202.637C202.877 203.288 209.608 203.497 215.679 203.63L215.986 202.075C205.374 201.866 192.694 199.595 190.879 197.82C188.13 195.109 192.023 186.632 197.972 183.744Z" fill="#00C9EF"/>
<path d="M183.093 171.607C183.962 170.472 184.786 169.127 185.556 167.705H181.564C177.517 172.941 172.766 178.519 171.061 179.401C169.225 180.349 161.669 179.213 154.917 178.397C155.423 179.577 155.907 180.723 156.38 181.826C160.537 182.399 165.079 183.27 167.487 183.633C171.908 184.317 179.2 176.711 183.093 171.607Z" fill="#00C9EF"/>
<path d="M87.9418 224.86C95.4971 221.873 102.371 222.071 104.856 222.743C107.342 223.416 113.929 228.718 124.234 231.022C130.469 232.422 133.142 230.79 135.693 228.696L135.924 228.508L136.089 228.376C136.287 228.211 136.485 228.045 136.694 227.869C136.793 227.792 136.892 227.704 136.991 227.627C137.09 227.538 137.2 227.45 137.299 227.373C137.398 227.285 137.508 227.208 137.618 227.12C137.717 227.042 137.816 226.965 137.904 226.888C138.014 226.8 138.124 226.723 138.245 226.635C138.344 226.557 138.443 226.491 138.542 226.414C138.663 226.326 138.784 226.249 138.905 226.161C139.004 226.094 139.102 226.028 139.201 225.951C139.333 225.863 139.476 225.786 139.619 225.698C139.718 225.642 139.817 225.576 139.916 225.521C140.07 225.433 140.246 225.345 140.411 225.257C140.499 225.213 140.587 225.157 140.675 225.113C140.939 224.981 141.214 224.86 141.5 224.75C147.879 222.148 152.75 208.094 153.718 202.615C154.686 197.137 148.516 195.186 145.767 192.926C143.018 190.666 144.964 182.278 148.175 181.44C149.231 181.164 151.211 181.23 153.542 181.473C153.08 180.371 152.585 179.235 152.091 178.078C149.044 177.758 146.405 177.604 144.854 177.846C139.586 178.706 131.921 192.298 131.811 196.982C131.712 201.678 140.73 206.054 138.322 211.357C135.913 216.648 131.107 219.348 123.211 219.668C115.315 219.988 103.635 211.643 97.9056 212.128C92.1759 212.613 87.26 218.962 85.0055 220.12C82.751 221.277 80.0456 219.447 80.0456 219.447C80.0456 219.447 79.5837 220.605 78.8688 222.666C78.143 224.728 74.2058 224.937 72.6002 224.838C70.9946 224.739 73.744 220.307 74.2058 219.547C74.6677 218.775 78.8688 219.734 78.8688 219.734C78.8688 219.734 79.4737 218.477 78.3409 218.191C77.2082 217.904 71.2255 218.577 70.7636 219.249C70.3017 219.921 70.1917 225.896 68.0142 226.8C67.2664 227.109 66.0676 227.208 64.8029 227.197L64.1981 229.842C70.9946 229.853 82.2341 227.109 87.9418 224.86Z" fill="#00C9EF"/>
<path d="M136.98 227.627C137.079 227.539 137.19 227.45 137.289 227.373C137.19 227.462 137.09 227.539 136.98 227.627Z" fill="#00C9EF"/>
<path d="M138.234 226.635C138.333 226.558 138.432 226.491 138.531 226.414C138.432 226.491 138.333 226.569 138.234 226.635Z" fill="#00C9EF"/>
<path d="M136.694 227.869C136.496 228.034 136.287 228.211 136.089 228.376C136.133 228.343 136.177 228.299 136.232 228.255C136.375 228.134 136.54 228.001 136.694 227.869Z" fill="#00C9EF"/>
<path d="M138.893 226.173C138.993 226.106 139.092 226.04 139.191 225.962C139.092 226.029 138.993 226.106 138.893 226.173Z" fill="#00C9EF"/>
<path d="M140.4 225.268C140.488 225.224 140.577 225.169 140.665 225.125C140.577 225.18 140.488 225.224 140.4 225.268Z" fill="#00C9EF"/>
<path d="M139.608 225.709C139.708 225.654 139.807 225.588 139.906 225.532C139.807 225.588 139.708 225.654 139.608 225.709Z" fill="#00C9EF"/>
<path d="M137.607 227.12C137.706 227.043 137.805 226.966 137.894 226.888C137.805 226.966 137.706 227.043 137.607 227.12Z" fill="#00C9EF"/>
<path d="M215.668 44.401L216.723 45.7017L218.054 40.2012C214.876 42.3617 215.668 44.401 215.668 44.401Z" fill="#00C9EF"/>
<path d="M130.964 40.2896L114.589 61.8176L121.231 64.8159C123.871 57.4745 127.544 48.4246 130.964 40.2896Z" fill="#8DC63F"/>
<path d="M132.042 37.5558L129.678 36.9385L129.975 37.2471L107.243 53.0652L113.973 61.2995L132.042 37.5558Z" fill="#8DC63F"/>
<path d="M81.8052 50.9818C84.0047 53.8258 86.6441 56.8351 89.5585 59.7562L92.6268 62.3135L129.249 36.8392L123.156 35.2739L105.549 43.9711L105.12 43.3538L122.056 34.9873L118.867 34.1716L119.032 33.7417L74.5688 38.3604L74.5138 38.5367C74.9647 39.3524 75.3716 40.1792 75.7235 40.9949L81.8052 50.9818ZM94.9803 42.2736L99.3573 42.0531C100.776 41.987 102.14 42.3838 103.206 43.1664C104.273 43.9491 104.9 45.0514 104.988 46.2419C104.999 46.3301 104.999 46.4182 104.999 46.5064C104.999 48.8543 102.822 50.8275 100.006 50.9597L95.6291 51.1802C94.2104 51.2464 92.8467 50.8495 91.78 50.0669C90.7132 49.2732 90.0863 48.1819 89.9984 46.9914C89.8224 44.5333 92.0549 42.4169 94.9803 42.2736Z" fill="#8DC63F"/>
<path d="M103.173 70.9558L105.659 72.2345L113.478 61.961L106.583 53.5283L93.2316 62.8208L102.338 70.4157C102.612 70.592 102.887 70.7794 103.173 70.9558Z" fill="#8DC63F"/>
<path d="M83.1579 20.5249H79.9356L76.1964 32.97L89.8774 25.6947L83.1579 20.5249Z" fill="#8DC63F"/>
<path d="M99.5992 20.5249H84.4116L90.6142 25.2979L99.5992 20.5249Z" fill="#8DC63F"/>
<path d="M94.9142 35.5273L119.197 33.003L119.23 33.2566L120.484 30.0488L99.6761 25.5735L100.875 22.1453L115.381 24.879L116.008 20.5249H101.183L91.076 25.8931L94.9142 35.5273Z" fill="#8DC63F"/>
<path d="M120.989 65.5101L114.138 62.4126L106.396 72.5979L112.961 75.96C114.083 76.4891 115.183 77.0512 116.26 77.6355L119.802 69.0044C120.154 67.8911 120.55 66.7226 120.989 65.5101Z" fill="#8DC63F"/>
<path d="M90.3393 26.29L75.8885 33.9731L74.7887 37.6218L94.0564 35.6156L90.3393 26.29Z" fill="#8DC63F"/>
<path d="M196.576 187.966C194.343 188.451 191.726 194.657 191.726 194.657L205.825 200.852C205.825 200.852 210.818 201.304 216.14 201.204L219.858 182.531C218.373 183.975 216.756 185.507 214.997 186.996C209.476 191.636 198.808 187.47 196.576 187.966Z" fill="#8DC63F"/>
<path d="M91.769 50.0779C92.8357 50.8716 94.1994 51.2684 95.6181 51.1913L99.9951 50.9708C102.811 50.8275 104.988 48.8544 104.988 46.5175C104.988 46.4293 104.988 46.3411 104.977 46.2529C104.889 45.0624 104.262 43.9711 103.195 43.1775C102.129 42.3838 100.765 41.987 99.3463 42.0642L94.9693 42.2846C92.0439 42.4279 89.8114 44.5554 89.9764 47.0135C90.0863 48.193 90.7132 49.2843 91.769 50.0779Z" fill="white"/>
<path d="M131.206 87.5125H132.317L136.584 83.2796L140.587 87.5125H141.665L136.606 82.1553L131.206 87.5125Z" fill="white"/>
<path d="M214.656 174.01L200.909 186.092L202.14 187.073L214.898 175.862L217.878 177.516L221.133 176.127L221.485 174.374L217.988 175.873L214.656 174.01Z" fill="white"/>
<path d="M202.031 82.8608L190.912 87.5126H192.815L202.404 83.4892L202.031 82.8608Z" fill="white"/>
<path d="M107.001 207.763L107.089 207.741L111.191 205.977L119.813 213.804L132.339 209.108L127.753 197.225L107.638 205.9L96.7069 194.359C97.5537 193.367 98.3015 192.276 98.9723 191.085C100.149 188.98 101.491 186.533 102.942 183.843L124.432 191.438L135.539 170.042L134.758 169.756L131.569 175.906L126.422 174.396L110.762 169.204C111.026 168.708 111.29 168.212 111.554 167.716H108.771C108.089 169.006 107.407 170.296 106.737 171.563L101.887 170.329L98.9833 175.278L89.3275 171.607L91.0321 167.716H90.1303L88.5577 171.31L79.1217 167.716H78.3409L78.4399 168.135L78.4179 168.223L98.6204 175.906L92.7257 185.937L97.9496 187.878C97.5097 188.682 97.0808 189.443 96.6849 190.17C94.4963 194.084 91.2521 196.773 87.04 198.151L76.3834 179.202L78.7368 174.055L77.945 173.801L76.3064 177.395L75.4926 180.933L85.4343 198.603C80.7934 199.705 75.7345 199.264 71.4674 198.405L70.9836 200.51C71.2475 200.565 71.4894 200.609 71.7644 200.664L71.3795 208.05H69.2459L69.081 208.766H71.3465L71.0165 215.071L67.1564 217.089L66.7165 218.996L74.2828 215.038L107.001 207.763ZM126.752 199.264L130.26 208.336L120.231 212.095L112.752 205.305L126.752 199.264ZM110.421 169.855L126.114 175.069L131.228 176.568L123.981 190.523L103.283 183.204C105.494 179.136 107.924 174.562 110.421 169.855ZM102.338 171.178L106.396 172.214C105.516 173.878 104.647 175.51 103.789 177.097L99.7642 175.565L102.338 171.178ZM93.8695 185.596L99.3793 176.204L103.437 177.747C101.59 181.209 99.8412 184.438 98.2905 187.249L93.8695 185.596ZM72.5782 200.83C76.8892 201.535 82.1241 201.811 86.974 200.455C90.6692 199.419 93.7485 197.578 96.179 194.965L100.556 199.584L92.2858 203.916L72.3472 205.261L72.5782 200.83ZM71.8744 214.642L72.3252 205.988L92.5718 204.622L101.095 200.146L106.869 206.242L106.484 206.407L73.601 213.738L71.8744 214.642Z" fill="white"/>
<path d="M218.945 167.716L221.617 173.713L221.892 172.313L219.847 167.716H218.945Z" fill="white"/>
<path d="M61.1737 87.5124L69.7518 82.7394L73.579 87.5124H74.6017L70.4557 82.3426L75.4815 79.5427L70.9615 73.9319L78.6708 68.1669C82.2121 72.2123 85.8632 76.4783 88.3377 79.3663L74.9976 87.5124H76.4383L88.8326 79.9395C90.1083 81.4276 91.1201 82.6181 91.7359 83.3236C91.417 83.8527 90.4712 85.44 89.2505 87.5124H90.1963C90.9221 86.2888 91.637 85.0873 92.3078 83.963C93.1766 84.8338 96.4429 86.1896 100.061 87.5124H102.25C100.226 86.8069 98.2575 86.0794 96.6519 85.418L105.626 75.0122C106.792 75.6295 107.946 76.1807 109.057 76.6547C111.433 77.6467 113.654 78.749 115.733 79.9285C114.677 82.4307 113.533 84.9771 112.323 87.5234H115.051C116.041 85.407 116.997 83.2906 117.888 81.1962C121.11 83.1913 123.915 85.3408 126.29 87.5234H129.678C129.172 87.0163 128.655 86.5093 128.116 86.0132C126.576 84.6023 124.916 83.2575 123.156 81.9788L134.11 63.1624L142.369 65.9071L137.882 77.0405L139.487 77.4924L140.928 73.9209L152.289 77.8892L150.166 83.2905L144.491 87.5124H147.043L151.101 84.4921L153.971 87.5124H155.06L151.684 83.9519L153.762 78.6498L168.499 86.7959L167.586 87.5014H170.259L170.215 87.4022L176.868 82.2544L180.211 80.8434L182.851 87.5014H184.632L181.74 80.2041L184.995 78.8372L196.202 70.8014L203.801 62.038L210.708 70.4156L198.742 76.1366L199.16 76.7539L210.521 71.3305L210.972 69.4786L204.45 61.5751L213.655 58.3453L214.062 56.6588L203.009 60.5279L199.358 64.7387L182.994 44.8972L184.764 44.1807L189.152 42.417L189.581 42.2406L191.033 42.2847L200.931 51.9409L212.445 48.3033C213.182 49.4607 214.04 50.8606 215.052 52.5141L215.865 49.1631C211.895 42.7587 210.741 41.502 210.213 41.0721L208.794 38.8896L217.383 34.5024L217.669 34.4142L217.647 34.3701L219.693 33.3229L220.154 31.427L217.042 33.0143L214.381 27.172L215.415 20.4921H214.557L213.512 27.2492L216.305 33.378L207.991 37.6219L205.253 33.4111C203.383 30.5231 202.976 27.0618 204.142 23.9202L205.418 20.481H202.756L201.723 23.2809C200.359 26.9736 200.832 31.0301 203.031 34.4252L205.825 38.7242L205.44 38.9226C202.382 37.8424 197.972 36.4865 192.364 34.8L198.379 20.47H196.587L190.769 34.315C190.703 34.2929 190.637 34.2709 190.571 34.2489C192.485 29.4869 194.64 24.1186 196.081 20.459H194.299C192.936 23.8982 190.967 28.8365 188.976 33.7638C188.8 33.7087 188.635 33.6646 188.46 33.6095C185.061 32.5954 181.597 31.5592 178.265 30.5341L183.588 20.459H182.664L177.473 30.2916C174.053 29.2334 170.775 28.1972 167.85 27.1941C158.832 24.1297 157.578 22.9502 157.413 22.6746C157.094 21.9691 157.039 21.2086 157.16 20.459H154.62C154.51 21.4511 154.609 22.4542 155.049 23.4352C155.324 24.0415 156.028 24.78 158.469 25.9375L150.98 44.5224L144.623 42.7807L153.025 20.47H152.135L143.82 42.5603L133.846 39.8265C137.618 30.8758 141.005 23.2037 142.226 20.47H139.52C138.223 23.4021 135.506 29.564 132.416 36.8503L119.967 33.6536L121.594 29.4979L100.754 25.0115L101.48 22.9392L116.129 25.6949L116.876 20.47H116.019L115.392 24.8351L100.886 22.1014L99.6872 25.5186L120.495 29.9939L119.23 33.2017L119.197 32.9592L94.9252 35.4834L91.0761 25.8493L101.183 20.47H99.5992L90.6142 25.243L84.4116 20.47H83.1578L89.8664 25.6398L76.1854 32.9151L75.8885 33.9182L90.3393 26.2351L94.0674 35.5606L74.7997 37.5668L74.5797 38.3054L119.043 33.6867L118.878 34.1166L122.067 34.9323L105.131 43.2988L105.56 43.9161L123.167 35.2189L129.26 36.7842L92.6377 62.2585L89.5694 59.7011C86.6551 56.78 84.0157 53.7707 81.8161 50.9268L75.7455 40.9509C75.3936 40.1242 74.9867 39.3085 74.5358 38.4927L73.48 41.9871C73.491 42.0201 73.513 42.0532 73.524 42.0863C74.0189 43.3429 74.7557 44.7649 75.6685 46.2861L71.3355 49.0969L70.9945 50.2103L76.0534 46.9144C78.6378 51.0591 82.553 55.9092 87.073 60.5058C87.139 60.572 87.2049 60.6381 87.2709 60.7043L78.8028 67.0315C74.3158 61.9168 70.7196 57.9926 69.059 56.6037L68.817 57.3973C70.5876 58.9957 74.2718 63.0742 78.165 67.5055L70.4777 73.2595L65.7927 67.4504L65.5178 68.3763L69.8398 73.7446L65.9467 76.6547L63.8241 74.0091L63.5492 74.9351L69.2679 82.067L59.821 87.325L59.788 87.4352H61.1737V87.5124ZM95.893 85.0873C94.3974 84.4369 93.3086 83.8748 92.9347 83.4779C92.5388 83.037 91.263 81.5489 89.4924 79.4876C88.2387 78.0215 86.996 76.5665 85.7753 75.1445L95.2772 68.0346C98.5434 70.6691 101.799 72.8958 104.922 74.6154L95.893 85.0873ZM116.239 77.6247C115.161 77.0405 114.061 76.4783 112.939 75.9492L106.374 72.5871L114.116 62.4018L120.967 65.4993C120.539 66.7118 120.132 67.8803 119.769 68.9826L116.239 77.6247ZM114.589 61.8176L130.964 40.2895C127.544 48.4245 123.871 57.4745 121.231 64.8159L114.589 61.8176ZM122.485 81.4938C121.286 80.656 120.055 79.8513 118.768 79.0797C119.934 76.2247 120.978 73.4249 121.836 70.7353C122.804 67.7149 124.091 64.1435 125.553 60.2964L133.307 62.8758L122.485 81.4938ZM154.048 77.9444L158.095 67.6378C159.943 68.2881 164.793 70.0298 170.237 71.9919L163.88 83.3787L154.048 77.9444ZM158.359 66.9654L162.494 56.4383L174.691 64.0442L170.61 71.3526C165.288 69.4345 160.262 67.6378 158.359 66.9654ZM184.06 77.6467L175.9 81.0749L169.159 86.2999L164.595 83.7756L171.017 72.2785C175.713 73.976 180.772 75.7949 184.676 77.2058L184.06 77.6467ZM185.391 76.6987C182.752 75.7397 176.978 73.6564 171.38 71.6391L175.383 64.4741L189.856 73.502L185.391 76.6987ZM198.841 65.356L194.97 69.8203L190.516 73.017L176.043 63.9891L192.43 57.5627L198.841 65.356ZM191.924 56.9784L175.262 63.5151L162.769 55.7218L165.046 49.9347L168.301 50.8276L182.235 45.2278L191.924 56.9784ZM208.387 42.5823C208.717 42.8248 209.608 43.861 212.06 47.686L201.206 51.1142L192.21 42.3288L199.457 42.5492L204.516 40.9509C206.474 41.6453 207.87 42.2075 208.387 42.5823ZM191.506 36.8613C195.421 38.0408 199.182 39.1872 202.184 40.1683L199.171 41.1162L189.834 40.8407L191.506 36.8613ZM189.746 36.3322C189.801 36.3543 189.856 36.3653 189.922 36.3873L187.811 41.4139L187.679 41.469C188.251 40.036 188.965 38.2723 189.746 36.3322ZM187.591 35.6929C187.778 35.748 187.954 35.8031 188.141 35.8582C187.239 38.1069 186.348 40.3116 185.534 42.3178L168.169 49.2954L165.563 48.5789L172.436 31.0632C177.22 32.5844 182.466 34.1497 187.591 35.6929ZM159.965 26.665C161.592 27.3594 163.77 28.1751 166.662 29.1672C167.993 29.6192 169.401 30.0932 170.863 30.5561L163.968 48.1379L152.574 45.0184L159.965 26.665ZM157.688 47.9175C160.856 48.7883 162.582 51.6543 161.537 54.3219L154.587 72.025C153.487 74.8248 149.792 76.2468 146.559 75.1114L146.394 75.0563C143.468 74.0312 141.984 71.2754 142.996 68.7511L150.111 51.1031C151.178 48.4797 154.554 47.0577 157.688 47.9175ZM144.095 44.1917L150.419 45.9223L142.644 65.2237L125.828 59.624C126.752 57.1989 127.753 54.6746 128.776 52.1283L139.85 55.4903L144.095 44.1917ZM133.263 41.2265L143.293 43.9712L139.3 54.5754L129.04 51.4559C130.436 48.0167 131.866 44.5444 133.263 41.2265ZM129.974 37.2471L129.678 36.9385L132.042 37.5448L113.973 61.2995L107.243 53.0653L129.974 37.2471ZM106.583 53.5282L113.478 61.9609L105.659 72.2344L103.173 70.9557C102.898 70.7794 102.613 70.5919 102.338 70.4046L93.2316 62.8097L106.583 53.5282ZM87.8208 61.3215C90.0863 63.5703 92.3738 65.6536 94.6723 67.5386L85.2804 74.5603C83.2018 72.1352 81.1893 69.8203 79.3197 67.6819L87.8208 61.3215ZM66.4306 77.3271L70.3237 74.4059L74.2938 79.3333L69.9718 81.7363L66.4306 77.3271Z" fill="white"/>
<path d="M206.869 247.898L207.012 247.182L203.493 247.215L203.603 242.706L207.969 242.387L208.255 240.932L197.038 241.758L196.389 235.619L209.531 234.505L209.674 233.778L196.312 234.913L196.015 232.058C199.776 231.882 203.713 231.672 207.672 231.452C208.53 231.408 209.344 231.353 210.169 231.309L210.598 229.148C209.586 229.203 208.563 229.269 207.496 229.324C198.566 229.831 189.746 230.228 182.95 230.504L181.707 223.096L212.478 219.668L212.621 218.93L198.72 220.473L199.6 210.839L213.941 212.239L214.084 211.533L189.438 209.13L190.472 204.313L189.636 204.192L188.591 209.053L179.189 208.138L176.67 193.058L192.518 167.705H190.604L175.284 192.21L160.24 191.769C160.13 191.427 160.02 191.096 159.91 190.788C159.096 188.451 157.831 185.353 156.358 181.837C155.896 180.735 155.401 179.588 154.895 178.409C154.048 176.436 153.168 174.385 152.267 172.302C151.926 171.519 151.585 170.726 151.233 169.921L168.29 172.148L174.987 168.312L174.515 167.727L168.092 171.398L150.903 169.149C150.694 168.664 150.485 168.179 150.276 167.694H147.571C148.318 169.436 149.066 171.167 149.803 172.864L142.38 171.42L142.193 172.115L150.155 173.658C150.804 175.157 151.442 176.634 152.058 178.067C152.552 179.224 153.047 180.371 153.509 181.462C155.17 185.386 156.589 188.837 157.468 191.361C157.974 192.794 158.48 194.668 158.997 196.861L156.171 200.223L158.183 212.635L159.019 212.536L157.05 200.4L159.217 197.82C161.252 206.837 163.286 220.594 164.76 231.573C162.593 231.959 160.108 232.466 157.457 233.039V221.167L159.855 217.607L158.381 216.901L155.753 220.781V233.392C153.135 233.976 150.397 234.604 147.692 235.222C143.952 236.082 140.356 236.908 137.519 237.492L136.463 228.277L136.144 228.454L135.968 228.74L135.957 228.872L136.694 237.658C135.979 237.801 135.319 237.922 134.725 238.033C133.714 238.209 131.899 238.396 128.809 238.562L128.105 233.943L119.142 234.219V229.831H118.295V238.948C111.971 239.102 103.47 239.212 92.0438 239.245V232.499L113.038 232.245L113.016 230.824L109.728 230.868L109.42 228.619L105.824 227.395L82.135 228.046V231.198L71.0055 231.331L70.9835 232.014C70.9615 232.94 70.9395 233.778 70.9175 234.516L63.0323 234.671L62.8673 235.387L70.9065 235.233C70.8405 238.981 70.9065 240.171 70.9835 240.579C67.2333 242.122 63.0103 244.669 60.3379 246.388L59.755 248.934H60.5798C64.6379 246.245 72.7101 241.373 76.1524 241.373C76.3723 241.373 76.6583 241.373 77.0212 241.373L77.4721 246.157L69.3559 245.804V248.35H70.2027V246.553L77.5381 246.873L77.736 248.923H79.4296L78.7148 241.373C79.9135 241.373 81.1013 241.373 82.267 241.373L83.3118 248.923H84.1586L83.8397 246.642L94.2764 246.432L94.3753 248.934H95.2222L94.9252 241.362C97.7406 241.351 100.413 241.329 102.942 241.306L103.283 245.793L125.52 245.628L125.641 248.923H126.488L126.367 245.617L142.281 245.495V245.429L144.062 248.912H144.986L140.004 239.157C142.512 238.617 145.393 237.955 148.384 237.261C148.945 237.129 149.495 237.007 150.067 236.875L150.518 248.912H152.212L151.948 241.891L157.105 241.791L157.402 248.912H158.249L157.952 241.769L166.068 241.604C166.563 245.628 166.882 248.35 166.948 248.912H168.224L169.489 248.813C169.456 248.527 169.313 247.226 169.06 245.187L174.141 244.812L174.559 248.912H175.405L174.987 244.746L186.7 243.875L187.602 248.912H189.317L189.152 247.997L206.869 247.898ZM92.0988 228.542L105.714 228.167L108.672 229.17L108.914 230.934L92.0878 231.132V228.542H92.0988ZM83.0258 228.795L91.252 228.575V231.154L83.0258 231.253V228.795ZM78.011 239.311C77.1971 239.311 76.5703 239.311 76.1854 239.311C75.1846 239.311 73.9749 239.587 72.6551 240.028C72.5892 238.837 72.6441 235.453 72.7101 232.797L91.252 232.576V239.311C87.2049 239.322 82.8059 239.322 78.011 239.311ZM83.7737 246.002L83.1468 241.45C87.007 241.45 90.6582 241.45 94.1114 241.428L94.2874 245.782L83.7737 246.002ZM104.108 245.154L103.811 241.373C112.84 241.284 120.033 241.141 125.366 240.932L125.52 244.988L104.108 245.154ZM119.197 238.981V234.99L127.412 234.737L128.006 238.661C125.74 238.782 122.859 238.892 119.197 238.981ZM141.984 244.867L126.367 244.988L126.213 240.899C130.623 240.711 133.648 240.48 135.275 240.193C136.375 240.006 137.706 239.741 139.19 239.422L141.984 244.867ZM198.775 210.773L197.873 220.583L181.586 222.402L179.321 208.888L198.775 210.773ZM160.691 193.213L175.075 193.632L175.394 195.506L161.746 197.379C161.383 195.847 161.032 194.447 160.691 193.213ZM162.032 198.779L175.614 196.917L176.274 200.874L162.89 203.012C162.615 201.535 162.329 200.124 162.032 198.779ZM151.937 241.262L151.761 236.578C156.49 235.497 161.296 234.428 165.068 233.756C165.42 236.412 165.728 238.859 165.991 240.987L151.937 241.262ZM166.046 222.192C165.167 216.163 164.188 209.924 163.165 204.423L176.516 202.285L179.793 221.851L166.046 222.192ZM166.145 222.909L179.903 222.578L181.245 230.581C175.999 230.779 172.216 230.901 170.918 230.901C169.995 230.901 168.752 231.022 167.3 231.231C166.948 228.575 166.563 225.764 166.145 222.909ZM168.906 243.853C168.576 241.119 168.125 237.47 167.575 233.337C168.95 233.138 170.094 233.017 170.918 233.017C171.743 233.017 173.591 232.973 176.164 232.885L177.264 243.224L168.906 243.853ZM177.022 232.863C179.178 232.786 181.762 232.686 184.665 232.576L185.776 238.727L177.704 239.311L177.022 232.863ZM178.111 243.169L177.781 240.017L185.897 239.433L186.458 242.552L178.111 243.169ZM187.569 239.179L187.052 236.313C186.689 234.274 188.492 232.411 190.945 232.301C191.011 232.301 191.088 232.29 191.154 232.29C193.397 232.19 195.322 233.59 195.52 235.475L195.828 238.341C196.026 240.27 194.343 241.968 192.045 242.133C189.856 242.299 187.899 241.009 187.569 239.179ZM188.405 243.842L202.745 242.784L202.635 247.237L189.031 247.38L188.405 243.842Z" fill="white"/>
<path d="M134.44 30.9638L134.846 30.3465L129.777 27.9985L133.087 20.6462L132.691 20.5249H132.24L128.721 28.3292L134.44 30.9638Z" fill="white"/>
<path d="M143.007 68.7509C141.984 71.2752 143.468 74.0309 146.405 75.0561L146.57 75.1112C149.803 76.2355 153.498 74.8136 154.598 72.0247L161.548 54.3217C162.593 51.6541 160.867 48.7881 157.699 47.9172C154.565 47.0574 151.189 48.4794 150.133 51.1029L143.007 68.7509Z" fill="#8DC63F"/>
<path d="M192.045 242.144C194.332 241.979 196.026 240.27 195.828 238.352L195.52 235.486C195.322 233.612 193.386 232.201 191.154 232.3C191.088 232.3 191.011 232.311 190.945 232.311C188.493 232.422 186.689 234.284 187.052 236.324L187.569 239.19C187.899 241.009 189.856 242.298 192.045 242.144Z" fill="#8DC63F"/>
<path d="M74.7337 87.6776L75.0087 87.5122H74.5908L74.7337 87.6776Z" fill="black" fill-opacity="0.42"/>
<path d="M103.459 147.753L104.185 148.128L97.6527 157.167H114.336C116.162 153.684 117.932 150.3 119.56 147.169L89.3165 135.297C86.6441 139.927 83.6198 145.141 80.5734 150.355L96.7509 157.057L103.459 147.753Z" fill="#6F992C"/>
<path d="M93.8035 122.412L84.9504 117.947L80.9583 123.801L91.351 126.799C92.2858 125.134 93.1106 123.646 93.8035 122.412Z" fill="black" fill-opacity="0.42"/>
<path d="M72.2482 90.0698L85.0494 94.6114C85.2254 94.3137 85.4013 94.0161 85.5883 93.7075C86.886 91.5139 88.1837 89.3203 89.2725 87.5015H76.4603L72.2482 90.0698Z" fill="black" fill-opacity="0.42"/>
<path d="M96.7838 157.873L96.6959 157.839L95.5631 157.376L91.0211 167.716H108.76C110.487 164.442 112.235 161.124 113.94 157.873H96.7838Z" fill="black" fill-opacity="0.42"/>
<path d="M90.1303 167.716L94.8043 157.057L80.1775 150.994C78.8028 153.342 77.4281 155.69 76.0864 157.983L78.2639 167.385L79.1217 167.716H90.1303Z" fill="black" fill-opacity="0.42"/>
<path d="M110.641 91.0398C109.684 90.7422 108.287 90.3013 106.693 89.7832L99.3682 103.386L103.426 104.951C105.846 100.487 108.309 95.7798 110.641 91.0398Z" fill="black" fill-opacity="0.42"/>
<path d="M110.96 90.3892C111.433 89.4302 111.883 88.4712 112.334 87.5122H102.261C105.406 88.6145 108.672 89.6727 110.96 90.3892Z" fill="black" fill-opacity="0.42"/>
<path d="M82.366 142.385L71.5444 137.601L71.4125 137.799L74.1619 149.693L77.3622 150.961C79.0448 148.084 80.7384 145.196 82.366 142.385Z" fill="black" fill-opacity="0.42"/>
<path d="M187.921 131.031L185.941 125.277L162.736 131.45L163.627 141.106L188.976 134.107L187.921 131.031Z" fill="black" fill-opacity="0.42"/>
<path d="M185.71 124.594L185.655 124.439L183.797 119.016C176.659 121.761 168.719 124.572 162.274 126.302L162.681 130.712L185.71 124.594Z" fill="black" fill-opacity="0.42"/>
<path d="M90.9771 127.449L80.5294 124.429L71.9843 136.984L82.7509 141.746C85.8302 136.433 88.7006 131.45 90.9771 127.449Z" fill="black" fill-opacity="0.42"/>
<path d="M69.3889 109.944L80.9584 109.558L83.2568 106.891L69.3889 100.619V109.944Z" fill="black" fill-opacity="0.42"/>
<path d="M113.016 110.727C114.028 108.5 118.394 105.524 121.748 104.499C123.112 104.08 125.278 103.727 127.093 103.705L117.756 99.3623L110.289 109.845L113.016 110.727Z" fill="black" fill-opacity="0.42"/>
<path d="M129.447 103.992C129.787 104.113 130.051 104.279 130.194 104.488C130.293 104.631 130.348 104.786 130.348 104.94C130.348 105.403 129.941 105.932 129.128 106.516C127.863 107.431 126.455 108.743 124.949 110.132C124.751 110.319 124.553 110.496 124.355 110.683L135.979 120.394C136.122 111.653 136.155 102.339 134.549 98.4143C133.736 96.4192 132.361 94.1925 130.469 91.8887L124.146 101.523L129.447 103.992Z" fill="black" fill-opacity="0.42"/>
<path d="M84.2576 97.5545L98.6094 103.088L100.875 98.8663L95.4311 96.8931L92.9786 100.895L92.2308 100.564L95.0462 95.9782L101.227 98.2159L105.912 89.5187C104.064 88.9124 102.019 88.2069 100.072 87.5015H90.2072C88.1947 90.8966 86.0392 94.5121 84.2576 97.5545Z" fill="black" fill-opacity="0.42"/>
<path d="M219.847 167.716H222.805L220.056 154.059L214.502 155.668L219.847 167.716Z" fill="black" fill-opacity="0.42"/>
<path d="M211.499 111.51L210.763 107.839C210.433 107.971 210.103 108.103 209.795 108.225L211.499 111.51Z" fill="black" fill-opacity="0.42"/>
<path d="M177.979 104.521L185.842 100.795L182.84 95.6803L183.786 89.8601L182.851 87.5122H170.27L177.979 104.521Z" fill="black" fill-opacity="0.42"/>
<path d="M186.755 125.057L188.712 130.778L199.204 127.394L195.718 119.083L185.864 122.467L186.755 125.057Z" fill="black" fill-opacity="0.42"/>
<path d="M201.239 111.84C199.963 112.414 197.983 113.273 195.52 114.309L204.934 136.764L215.953 133.611L214.964 128.717L207.463 124.318L201.239 111.84ZM209.498 133.776H206.419V130.712H209.498V133.776Z" fill="black" fill-opacity="0.42"/>
<path d="M208.772 106.262C209.278 106.064 209.795 105.855 210.323 105.645L208.354 95.8677L204.12 97.5873L208.772 106.262Z" fill="black" fill-opacity="0.42"/>
<path d="M202.514 111.245C202.382 111.311 202.195 111.399 201.976 111.499L208.145 123.845L214.755 127.725L212.082 114.42L209.025 108.522C205.682 109.867 203.262 110.859 202.514 111.245Z" fill="black" fill-opacity="0.42"/>
<path d="M194.497 112.358C197.016 111.3 199.006 110.44 200.216 109.889L195.861 100.938L189.35 103.562L194.497 112.358Z" fill="black" fill-opacity="0.42"/>
<path d="M103.074 105.59L83.8837 98.1938C82.3001 100.883 81.0463 103.033 80.4965 104.025L99.2803 112.524C100.501 110.308 101.777 107.982 103.074 105.59Z" fill="black" fill-opacity="0.42"/>
<path d="M190.692 88.3941L196.301 99.9573L208.211 95.1402L206.671 87.5122H192.815L190.692 88.3941Z" fill="black" fill-opacity="0.42"/>
<path d="M185.512 89.7278V89.7719L190.912 87.5122H184.632L185.512 89.7278Z" fill="black" fill-opacity="0.42"/>
<path d="M201.217 109.404C202.02 108.997 204.538 107.96 208.002 106.571L203.361 97.8853L196.631 100.608L200.964 109.526C201.052 109.482 201.14 109.448 201.217 109.404Z" fill="black" fill-opacity="0.42"/>
<path d="M193.991 114.949C191.231 116.095 188.009 117.396 184.577 118.719L185.633 121.783L195.454 118.41L193.991 114.949Z" fill="black" fill-opacity="0.42"/>
<path d="M111.18 95.4819L117.459 98.403L117.481 98.414L123.42 101.181L129.941 91.249C128.875 90.0144 127.654 88.7578 126.301 87.5122H115.062C113.819 90.1688 112.521 92.8364 111.18 95.4819Z" fill="#6F992C"/>
<path d="M125.048 141.922C123.068 145.736 120.704 150.267 118.185 155.084L131.646 158.843L134.593 144.149L125.048 141.922Z" fill="black" fill-opacity="0.42"/>
<path d="M119.89 146.508C120.835 144.689 121.737 142.948 122.573 141.338C120.187 140.688 117.36 138.516 116.25 132.156C114.49 131.23 103.558 126.578 96.036 123.426C94.5073 126.204 92.2748 130.128 89.6684 134.647L119.89 146.508Z" fill="black" fill-opacity="0.42"/>
<path d="M190.01 134.559L192.738 142.474L204.329 139.619L199.49 128.066L188.954 131.462L190.01 134.559Z" fill="black" fill-opacity="0.42"/>
<path d="M112.807 111.422L104.207 108.633C103.283 110.308 102.382 111.951 101.513 113.527L132.273 127.438C133.318 127.141 134.527 126.92 135.88 126.744C135.902 125.377 135.924 123.955 135.946 122.511C135.957 122.136 135.957 121.761 135.968 121.387L123.783 111.212C121.231 113.538 118.68 115.688 116.524 116.04C115.403 116.217 114.501 116.062 113.863 115.588C112.543 114.596 112.719 112.491 112.796 111.477C112.807 111.455 112.807 111.444 112.807 111.422Z" fill="black" fill-opacity="0.42"/>
<path d="M109.486 109.58L117.019 99.0093L110.85 96.1323C108.771 100.2 106.638 104.19 104.57 107.982L109.486 109.58Z" fill="black" fill-opacity="0.42"/>
<path d="M163.693 141.834L164.397 149.451L191.924 142.672L189.207 134.791L163.693 141.834Z" fill="black" fill-opacity="0.42"/>
<path d="M138.498 134.746C138.608 136.874 139.487 140.158 140.84 144.116L163.55 149.407L162.307 135.892L138.498 134.746Z" fill="black" fill-opacity="0.42"/>
<path d="M135.418 144.336L132.46 159.063L145.448 162.69C142.776 156.385 140.268 150.212 138.498 145.053L135.418 144.336Z" fill="black" fill-opacity="0.42"/>
<path d="M135.869 128.904C135.825 128.915 135.781 128.915 135.737 128.926C132.856 129.334 131.195 129.962 130.799 130.811L130.788 130.844C130.722 130.965 128.743 134.812 125.74 140.61L137.992 143.465C136.826 139.883 136.078 136.885 135.979 134.823C135.869 133.093 135.858 131.086 135.869 128.904Z" fill="black" fill-opacity="0.42"/>
<path d="M195.542 100.266L189.933 88.7139L185.369 90.6209L184.588 95.449L188.976 102.934L195.542 100.266Z" fill="black" fill-opacity="0.42"/>
<path d="M130.964 88.8353C132.669 90.6871 134.11 92.5611 135.242 94.3909L142.193 89.21L140.576 87.5015H132.306L130.964 88.8353Z" fill="black" fill-opacity="0.42"/>
<path d="M142.831 88.7468L144.491 87.5122H141.665L142.831 88.7468Z" fill="black" fill-opacity="0.42"/>
<path d="M130.436 88.2728L131.206 87.5122H129.689C129.93 87.7657 130.194 88.0193 130.436 88.2728Z" fill="black" fill-opacity="0.42"/>
<path d="M136.012 95.7247C136.375 96.3971 136.694 97.0695 136.958 97.7199C138.025 100.343 138.432 104.808 138.553 110L159.756 93.5752L153.982 87.5015H147.043L136.012 95.7247Z" fill="black" fill-opacity="0.42"/>
<path d="M160.383 93.1009L167.597 87.5122H155.071L160.383 93.1009Z" fill="black" fill-opacity="0.42"/>
<path d="M79.8915 103.43C80.2105 102.879 80.6724 102.063 81.2882 101.016C82.135 99.5607 83.2788 97.6317 84.6645 95.2617L71.4454 90.5659L62.6254 95.9452L79.7376 103.683C79.7926 103.606 79.8366 103.518 79.8915 103.43Z" fill="black" fill-opacity="0.42"/>
<path d="M169.852 103.011H169.863L170.061 103.43L171.985 107.365L177.242 104.874L169.555 87.9312L164.276 92.0097L164.441 91.9546L169.852 103.011Z" fill="black" fill-opacity="0.42"/>
<path d="M169.148 103.43L163.759 92.4175L152.366 101.236L156.325 110.936L169.148 103.43Z" fill="black" fill-opacity="0.42"/>
<path d="M171.446 108.434L169.456 104.102L156.6 111.631L161.735 124.197C165.827 123.084 170.918 121.419 176.879 119.248L171.556 108.368L171.446 108.434Z" fill="#6F992C"/>
<path d="M162.241 135.187L161.438 126.523C158.249 127.35 155.456 127.89 153.366 127.989C151.233 128.088 149.121 128.165 147.087 128.232C143.963 128.331 140.972 128.43 138.41 128.639C138.399 130.613 138.41 132.442 138.465 134.041L162.241 135.187Z" fill="#6F992C"/>
<path d="M155.566 111.256L151.684 101.765L138.586 111.906C138.597 112.987 138.597 114.089 138.597 115.213L155.566 111.256Z" fill="black" fill-opacity="0.42"/>
<path d="M177.671 118.972C178.408 118.696 179.167 118.421 179.925 118.134C184.698 116.349 189.284 114.519 192.98 112.986L186.216 101.445L178.309 105.193L184.214 116.448L183.445 116.734L177.572 105.535L172.315 108.026L177.671 118.972Z" fill="black" fill-opacity="0.42"/>
<path d="M153.223 125.862C155.071 125.773 157.666 125.288 160.944 124.429L155.841 111.939L138.586 115.963C138.575 118.134 138.531 120.35 138.498 122.555C138.476 123.899 138.454 125.222 138.432 126.501C140.972 126.303 143.875 126.203 146.988 126.104C149.011 126.027 151.112 125.961 153.223 125.862Z" fill="#6F992C"/>
<path d="M74.3708 150.564L75.2836 154.522C75.8555 153.552 76.4163 152.582 76.9882 151.601L74.3708 150.564Z" fill="black" fill-opacity="0.42"/>
<path d="M113.973 129.499C117.723 131.153 117.745 131.23 117.855 131.605C117.877 131.671 117.888 131.759 117.921 131.936C118.713 136.543 120.605 139.398 123.255 140.026C126.279 134.195 128.303 130.282 128.446 129.995C128.809 129.246 129.458 128.651 130.359 128.177L100.809 114.806C100.501 115.357 100.204 115.897 99.9071 116.437C98.7964 118.443 97.7296 120.35 96.7618 122.125C98.6314 122.908 102.58 124.572 106.506 126.248C109.64 127.614 112.158 128.695 113.973 129.499Z" fill="black" fill-opacity="0.42"/>
<path d="M117.844 155.734C115.81 159.637 113.676 163.693 111.554 167.705H147.604C147.01 166.317 146.405 164.928 145.822 163.539L117.844 155.734Z" fill="black" fill-opacity="0.42"/>
<path d="M207.804 166.802C204.835 165.071 198.775 158.997 198.192 156.693C197.609 154.39 194.068 154.29 192.012 155.823C190.406 157.024 188.251 162.8 185.545 167.717H190.604L194.123 162.084L195.619 162.745L192.507 167.717H208.574C208.453 167.342 208.2 167.033 207.804 166.802Z" fill="black" fill-opacity="0.42"/>
<path d="M208.607 145.538L207.012 146.012L204.901 140.974L178.1 147.566L181.212 155.602L180.409 155.822L177.286 147.765L164.056 151.016L163.825 150.961L159.459 149.947L164.452 162.304L163.649 162.535L158.469 149.727L141.401 145.747C143.71 152.251 147.087 160.243 150.309 167.727H181.575C184.621 163.781 187.272 160.033 187.91 158.622C189.394 155.348 191.693 148.801 198.214 150.818C204.736 152.835 200.876 160.529 205.847 162.414C209.465 163.792 214.216 165.754 215.766 167.716H218.967L213.424 155.238L219.935 153.342L218.505 146.21L213.578 147.621L213.303 146.949L218.362 145.505L216.107 134.316L205.231 137.436L208.607 145.538Z" fill="black" fill-opacity="0.42"/>
<path d="M68.5421 125.332L71.1705 136.73L79.5617 124.417L68.5421 125.332Z" fill="black" fill-opacity="0.42"/>
<path d="M74.0409 88.0964L73.579 87.5122H61.1737L59.953 88.1846L61.6356 95.4929L61.8006 95.5701L74.0409 88.0964Z" fill="black" fill-opacity="0.42"/>
<path d="M68.5421 100.233L62.0535 97.3008L65.0119 110.099L68.5421 109.977V100.233Z" fill="black" fill-opacity="0.42"/>
<path d="M83.8727 118.09L67.5853 121.21L68.3772 124.638L80.0676 123.657L83.8727 118.09Z" fill="black" fill-opacity="0.42"/>
<path d="M192.023 155.822C194.079 154.279 197.631 154.378 198.203 156.693C198.775 159.008 204.846 165.071 207.815 166.801C208.211 167.033 208.464 167.353 208.596 167.716H215.744C214.194 165.743 209.454 163.792 205.825 162.414C200.854 160.529 204.725 152.846 198.192 150.818C191.671 148.801 189.372 155.348 187.888 158.622C187.25 160.033 184.599 163.781 181.553 167.727H185.545C188.262 162.8 190.417 157.013 192.023 155.822Z" fill="#00AAC1"/>
<path d="M116.371 115.346C118.57 114.993 121.627 112.16 124.333 109.669C125.85 108.269 127.28 106.946 128.578 105.998C129.403 105.403 129.579 105.017 129.469 104.863C129.403 104.764 129.249 104.687 129.04 104.62L129.018 104.609C127.797 104.246 124.553 104.4 122.034 105.172C118.339 106.296 113.797 109.746 113.643 111.532C113.621 111.818 113.588 112.204 113.588 112.612C113.588 113.505 113.731 114.541 114.424 115.059C114.875 115.39 115.513 115.478 116.371 115.346Z" fill="#6F992C"/>
<path d="M85.0824 116.382L85.1044 116.393L85.1484 116.382L94.5183 121.11C95.4751 119.369 96.5089 117.506 97.5976 115.555C97.9166 114.982 98.2355 114.397 98.5654 113.813L84.0156 107.232L81.4092 110.264L65.1878 110.804L67.2663 119.81L80.4964 117.274L85.0824 116.382Z" fill="black" fill-opacity="0.42"/>
<path d="M98.7304 113.483L84.2576 106.935L84.0046 107.222L98.5544 113.802C98.6204 113.703 98.6754 113.593 98.7304 113.483Z" fill="black" fill-opacity="0.42"/>
<path d="M85.1044 116.393L94.3754 121.364C94.4194 121.276 94.4634 121.199 94.5183 121.111L85.1484 116.382L85.1044 116.393Z" fill="black" fill-opacity="0.42"/>
<path d="M67.2554 119.81L67.2664 119.854L80.4854 117.275L67.2554 119.81Z" fill="black" fill-opacity="0.42"/>
<path d="M78.2529 167.386L78.3299 167.716H79.1107L78.2529 167.386Z" fill="black" fill-opacity="0.42"/>
<path d="M59.788 87.5122L59.953 88.1846L61.1737 87.5122H59.788Z" fill="black" fill-opacity="0.42"/>
<path d="M194.145 162.072L190.615 167.716H192.529L195.641 162.745L194.145 162.072Z" fill="#BCBCBC" fill-opacity="0.42"/>
<path d="M218.945 167.716H219.847L214.502 155.668L220.056 154.059L219.913 153.342L213.413 155.238L218.945 167.716Z" fill="#BCBCBC" fill-opacity="0.42"/>
<path d="M94.8043 157.057L90.1303 167.716H91.0321L95.5741 157.376L96.7068 157.839L96.7948 157.873H113.962C112.257 161.113 110.52 164.442 108.782 167.716H111.565C113.687 163.704 115.821 159.636 117.855 155.745L145.833 163.549C146.427 164.938 147.021 166.327 147.615 167.716H150.32C147.098 160.22 143.721 152.24 141.412 145.736L158.48 149.715L163.66 162.524L164.463 162.293L159.47 149.936L163.836 150.95L164.056 151.016L177.286 147.764L180.409 155.822L181.212 155.602L178.1 147.566L204.901 140.974L207.012 146.012L208.607 145.538L205.209 137.436L216.085 134.316L215.942 133.611L204.923 136.763L195.509 114.309C197.972 113.273 199.952 112.413 201.228 111.84L207.452 124.307L214.953 128.705L214.755 127.724L208.145 123.844L201.976 111.498C202.195 111.399 202.371 111.311 202.514 111.245C203.262 110.87 205.682 109.867 209.025 108.533L212.082 114.431L211.499 111.52L209.795 108.236C210.103 108.114 210.433 107.982 210.763 107.85L210.323 105.667C209.784 105.877 209.267 106.086 208.772 106.285L204.131 97.5983L208.365 95.8787L208.222 95.1512L196.323 99.9793L190.703 88.4161L192.826 87.5232H190.923L185.512 89.783L185.523 89.7389L184.643 87.5232H182.862L183.797 89.8711L182.862 95.6913L185.853 100.806L177.99 104.532L170.27 87.5122H167.597L160.383 93.1009L155.071 87.5122H153.982L159.756 93.5859L138.553 110.01C138.432 104.818 138.036 100.354 136.958 97.7306C136.694 97.0802 136.375 96.4078 136.012 95.7354L147.054 87.5232H144.502L142.842 88.7578L141.676 87.5232H140.598L142.215 89.2318L135.264 94.4127C134.132 92.5828 132.691 90.7089 130.986 88.857L132.328 87.5232H131.217L130.447 88.2838C130.205 88.0303 129.952 87.7768 129.7 87.5232H126.312C127.665 88.7688 128.886 90.0255 129.952 91.2601L123.431 101.192L117.492 98.4251L117.47 98.414L111.191 95.4929C112.532 92.8474 113.83 90.1798 115.073 87.5232H112.345C111.894 88.4822 111.433 89.4412 110.971 90.4003C108.683 89.6838 105.417 88.6255 102.272 87.5232H100.083C102.03 88.2287 104.075 88.9342 105.923 89.5405L101.238 98.2377L95.0572 96L92.2418 100.586L92.9897 100.916L95.4421 96.9149L100.886 98.888L98.6204 103.11L84.2686 97.5763C86.0612 94.5339 88.2057 90.9183 90.2183 87.5343H89.2725C88.1947 89.3531 86.886 91.5467 85.5883 93.7402C85.4014 94.0489 85.2254 94.3465 85.0494 94.6441L72.2483 90.1026L76.4493 87.5343H75.0087L74.7337 87.6996L74.6017 87.5343H73.579L74.0519 88.1185L61.8006 95.5701L61.6356 95.4929L62.0535 97.3007L68.5421 100.233V109.977L65.0119 110.098L65.1768 110.804L81.3982 110.264L84.0047 107.232L84.2576 106.946L98.7304 113.494C98.6754 113.604 98.6094 113.714 98.5544 113.813C98.2245 114.397 97.9056 114.982 97.5867 115.555C96.4979 117.506 95.4641 119.369 94.5073 121.111C94.4633 121.199 94.4193 121.276 94.3644 121.364L85.0934 116.393L85.0714 116.382L80.4854 117.275L67.2664 119.854L67.5743 121.199L83.8617 118.079L80.0675 123.646L68.3771 124.638L68.5421 125.343L79.5616 124.428L71.1705 136.741L71.4125 137.811L71.5444 137.612L82.366 142.396C80.7274 145.207 79.0448 148.106 77.3621 150.983L74.1618 149.715L74.3598 150.586L76.9882 151.633C76.4163 152.615 75.8445 153.585 75.2836 154.555L76.0864 158.016C77.4281 155.723 78.8028 153.375 80.1775 151.027L94.8043 157.057ZM118.185 155.084C120.704 150.267 123.068 145.736 125.048 141.922L134.604 144.149L131.657 158.843L118.185 155.084ZM145.459 162.69L132.471 159.063L135.429 144.336L138.52 145.053C140.279 150.211 142.787 156.384 145.459 162.69ZM140.84 144.127C139.487 140.169 138.608 136.874 138.498 134.757L162.307 135.904L163.55 149.418L140.84 144.127ZM183.797 119.016L185.655 124.44L185.71 124.594L162.681 130.723L162.274 126.313C168.719 124.572 176.659 121.761 183.797 119.016ZM161.746 124.208L156.611 111.642L169.467 104.113L171.457 108.445L171.578 108.39L176.901 119.27C170.929 121.43 165.838 123.095 161.746 124.208ZM184.577 118.719C188.009 117.396 191.242 116.095 193.991 114.949L195.443 118.41L185.622 121.783L184.577 118.719ZM162.736 131.45L185.941 125.277L187.921 131.031L188.976 134.096L163.627 141.095L162.736 131.45ZM164.397 149.451L163.693 141.845L189.207 134.801L191.913 142.694L164.397 149.451ZM204.329 139.618L192.727 142.473L190.01 134.559L188.943 131.461L199.479 128.066L204.329 139.618ZM195.718 119.082L199.204 127.394L188.712 130.778L186.744 125.057L185.853 122.466L195.718 119.082ZM203.361 97.8849L208.002 106.571C204.527 107.96 202.009 109.007 201.217 109.404C201.151 109.437 201.063 109.481 200.964 109.525L196.631 100.608L203.361 97.8849ZM200.216 109.878C199.006 110.429 197.016 111.3 194.497 112.347L189.35 103.562L195.861 100.927L200.216 109.878ZM184.588 95.4488L185.369 90.6317L189.933 88.7247L195.542 100.277L188.976 102.933L184.588 95.4488ZM183.434 116.734L184.203 116.448L178.298 105.193L186.205 101.445L192.969 112.987C189.273 114.519 184.687 116.349 179.914 118.134C179.145 118.421 178.397 118.696 177.66 118.972L172.315 108.026L177.572 105.535L183.434 116.734ZM169.555 87.9311L177.242 104.874L171.996 107.365L170.072 103.419L169.874 103L169.863 103.011L164.452 91.9545L164.287 92.0096L169.555 87.9311ZM163.759 92.4175L169.148 103.43L156.336 110.936L152.377 101.236L163.759 92.4175ZM151.684 101.765L155.566 111.256L138.597 115.213C138.608 114.089 138.597 112.987 138.586 111.906L151.684 101.765ZM138.487 122.544C138.52 120.339 138.564 118.123 138.575 115.952L155.83 111.928L160.933 124.417C157.655 125.277 155.06 125.762 153.212 125.85C151.101 125.95 149.011 126.016 146.977 126.093C143.864 126.192 140.961 126.291 138.421 126.49C138.443 125.211 138.465 123.888 138.487 122.544ZM138.41 128.639C140.972 128.43 143.963 128.331 147.087 128.231C149.121 128.165 151.233 128.099 153.366 127.989C155.456 127.89 158.249 127.35 161.438 126.523L162.241 135.187L138.476 134.041C138.41 132.442 138.399 130.612 138.41 128.639ZM137.97 143.454L125.718 140.599C128.721 134.801 130.7 130.965 130.766 130.833L130.777 130.8C131.173 129.962 132.834 129.323 135.715 128.915C135.759 128.904 135.803 128.904 135.847 128.893C135.836 131.075 135.858 133.082 135.935 134.801C136.056 136.874 136.804 139.872 137.97 143.454ZM113.863 115.588C114.512 116.073 115.403 116.227 116.524 116.04C118.68 115.698 121.231 113.549 123.783 111.212L135.968 121.386C135.957 121.761 135.957 122.136 135.946 122.51C135.924 123.955 135.891 125.376 135.88 126.743C134.527 126.92 133.307 127.14 132.273 127.438L101.513 113.527C102.393 111.95 103.294 110.308 104.207 108.632L112.807 111.421C112.807 111.443 112.796 111.454 112.796 111.476C112.719 112.491 112.543 114.596 113.863 115.588ZM113.588 112.612C113.588 112.193 113.621 111.807 113.643 111.531C113.786 109.746 118.339 106.307 122.034 105.171C124.553 104.4 127.786 104.245 129.018 104.609L129.04 104.62C129.249 104.686 129.403 104.763 129.469 104.863C129.579 105.017 129.403 105.403 128.578 105.998C127.28 106.946 125.85 108.269 124.333 109.669C121.638 112.16 118.581 114.993 116.37 115.345C115.502 115.489 114.875 115.39 114.424 115.059C113.742 114.541 113.588 113.505 113.588 112.612ZM130.48 91.8994C132.372 94.2032 133.747 96.4299 134.56 98.4251C136.166 102.349 136.133 111.664 135.99 120.405L124.366 110.694C124.564 110.506 124.762 110.33 124.96 110.143C126.455 108.754 127.874 107.453 129.139 106.527C129.952 105.943 130.359 105.414 130.359 104.951C130.359 104.785 130.304 104.642 130.205 104.499C130.051 104.289 129.799 104.124 129.458 104.003L124.168 101.534L130.48 91.8994ZM117.756 99.362L127.093 103.705C125.279 103.716 123.112 104.08 121.748 104.499C118.394 105.524 114.039 108.511 113.016 110.727L110.289 109.845L117.756 99.362ZM117.019 99.0203L109.486 109.591L104.559 107.993C106.627 104.212 108.76 100.211 110.839 96.1433L117.019 99.0203ZM106.693 89.783C108.287 90.301 109.673 90.742 110.641 91.0396C108.32 95.7685 105.846 100.475 103.426 104.94L99.3683 103.374L106.693 89.783ZM62.6254 95.9449L71.4454 90.5656L84.6645 95.2614C83.2678 97.6204 82.1351 99.5604 81.2883 101.015C80.6724 102.063 80.2105 102.878 79.8916 103.43C79.8366 103.529 79.7926 103.606 79.7486 103.694L62.6254 95.9449ZM80.9583 109.558L69.3889 109.944V100.619L83.2568 106.891L80.9583 109.558ZM80.4854 104.025C81.0353 103.033 82.3 100.883 83.8727 98.1936L103.063 105.59C101.766 107.982 100.49 110.308 99.2583 112.513L80.4854 104.025ZM99.8851 116.459C100.182 115.919 100.49 115.379 100.787 114.827L130.337 128.198C129.436 128.672 128.787 129.268 128.424 130.017C128.281 130.304 126.257 134.217 123.233 140.048C120.583 139.42 118.702 136.554 117.899 131.957C117.866 131.77 117.855 131.693 117.833 131.627C117.723 131.263 117.701 131.186 113.951 129.521C112.136 128.716 109.618 127.625 106.462 126.28C102.536 124.605 98.5874 122.94 96.7178 122.158C97.7186 120.361 98.7744 118.454 99.8851 116.459ZM96.036 123.436C103.569 126.6 114.49 131.252 116.25 132.167C117.349 138.516 120.187 140.699 122.573 141.349C121.737 142.958 120.835 144.689 119.89 146.519L89.6684 134.658C92.2638 130.138 94.4963 126.214 96.036 123.436ZM84.9395 117.947L93.7925 122.411C93.1106 123.657 92.2748 125.134 91.329 126.798L80.9363 123.8L84.9395 117.947ZM71.9733 136.973L80.5184 124.417L90.9661 127.438C88.6896 131.439 85.8193 136.422 82.7399 141.735L71.9733 136.973ZM89.2945 135.297L119.538 147.169C117.91 150.3 116.14 153.684 114.314 157.167H97.6306L104.163 148.128L103.437 147.753L96.7068 157.046L80.5294 150.344C83.5978 145.141 86.6331 139.927 89.2945 135.297Z" fill="#BCBCBC" fill-opacity="0.42"/>
<path d="M213.556 147.621L218.483 146.221L218.34 145.505L213.281 146.949L213.556 147.621Z" fill="#BCBCBC" fill-opacity="0.42"/>
<path d="M209.498 130.712H206.419V133.776H209.498V130.712Z" fill="black" fill-opacity="0.42"/>
</g>
<defs>
<clipPath id="clip0_215_657">
<rect width="256" height="288" fill="white"/>
</clipPath>
</defs>
</svg>
